<?xml version="1.0" encoding="utf-8" ?>
<svg baseProfile="full" height="32mm" version="1.1" viewBox="0,0,120,32" width="120mm" xmlns="http://www.w3.org/2000/svg" xmlns:ev="http://www.w3.org/2001/xml-events" xmlns:xlink="http://www.w3.org/1999/xlink"><defs /><rect fill="white" height="100%" width="100%" x="0" y="0" /><rect fill="none" height="31.75" rx="2" ry="2" stroke="black" stroke-width="0.25" width="119.75" x="0.125" y="0.125" /><rect fill="black" height="21.0" width="21.0" x="95.5" y="3.5" /><rect fill="white" height="0.8333333333333334" width="0.8333333333333334" x="96.0" y="4.0" /><rect fill="white" height="0.8333333333333334" width="0.8333333333333334" x="97.66666666666667" y="4.0" /><rect fill="white" height="0.8333333333333334" width="0.8333333333333334" x="99.33333333333333" y="4.0" /><rect fill="white" height="0.8333333333333334" width="0.8333333333333334" x="101.0" y="4.0" /><rect fill="white" height="0.8333333333333334" width="0.8333333333333334" x="102.66666666666667" y="4.0" /><rect fill="white" height="0.8333333333333334" width="0.8333333333333334" x="104.33333333333333" y="4.0" /><rect fill="white" height="0.8333333333333334" width="0.8333333333333334" x="106.0" y="4.0" /><rect fill="white" height="0.8333333333333334" width="0.8333333333333334" x="107.66666666666667" y="4.0" /><rect fill="white" height="0.8333333333333334" width="0.8333333333333334" x="109.33333333333333" y="4.0" /><rect fill="white" height="0.8333333333333334" width="0.8333333333333334" x="111.0" y="4.0" /><rect fill="white" height="0.8333333333333334" width="0.8333333333333334" x="112.66666666666667" y="4.0" /><rect fill="white" height="0.8333333333333334" width="0.8333333333333334" x="114.33333333333334" y="4.0" /><rect fill="white" height="0.8333333333333334" width="0.8333333333333334" x="96.0" y="4.833333333333333" /><rect fill="white" height="0.8333333333333334" width="0.8333333333333334" x="96.83333333333333" y="4.833333333333333" /><rect fill="white" height="0.8333333333333334" width="0.8333333333333334" x="101.83333333333333" y="4.833333333333333" /><rect fill="white" height="0.8333333333333334" width="0.8333333333333334" x="106.0" y="4.833333333333333" /><rect fill="white" height="0.8333333333333334" width="0.8333333333333334" x="109.33333333333333" y="4.833333333333333" /><rect fill="white" height="0.8333333333333334" width="0.8333333333333334" x="110.16666666666667" y="4.833333333333333" /><rect fill="white" height="0.8333333333333334" width="0.8333333333333334" x="111.0" y="4.833333333333333" /><rect fill="white" height="0.8333333333333334" width="0.8333333333333334" x="112.66666666666667" y="4.833333333333333" /><rect fill="white" height="0.8333333333333334" width="0.8333333333333334" x="113.5" y="4.833333333333333" /><rect fill="white" height="0.8333333333333334" width="0.8333333333333334" x="115.16666666666667" y="4.833333333333333" /><rect fill="white" height="0.8333333333333334" width="0.8333333333333334" x="96.0" y="5.666666666666667" /><rect fill="white" height="0.8333333333333334" width="0.8333333333333334" x="96.83333333333333" y="5.666666666666667" /><rect fill="white" height="0.8333333333333334" width="0.8333333333333334" x="99.33333333333333" y="5.666666666666667" /><rect fill="white" height="0.8333333333333334" width="0.8333333333333334" x="100.16666666666667" y="5.666666666666667" /><rect fill="white" height="0.8333333333333334" width="0.8333333333333334" x="101.0" y="5.666666666666667" /><rect fill="white" height="0.8333333333333334" width="0.8333333333333334" x="103.5" y="5.666666666666667" /><rect fill="white" height="0.8333333333333334" width="0.8333333333333334" x="107.66666666666667" y="5.666666666666667" /><rect fill="white" height="0.8333333333333334" width="0.8333333333333334" x="112.66666666666667" y="5.666666666666667" /><rect fill="white" height="0.8333333333333334" width="0.8333333333333334" x="96.0" y="6.5" /><rect fill="white" height="0.8333333333333334" width="0.8333333333333334" x="96.83333333333333" y="6.5" /><rect fill="white" height="0.8333333333333334" width="0.8333333333333334" x="98.5" y="6.5" /><rect fill="white" height="0.8333333333333334" width="0.8333333333333334" x="100.16666666666667" y="6.5" /><rect fill="white" height="0.8333333333333334" width="0.8333333333333334" x="101.0" y="6.5" /><rect fill="white" height="0.8333333333333334" width="0.8333333333333334" x="102.66666666666667" y="6.5" /><rect fill="white" height="0.8333333333333334" width="0.8333333333333334" x="103.5" y="6.5" /><rect fill="white" height="0.8333333333333334" width="0.8333333333333334" x="105.16666666666667" y="6.5" /><rect fill="white" height="0.8333333333333334" width="0.8333333333333334" x="107.66666666666667" y="6.5" /><rect fill="white" height="0.8333333333333334" width="0.8333333333333334" x="108.5" y="6.5" /><rect fill="white" height="0.8333333333333334" width="0.8333333333333334" x="110.16666666666667" y="6.5" /><rect fill="white" height="0.8333333333333334" width="0.8333333333333334" x="112.66666666666667" y="6.5" /><rect fill="white" height="0.8333333333333334" width="0.8333333333333334" x="113.5" y="6.5" /><rect fill="white" height="0.8333333333333334" width="0.8333333333333334" x="115.16666666666667" y="6.5" /><rect fill="white" height="0.8333333333333334" width="0.8333333333333334" x="96.0" y="7.333333333333334" /><rect fill="white" height="0.8333333333333334" width="0.8333333333333334" x="98.5" y="7.333333333333334" /><rect fill="white" height="0.8333333333333334" width="0.8333333333333334" x="99.33333333333333" y="7.333333333333334" /><rect fill="white" height="0.8333333333333334" width="0.8333333333333334" x="101.0" y="7.333333333333334" /><rect fill="white" height="0.8333333333333334" width="0.8333333333333334" x="102.66666666666667" y="7.333333333333334" /><rect fill="white" height="0.8333333333333334" width="0.8333333333333334" x="103.5" y="7.333333333333334" /><rect fill="white" height="0.8333333333333334" width="0.8333333333333334" x="108.5" y="7.333333333333334" /><rect fill="white" height="0.8333333333333334" width="0.8333333333333334" x="109.33333333333333" y="7.333333333333334" /><rect fill="white" height="0.8333333333333334" width="0.8333333333333334" x="110.16666666666667" y="7.333333333333334" /><rect fill="white" height="0.8333333333333334" width="0.8333333333333334" x="111.0" y="7.333333333333334" /><rect fill="white" height="0.8333333333333334" width="0.8333333333333334" x="111.83333333333333" y="7.333333333333334" /><rect fill="white" height="0.8333333333333334" width="0.8333333333333334" x="112.66666666666667" y="7.333333333333334" /><rect fill="white" height="0.8333333333333334" width="0.8333333333333334" x="96.0" y="8.166666666666668" /><rect fill="white" height="0.8333333333333334" width="0.8333333333333334" x="99.33333333333333" y="8.166666666666668" /><rect fill="white" height="0.8333333333333334" width="0.8333333333333334" x="101.0" y="8.166666666666668" /><rect fill="white" height="0.8333333333333334" width="0.8333333333333334" x="104.33333333333333" y="8.166666666666668" /><rect fill="white" height="0.8333333333333334" width="0.8333333333333334" x="108.5" y="8.166666666666668" /><rect fill="white" height="0.8333333333333334" width="0.8333333333333334" x="111.0" y="8.166666666666668" /><rect fill="white" height="0.8333333333333334" width="0.8333333333333334" x="111.83333333333333" y="8.166666666666668" /><rect fill="white" height="0.8333333333333334" width="0.8333333333333334" x="112.66666666666667" y="8.166666666666668" /><rect fill="white" height="0.8333333333333334" width="0.8333333333333334" x="113.5" y="8.166666666666668" /><rect fill="white" height="0.8333333333333334" width="0.8333333333333334" x="114.33333333333334" y="8.166666666666668" /><rect fill="white" height="0.8333333333333334" width="0.8333333333333334" x="115.16666666666667" y="8.166666666666668" /><rect fill="white" height="0.8333333333333334" width="0.8333333333333334" x="96.0" y="9.0" /><rect fill="white" height="0.8333333333333334" width="0.8333333333333334" x="97.66666666666667" y="9.0" /><rect fill="white" height="0.8333333333333334" width="0.8333333333333334" x="98.5" y="9.0" /><rect fill="white" height="0.8333333333333334" width="0.8333333333333334" x="104.33333333333333" y="9.0" /><rect fill="white" height="0.8333333333333334" width="0.8333333333333334" x="105.16666666666667" y="9.0" /><rect fill="white" height="0.8333333333333334" width="0.8333333333333334" x="106.0" y="9.0" /><rect fill="white" height="0.8333333333333334" width="0.8333333333333334" x="106.83333333333333" y="9.0" /><rect fill="white" height="0.8333333333333334" width="0.8333333333333334" x="107.66666666666667" y="9.0" /><rect fill="white" height="0.8333333333333334" width="0.8333333333333334" x="109.33333333333333" y="9.0" /><rect fill="white" height="0.8333333333333334" width="0.8333333333333334" x="111.0" y="9.0" /><rect fill="white" height="0.8333333333333334" width="0.8333333333333334" x="111.83333333333333" y="9.0" /><rect fill="white" height="0.8333333333333334" width="0.8333333333333334" x="113.5" y="9.0" /><rect fill="white" height="0.8333333333333334" width="0.8333333333333334" x="96.0" y="9.833333333333334" /><rect fill="white" height="0.8333333333333334" width="0.8333333333333334" x="97.66666666666667" y="9.833333333333334" /><rect fill="white" height="0.8333333333333334" width="0.8333333333333334" x="98.5" y="9.833333333333334" /><rect fill="white" height="0.8333333333333334" width="0.8333333333333334" x="99.33333333333333" y="9.833333333333334" /><rect fill="white" height="0.8333333333333334" width="0.8333333333333334" x="100.16666666666667" y="9.833333333333334" /><rect fill="white" height="0.8333333333333334" width="0.8333333333333334" x="101.0" y="9.833333333333334" /><rect fill="white" height="0.8333333333333334" width="0.8333333333333334" x="101.83333333333333" y="9.833333333333334" /><rect fill="white" height="0.8333333333333334" width="0.8333333333333334" x="102.66666666666667" y="9.833333333333334" /><rect fill="white" height="0.8333333333333334" width="0.8333333333333334" x="103.5" y="9.833333333333334" /><rect fill="white" height="0.8333333333333334" width="0.8333333333333334" x="104.33333333333333" y="9.833333333333334" /><rect fill="white" height="0.8333333333333334" width="0.8333333333333334" x="105.16666666666667" y="9.833333333333334" /><rect fill="white" height="0.8333333333333334" width="0.8333333333333334" x="107.66666666666667" y="9.833333333333334" /><rect fill="white" height="0.8333333333333334" width="0.8333333333333334" x="108.5" y="9.833333333333334" /><rect fill="white" height="0.8333333333333334" width="0.8333333333333334" x="112.66666666666667" y="9.833333333333334" /><rect fill="white" height="0.8333333333333334" width="0.8333333333333334" x="113.5" y="9.833333333333334" /><rect fill="white" height="0.8333333333333334" width="0.8333333333333334" x="114.33333333333334" y="9.833333333333334" /><rect fill="white" height="0.8333333333333334" width="0.8333333333333334" x="115.16666666666667" y="9.833333333333334" /><rect fill="white" height="0.8333333333333334" width="0.8333333333333334" x="96.0" y="10.666666666666668" /><rect fill="white" height="0.8333333333333334" width="0.8333333333333334" x="97.66666666666667" y="10.666666666666668" /><rect fill="white" height="0.8333333333333334" width="0.8333333333333334" x="101.83333333333333" y="10.666666666666668" /><rect fill="white" height="0.8333333333333334" width="0.8333333333333334" x="102.66666666666667" y="10.666666666666668" /><rect fill="white" height="0.8333333333333334" width="0.8333333333333334" x="103.5" y="10.666666666666668" /><rect fill="white" height="0.8333333333333334" width="0.8333333333333334" x="104.33333333333333" y="10.666666666666668" /><rect fill="white" height="0.8333333333333334" width="0.8333333333333334" x="105.16666666666667" y="10.666666666666668" /><rect fill="white" height="0.8333333333333334" width="0.8333333333333334" x="107.66666666666667" y="10.666666666666668" /><rect fill="white" height="0.8333333333333334" width="0.8333333333333334" x="111.0" y="10.666666666666668" /><rect fill="white" height="0.8333333333333334" width="0.8333333333333334" x="111.83333333333333" y="10.666666666666668" /><rect fill="white" height="0.8333333333333334" width="0.8333333333333334" x="113.5" y="10.666666666666668" /><rect fill="white" height="0.8333333333333334" width="0.8333333333333334" x="96.0" y="11.5" /><rect fill="white" height="0.8333333333333334" width="0.8333333333333334" x="96.83333333333333" y="11.5" /><rect fill="white" height="0.8333333333333334" width="0.8333333333333334" x="97.66666666666667" y="11.5" /><rect fill="white" height="0.8333333333333334" width="0.8333333333333334" x="99.33333333333333" y="11.5" /><rect fill="white" height="0.8333333333333334" width="0.8333333333333334" x="101.83333333333333" y="11.5" /><rect fill="white" height="0.8333333333333334" width="0.8333333333333334" x="105.16666666666667" y="11.5" /><rect fill="white" height="0.8333333333333334" width="0.8333333333333334" x="106.83333333333333" y="11.5" /><rect fill="white" height="0.8333333333333334" width="0.8333333333333334" x="107.66666666666667" y="11.5" /><rect fill="white" height="0.8333333333333334" width="0.8333333333333334" x="108.5" y="11.5" /><rect fill="white" height="0.8333333333333334" width="0.8333333333333334" x="111.83333333333333" y="11.5" /><rect fill="white" height="0.8333333333333334" width="0.8333333333333334" x="112.66666666666667" y="11.5" /><rect fill="white" height="0.8333333333333334" width="0.8333333333333334" x="114.33333333333334" y="11.5" /><rect fill="white" height="0.8333333333333334" width="0.8333333333333334" x="115.16666666666667" y="11.5" /><rect fill="white" height="0.8333333333333334" width="0.8333333333333334" x="96.0" y="12.333333333333334" /><rect fill="white" height="0.8333333333333334" width="0.8333333333333334" x="97.66666666666667" y="12.333333333333334" /><rect fill="white" height="0.8333333333333334" width="0.8333333333333334" x="101.83333333333333" y="12.333333333333334" /><rect fill="white" height="0.8333333333333334" width="0.8333333333333334" x="102.66666666666667" y="12.333333333333334" /><rect fill="white" height="0.8333333333333334" width="0.8333333333333334" x="104.33333333333333" y="12.333333333333334" /><rect fill="white" height="0.8333333333333334" width="0.8333333333333334" x="105.16666666666667" y="12.333333333333334" /><rect fill="white" height="0.8333333333333334" width="0.8333333333333334" x="107.66666666666667" y="12.333333333333334" /><rect fill="white" height="0.8333333333333334" width="0.8333333333333334" x="109.33333333333333" y="12.333333333333334" /><rect fill="white" height="0.8333333333333334" width="0.8333333333333334" x="111.0" y="12.333333333333334" /><rect fill="white" height="0.8333333333333334" width="0.8333333333333334" x="114.33333333333334" y="12.333333333333334" /><rect fill="white" height="0.8333333333333334" width="0.8333333333333334" x="96.0" y="13.166666666666668" /><rect fill="white" height="0.8333333333333334" width="0.8333333333333334" x="97.66666666666667" y="13.166666666666668" /><rect fill="white" height="0.8333333333333334" width="0.8333333333333334" x="98.5" y="13.166666666666668" /><rect fill="white" height="0.8333333333333334" width="0.8333333333333334" x="100.16666666666667" y="13.166666666666668" /><rect fill="white" height="0.8333333333333334" width="0.8333333333333334" x="101.0" y="13.166666666666668" /><rect fill="white" height="0.8333333333333334" width="0.8333333333333334" x="101.83333333333333" y="13.166666666666668" /><rect fill="white" height="0.8333333333333334" width="0.8333333333333334" x="102.66666666666667" y="13.166666666666668" /><rect fill="white" height="0.8333333333333334" width="0.8333333333333334" x="105.16666666666667" y="13.166666666666668" /><rect fill="white" height="0.8333333333333334" width="0.8333333333333334" x="106.0" y="13.166666666666668" /><rect fill="white" height="0.8333333333333334" width="0.8333333333333334" x="106.83333333333333" y="13.166666666666668" /><rect fill="white" height="0.8333333333333334" width="0.8333333333333334" x="109.33333333333333" y="13.166666666666668" /><rect fill="white" height="0.8333333333333334" width="0.8333333333333334" x="111.0" y="13.166666666666668" /><rect fill="white" height="0.8333333333333334" width="0.8333333333333334" x="111.83333333333333" y="13.166666666666668" /><rect fill="white" height="0.8333333333333334" width="0.8333333333333334" x="114.33333333333334" y="13.166666666666668" /><rect fill="white" height="0.8333333333333334" width="0.8333333333333334" x="115.16666666666667" y="13.166666666666668" /><rect fill="white" height="0.8333333333333334" width="0.8333333333333334" x="96.0" y="14.0" /><rect fill="white" height="0.8333333333333334" width="0.8333333333333334" x="101.0" y="14.0" /><rect fill="white" height="0.8333333333333334" width="0.8333333333333334" x="101.83333333333333" y="14.0" /><rect fill="white" height="0.8333333333333334" width="0.8333333333333334" x="102.66666666666667" y="14.0" /><rect fill="white" height="0.8333333333333334" width="0.8333333333333334" x="103.5" y="14.0" /><rect fill="white" height="0.8333333333333334" width="0.8333333333333334" x="105.16666666666667" y="14.0" /><rect fill="white" height="0.8333333333333334" width="0.8333333333333334" x="106.0" y="14.0" /><rect fill="white" height="0.8333333333333334" width="0.8333333333333334" x="107.66666666666667" y="14.0" /><rect fill="white" height="0.8333333333333334" width="0.8333333333333334" x="108.5" y="14.0" /><rect fill="white" height="0.8333333333333334" width="0.8333333333333334" x="111.83333333333333" y="14.0" /><rect fill="white" height="0.8333333333333334" width="0.8333333333333334" x="113.5" y="14.0" /><rect fill="white" height="0.8333333333333334" width="0.8333333333333334" x="96.0" y="14.833333333333334" /><rect fill="white" height="0.8333333333333334" width="0.8333333333333334" x="96.83333333333333" y="14.833333333333334" /><rect fill="white" height="0.8333333333333334" width="0.8333333333333334" x="97.66666666666667" y="14.833333333333334" /><rect fill="white" height="0.8333333333333334" width="0.8333333333333334" x="98.5" y="14.833333333333334" /><rect fill="white" height="0.8333333333333334" width="0.8333333333333334" x="101.83333333333333" y="14.833333333333334" /><rect fill="white" height="0.8333333333333334" width="0.8333333333333334" x="102.66666666666667" y="14.833333333333334" /><rect fill="white" height="0.8333333333333334" width="0.8333333333333334" x="103.5" y="14.833333333333334" /><rect fill="white" height="0.8333333333333334" width="0.8333333333333334" x="105.16666666666667" y="14.833333333333334" /><rect fill="white" height="0.8333333333333334" width="0.8333333333333334" x="106.0" y="14.833333333333334" /><rect fill="white" height="0.8333333333333334" width="0.8333333333333334" x="106.83333333333333" y="14.833333333333334" /><rect fill="white" height="0.8333333333333334" width="0.8333333333333334" x="108.5" y="14.833333333333334" /><rect fill="white" height="0.8333333333333334" width="0.8333333333333334" x="109.33333333333333" y="14.833333333333334" /><rect fill="white" height="0.8333333333333334" width="0.8333333333333334" x="110.16666666666667" y="14.833333333333334" /><rect fill="white" height="0.8333333333333334" width="0.8333333333333334" x="111.0" y="14.833333333333334" /><rect fill="white" height="0.8333333333333334" width="0.8333333333333334" x="115.16666666666667" y="14.833333333333334" /><rect fill="white" height="0.8333333333333334" width="0.8333333333333334" x="96.0" y="15.666666666666668" /><rect fill="white" height="0.8333333333333334" width="0.8333333333333334" x="97.66666666666667" y="15.666666666666668" /><rect fill="white" height="0.8333333333333334" width="0.8333333333333334" x="99.33333333333333" y="15.666666666666668" /><rect fill="white" height="0.8333333333333334" width="0.8333333333333334" x="101.0" y="15.666666666666668" /><rect fill="white" height="0.8333333333333334" width="0.8333333333333334" x="102.66666666666667" y="15.666666666666668" /><rect fill="white" height="0.8333333333333334" width="0.8333333333333334" x="104.33333333333333" y="15.666666666666668" /><rect fill="white" height="0.8333333333333334" width="0.8333333333333334" x="106.83333333333333" y="15.666666666666668" /><rect fill="white" height="0.8333333333333334" width="0.8333333333333334" x="110.16666666666667" y="15.666666666666668" /><rect fill="white" height="0.8333333333333334" width="0.8333333333333334" x="111.0" y="15.666666666666668" /><rect fill="white" height="0.8333333333333334" width="0.8333333333333334" x="111.83333333333333" y="15.666666666666668" /><rect fill="white" height="0.8333333333333334" width="0.8333333333333334" x="114.33333333333334" y="15.666666666666668" /><rect fill="white" height="0.8333333333333334" width="0.8333333333333334" x="96.0" y="16.5" /><rect fill="white" height="0.8333333333333334" width="0.8333333333333334" x="96.83333333333333" y="16.5" /><rect fill="white" height="0.8333333333333334" width="0.8333333333333334" x="97.66666666666667" y="16.5" /><rect fill="white" height="0.8333333333333334" width="0.8333333333333334" x="98.5" y="16.5" /><rect fill="white" height="0.8333333333333334" width="0.8333333333333334" x="100.16666666666667" y="16.5" /><rect fill="white" height="0.8333333333333334" width="0.8333333333333334" x="103.5" y="16.5" /><rect fill="white" height="0.8333333333333334" width="0.8333333333333334" x="104.33333333333333" y="16.5" /><rect fill="white" height="0.8333333333333334" width="0.8333333333333334" x="105.16666666666667" y="16.5" /><rect fill="white" height="0.8333333333333334" width="0.8333333333333334" x="106.0" y="16.5" /><rect fill="white" height="0.8333333333333334" width="0.8333333333333334" x="108.5" y="16.5" /><rect fill="white" height="0.8333333333333334" width="0.8333333333333334" x="109.33333333333333" y="16.5" /><rect fill="white" height="0.8333333333333334" width="0.8333333333333334" x="110.16666666666667" y="16.5" /><rect fill="white" height="0.8333333333333334" width="0.8333333333333334" x="111.0" y="16.5" /><rect fill="white" height="0.8333333333333334" width="0.8333333333333334" x="111.83333333333333" y="16.5" /><rect fill="white" height="0.8333333333333334" width="0.8333333333333334" x="113.5" y="16.5" /><rect fill="white" height="0.8333333333333334" width="0.8333333333333334" x="114.33333333333334" y="16.5" /><rect fill="white" height="0.8333333333333334" width="0.8333333333333334" x="115.16666666666667" y="16.5" /><rect fill="white" height="0.8333333333333334" width="0.8333333333333334" x="96.0" y="17.333333333333336" /><rect fill="white" height="0.8333333333333334" width="0.8333333333333334" x="97.66666666666667" y="17.333333333333336" /><rect fill="white" height="0.8333333333333334" width="0.8333333333333334" x="99.33333333333333" y="17.333333333333336" /><rect fill="white" height="0.8333333333333334" width="0.8333333333333334" x="100.16666666666667" y="17.333333333333336" /><rect fill="white" height="0.8333333333333334" width="0.8333333333333334" x="101.0" y="17.333333333333336" /><rect fill="white" height="0.8333333333333334" width="0.8333333333333334" x="101.83333333333333" y="17.333333333333336" /><rect fill="white" height="0.8333333333333334" width="0.8333333333333334" x="105.16666666666667" y="17.333333333333336" /><rect fill="white" height="0.8333333333333334" width="0.8333333333333334" x="106.83333333333333" y="17.333333333333336" /><rect fill="white" height="0.8333333333333334" width="0.8333333333333334" x="109.33333333333333" y="17.333333333333336" /><rect fill="white" height="0.8333333333333334" width="0.8333333333333334" x="112.66666666666667" y="17.333333333333336" /><rect fill="white" height="0.8333333333333334" width="0.8333333333333334" x="113.5" y="17.333333333333336" /><rect fill="white" height="0.8333333333333334" width="0.8333333333333334" x="96.0" y="18.166666666666668" /><rect fill="white" height="0.8333333333333334" width="0.8333333333333334" x="96.83333333333333" y="18.166666666666668" /><rect fill="white" height="0.8333333333333334" width="0.8333333333333334" x="101.0" y="18.166666666666668" /><rect fill="white" height="0.8333333333333334" width="0.8333333333333334" x="101.83333333333333" y="18.166666666666668" /><rect fill="white" height="0.8333333333333334" width="0.8333333333333334" x="105.16666666666667" y="18.166666666666668" /><rect fill="white" height="0.8333333333333334" width="0.8333333333333334" x="110.16666666666667" y="18.166666666666668" /><rect fill="white" height="0.8333333333333334" width="0.8333333333333334" x="111.0" y="18.166666666666668" /><rect fill="white" height="0.8333333333333334" width="0.8333333333333334" x="112.66666666666667" y="18.166666666666668" /><rect fill="white" height="0.8333333333333334" width="0.8333333333333334" x="115.16666666666667" y="18.166666666666668" /><rect fill="white" height="0.8333333333333334" width="0.8333333333333334" x="96.0" y="19.0" /><rect fill="white" height="0.8333333333333334" width="0.8333333333333334" x="96.83333333333333" y="19.0" /><rect fill="white" height="0.8333333333333334" width="0.8333333333333334" x="97.66666666666667" y="19.0" /><rect fill="white" height="0.8333333333333334" width="0.8333333333333334" x="98.5" y="19.0" /><rect fill="white" height="0.8333333333333334" width="0.8333333333333334" x="99.33333333333333" y="19.0" /><rect fill="white" height="0.8333333333333334" width="0.8333333333333334" x="101.0" y="19.0" /><rect fill="white" height="0.8333333333333334" width="0.8333333333333334" x="101.83333333333333" y="19.0" /><rect fill="white" height="0.8333333333333334" width="0.8333333333333334" x="102.66666666666667" y="19.0" /><rect fill="white" height="0.8333333333333334" width="0.8333333333333334" x="104.33333333333333" y="19.0" /><rect fill="white" height="0.8333333333333334" width="0.8333333333333334" x="106.0" y="19.0" /><rect fill="white" height="0.8333333333333334" width="0.8333333333333334" x="106.83333333333333" y="19.0" /><rect fill="white" height="0.8333333333333334" width="0.8333333333333334" x="109.33333333333333" y="19.0" /><rect fill="white" height="0.8333333333333334" width="0.8333333333333334" x="111.83333333333333" y="19.0" /><rect fill="white" height="0.8333333333333334" width="0.8333333333333334" x="112.66666666666667" y="19.0" /><rect fill="white" height="0.8333333333333334" width="0.8333333333333334" x="113.5" y="19.0" /><rect fill="white" height="0.8333333333333334" width="0.8333333333333334" x="96.0" y="19.833333333333336" /><rect fill="white" height="0.8333333333333334" width="0.8333333333333334" x="98.5" y="19.833333333333336" /><rect fill="white" height="0.8333333333333334" width="0.8333333333333334" x="99.33333333333333" y="19.833333333333336" /><rect fill="white" height="0.8333333333333334" width="0.8333333333333334" x="101.0" y="19.833333333333336" /><rect fill="white" height="0.8333333333333334" width="0.8333333333333334" x="101.83333333333333" y="19.833333333333336" /><rect fill="white" height="0.8333333333333334" width="0.8333333333333334" x="102.66666666666667" y="19.833333333333336" /><rect fill="white" height="0.8333333333333334" width="0.8333333333333334" x="103.5" y="19.833333333333336" /><rect fill="white" height="0.8333333333333334" width="0.8333333333333334" x="109.33333333333333" y="19.833333333333336" /><rect fill="white" height="0.8333333333333334" width="0.8333333333333334" x="111.0" y="19.833333333333336" /><rect fill="white" height="0.8333333333333334" width="0.8333333333333334" x="111.83333333333333" y="19.833333333333336" /><rect fill="white" height="0.8333333333333334" width="0.8333333333333334" x="112.66666666666667" y="19.833333333333336" /><rect fill="white" height="0.8333333333333334" width="0.8333333333333334" x="114.33333333333334" y="19.833333333333336" /><rect fill="white" height="0.8333333333333334" width="0.8333333333333334" x="115.16666666666667" y="19.833333333333336" /><rect fill="white" height="0.8333333333333334" width="0.8333333333333334" x="96.0" y="20.666666666666668" /><rect fill="white" height="0.8333333333333334" width="0.8333333333333334" x="96.83333333333333" y="20.666666666666668" /><rect fill="white" height="0.8333333333333334" width="0.8333333333333334" x="105.16666666666667" y="20.666666666666668" /><rect fill="white" height="0.8333333333333334" width="0.8333333333333334" x="106.83333333333333" y="20.666666666666668" /><rect fill="white" height="0.8333333333333334" width="0.8333333333333334" x="109.33333333333333" y="20.666666666666668" /><rect fill="white" height="0.8333333333333334" width="0.8333333333333334" x="111.83333333333333" y="20.666666666666668" /><rect fill="white" height="0.8333333333333334" width="0.8333333333333334" x="96.0" y="21.5" /><rect fill="white" height="0.8333333333333334" width="0.8333333333333334" x="96.83333333333333" y="21.5" /><rect fill="white" height="0.8333333333333334" width="0.8333333333333334" x="97.66666666666667" y="21.5" /><rect fill="white" height="0.8333333333333334" width="0.8333333333333334" x="98.5" y="21.5" /><rect fill="white" height="0.8333333333333334" width="0.8333333333333334" x="99.33333333333333" y="21.5" /><rect fill="white" height="0.8333333333333334" width="0.8333333333333334" x="100.16666666666667" y="21.5" /><rect fill="white" height="0.8333333333333334" width="0.8333333333333334" x="104.33333333333333" y="21.5" /><rect fill="white" height="0.8333333333333334" width="0.8333333333333334" x="108.5" y="21.5" /><rect fill="white" height="0.8333333333333334" width="0.8333333333333334" x="109.33333333333333" y="21.5" /><rect fill="white" height="0.8333333333333334" width="0.8333333333333334" x="112.66666666666667" y="21.5" /><rect fill="white" height="0.8333333333333334" width="0.8333333333333334" x="113.5" y="21.5" /><rect fill="white" height="0.8333333333333334" width="0.8333333333333334" x="115.16666666666667" y="21.5" /><rect fill="white" height="0.8333333333333334" width="0.8333333333333334" x="96.0" y="22.333333333333336" /><rect fill="white" height="0.8333333333333334" width="0.8333333333333334" x="99.33333333333333" y="22.333333333333336" /><rect fill="white" height="0.8333333333333334" width="0.8333333333333334" x="101.0" y="22.333333333333336" /><rect fill="white" height="0.8333333333333334" width="0.8333333333333334" x="101.83333333333333" y="22.333333333333336" /><rect fill="white" height="0.8333333333333334" width="0.8333333333333334" x="107.66666666666667" y="22.333333333333336" /><rect fill="white" height="0.8333333333333334" width="0.8333333333333334" x="108.5" y="22.333333333333336" /><rect fill="white" height="0.8333333333333334" width="0.8333333333333334" x="110.16666666666667" y="22.333333333333336" /><rect fill="white" height="0.8333333333333334" width="0.8333333333333334" x="114.33333333333334" y="22.333333333333336" /><rect fill="white" height="0.8333333333333334" width="0.8333333333333334" x="96.0" y="23.166666666666668" /><rect fill="white" height="0.8333333333333334" width="0.8333333333333334" x="96.83333333333333" y="23.166666666666668" /><rect fill="white" height="0.8333333333333334" width="0.8333333333333334" x="97.66666666666667" y="23.166666666666668" /><rect fill="white" height="0.8333333333333334" width="0.8333333333333334" x="98.5" y="23.166666666666668" /><rect fill="white" height="0.8333333333333334" width="0.8333333333333334" x="99.33333333333333" y="23.166666666666668" /><rect fill="white" height="0.8333333333333334" width="0.8333333333333334" x="100.16666666666667" y="23.166666666666668" /><rect fill="white" height="0.8333333333333334" width="0.8333333333333334" x="101.0" y="23.166666666666668" /><rect fill="white" height="0.8333333333333334" width="0.8333333333333334" x="101.83333333333333" y="23.166666666666668" /><rect fill="white" height="0.8333333333333334" width="0.8333333333333334" x="102.66666666666667" y="23.166666666666668" /><rect fill="white" height="0.8333333333333334" width="0.8333333333333334" x="103.5" y="23.166666666666668" /><rect fill="white" height="0.8333333333333334" width="0.8333333333333334" x="104.33333333333333" y="23.166666666666668" /><rect fill="white" height="0.8333333333333334" width="0.8333333333333334" x="105.16666666666667" y="23.166666666666668" /><rect fill="white" height="0.8333333333333334" width="0.8333333333333334" x="106.0" y="23.166666666666668" /><rect fill="white" height="0.8333333333333334" width="0.8333333333333334" x="106.83333333333333" y="23.166666666666668" /><rect fill="white" height="0.8333333333333334" width="0.8333333333333334" x="107.66666666666667" y="23.166666666666668" /><rect fill="white" height="0.8333333333333334" width="0.8333333333333334" x="108.5" y="23.166666666666668" /><rect fill="white" height="0.8333333333333334" width="0.8333333333333334" x="109.33333333333333" y="23.166666666666668" /><rect fill="white" height="0.8333333333333334" width="0.8333333333333334" x="110.16666666666667" y="23.166666666666668" /><rect fill="white" height="0.8333333333333334" width="0.8333333333333334" x="111.0" y="23.166666666666668" /><rect fill="white" height="0.8333333333333334" width="0.8333333333333334" x="111.83333333333333" y="23.166666666666668" /><rect fill="white" height="0.8333333333333334" width="0.8333333333333334" x="112.66666666666667" y="23.166666666666668" /><rect fill="white" height="0.8333333333333334" width="0.8333333333333334" x="113.5" y="23.166666666666668" /><rect fill="white" height="0.8333333333333334" width="0.8333333333333334" x="114.33333333333334" y="23.166666666666668" /><rect fill="white" height="0.8333333333333334" width="0.8333333333333334" x="115.16666666666667" y="23.166666666666668" /><text dominant-baseline="hanging" fill="black" font-family="Arial" font-size="7.055555555555555" font-weight="bold" letter-spacing="0.2" x="4" y="3.0">MFR 9G8G8</text><text dominant-baseline="hanging" fill="black" font-family="Arial" font-size="7.055555555555555" font-weight="bold" letter-spacing="0.2" x="4" y="12.17222222222222">SER AA00047-26160-01</text><text dominant-baseline="hanging" fill="black" font-family="Arial" font-size="7.055555555555555" font-weight="bold" letter-spacing="0.2" x="4" y="21.34444444444444">PNR AA00047 REV </text></svg>