<?xml version="1.0" encoding="utf-8" ?>
<svg baseProfile="full" height="35mm" version="1.1" viewBox="0,0,103,35" width="103mm" xmlns="http://www.w3.org/2000/svg" xmlns:ev="http://www.w3.org/2001/xml-events" xmlns:xlink="http://www.w3.org/1999/xlink"><defs /><rect fill="white" height="100%" width="100%" x="0" y="0" /><rect fill="none" height="34.75" rx="2" ry="2" stroke="black" stroke-width="0.25" width="102.75" x="0.125" y="0.125" /><rect fill="black" height="17.0" width="17.0" x="82.5" y="3.5" /><rect fill="white" height="0.7272727272727273" width="0.7272727272727273" x="83.0" y="4.0" /><rect fill="white" height="0.7272727272727273" width="0.7272727272727273" x="84.45454545454545" y="4.0" /><rect fill="white" height="0.7272727272727273" width="0.7272727272727273" x="85.9090909090909" y="4.0" /><rect fill="white" height="0.7272727272727273" width="0.7272727272727273" x="87.36363636363636" y="4.0" /><rect fill="white" height="0.7272727272727273" width="0.7272727272727273" x="88.81818181818181" y="4.0" /><rect fill="white" height="0.7272727272727273" width="0.7272727272727273" x="90.27272727272728" y="4.0" /><rect fill="white" height="0.7272727272727273" width="0.7272727272727273" x="91.72727272727272" y="4.0" /><rect fill="white" height="0.7272727272727273" width="0.7272727272727273" x="93.18181818181819" y="4.0" /><rect fill="white" height="0.7272727272727273" width="0.7272727272727273" x="94.63636363636364" y="4.0" /><rect fill="white" height="0.7272727272727273" width="0.7272727272727273" x="96.0909090909091" y="4.0" /><rect fill="white" height="0.7272727272727273" width="0.7272727272727273" x="97.54545454545455" y="4.0" /><rect fill="white" height="0.7272727272727273" width="0.7272727272727273" x="83.0" y="4.7272727272727275" /><rect fill="white" height="0.7272727272727273" width="0.7272727272727273" x="83.72727272727273" y="4.7272727272727275" /><rect fill="white" height="0.7272727272727273" width="0.7272727272727273" x="84.45454545454545" y="4.7272727272727275" /><rect fill="white" height="0.7272727272727273" width="0.7272727272727273" x="85.9090909090909" y="4.7272727272727275" /><rect fill="white" height="0.7272727272727273" width="0.7272727272727273" x="86.63636363636364" y="4.7272727272727275" /><rect fill="white" height="0.7272727272727273" width="0.7272727272727273" x="88.0909090909091" y="4.7272727272727275" /><rect fill="white" height="0.7272727272727273" width="0.7272727272727273" x="88.81818181818181" y="4.7272727272727275" /><rect fill="white" height="0.7272727272727273" width="0.7272727272727273" x="91.0" y="4.7272727272727275" /><rect fill="white" height="0.7272727272727273" width="0.7272727272727273" x="92.45454545454545" y="4.7272727272727275" /><rect fill="white" height="0.7272727272727273" width="0.7272727272727273" x="93.9090909090909" y="4.7272727272727275" /><rect fill="white" height="0.7272727272727273" width="0.7272727272727273" x="94.63636363636364" y="4.7272727272727275" /><rect fill="white" height="0.7272727272727273" width="0.7272727272727273" x="95.36363636363636" y="4.7272727272727275" /><rect fill="white" height="0.7272727272727273" width="0.7272727272727273" x="96.81818181818181" y="4.7272727272727275" /><rect fill="white" height="0.7272727272727273" width="0.7272727272727273" x="97.54545454545455" y="4.7272727272727275" /><rect fill="white" height="0.7272727272727273" width="0.7272727272727273" x="98.27272727272728" y="4.7272727272727275" /><rect fill="white" height="0.7272727272727273" width="0.7272727272727273" x="83.0" y="5.454545454545455" /><rect fill="white" height="0.7272727272727273" width="0.7272727272727273" x="83.72727272727273" y="5.454545454545455" /><rect fill="white" height="0.7272727272727273" width="0.7272727272727273" x="86.63636363636364" y="5.454545454545455" /><rect fill="white" height="0.7272727272727273" width="0.7272727272727273" x="87.36363636363636" y="5.454545454545455" /><rect fill="white" height="0.7272727272727273" width="0.7272727272727273" x="90.27272727272728" y="5.454545454545455" /><rect fill="white" height="0.7272727272727273" width="0.7272727272727273" x="91.0" y="5.454545454545455" /><rect fill="white" height="0.7272727272727273" width="0.7272727272727273" x="91.72727272727272" y="5.454545454545455" /><rect fill="white" height="0.7272727272727273" width="0.7272727272727273" x="92.45454545454545" y="5.454545454545455" /><rect fill="white" height="0.7272727272727273" width="0.7272727272727273" x="93.18181818181819" y="5.454545454545455" /><rect fill="white" height="0.7272727272727273" width="0.7272727272727273" x="93.9090909090909" y="5.454545454545455" /><rect fill="white" height="0.7272727272727273" width="0.7272727272727273" x="94.63636363636364" y="5.454545454545455" /><rect fill="white" height="0.7272727272727273" width="0.7272727272727273" x="95.36363636363636" y="5.454545454545455" /><rect fill="white" height="0.7272727272727273" width="0.7272727272727273" x="96.0909090909091" y="5.454545454545455" /><rect fill="white" height="0.7272727272727273" width="0.7272727272727273" x="83.0" y="6.181818181818182" /><rect fill="white" height="0.7272727272727273" width="0.7272727272727273" x="83.72727272727273" y="6.181818181818182" /><rect fill="white" height="0.7272727272727273" width="0.7272727272727273" x="84.45454545454545" y="6.181818181818182" /><rect fill="white" height="0.7272727272727273" width="0.7272727272727273" x="86.63636363636364" y="6.181818181818182" /><rect fill="white" height="0.7272727272727273" width="0.7272727272727273" x="88.81818181818181" y="6.181818181818182" /><rect fill="white" height="0.7272727272727273" width="0.7272727272727273" x="91.0" y="6.181818181818182" /><rect fill="white" height="0.7272727272727273" width="0.7272727272727273" x="91.72727272727272" y="6.181818181818182" /><rect fill="white" height="0.7272727272727273" width="0.7272727272727273" x="93.18181818181819" y="6.181818181818182" /><rect fill="white" height="0.7272727272727273" width="0.7272727272727273" x="94.63636363636364" y="6.181818181818182" /><rect fill="white" height="0.7272727272727273" width="0.7272727272727273" x="95.36363636363636" y="6.181818181818182" /><rect fill="white" height="0.7272727272727273" width="0.7272727272727273" x="96.81818181818181" y="6.181818181818182" /><rect fill="white" height="0.7272727272727273" width="0.7272727272727273" x="97.54545454545455" y="6.181818181818182" /><rect fill="white" height="0.7272727272727273" width="0.7272727272727273" x="98.27272727272728" y="6.181818181818182" /><rect fill="white" height="0.7272727272727273" width="0.7272727272727273" x="83.0" y="6.909090909090909" /><rect fill="white" height="0.7272727272727273" width="0.7272727272727273" x="83.72727272727273" y="6.909090909090909" /><rect fill="white" height="0.7272727272727273" width="0.7272727272727273" x="85.18181818181819" y="6.909090909090909" /><rect fill="white" height="0.7272727272727273" width="0.7272727272727273" x="85.9090909090909" y="6.909090909090909" /><rect fill="white" height="0.7272727272727273" width="0.7272727272727273" x="88.0909090909091" y="6.909090909090909" /><rect fill="white" height="0.7272727272727273" width="0.7272727272727273" x="93.18181818181819" y="6.909090909090909" /><rect fill="white" height="0.7272727272727273" width="0.7272727272727273" x="93.9090909090909" y="6.909090909090909" /><rect fill="white" height="0.7272727272727273" width="0.7272727272727273" x="94.63636363636364" y="6.909090909090909" /><rect fill="white" height="0.7272727272727273" width="0.7272727272727273" x="83.0" y="7.636363636363637" /><rect fill="white" height="0.7272727272727273" width="0.7272727272727273" x="84.45454545454545" y="7.636363636363637" /><rect fill="white" height="0.7272727272727273" width="0.7272727272727273" x="85.9090909090909" y="7.636363636363637" /><rect fill="white" height="0.7272727272727273" width="0.7272727272727273" x="88.0909090909091" y="7.636363636363637" /><rect fill="white" height="0.7272727272727273" width="0.7272727272727273" x="89.54545454545455" y="7.636363636363637" /><rect fill="white" height="0.7272727272727273" width="0.7272727272727273" x="91.0" y="7.636363636363637" /><rect fill="white" height="0.7272727272727273" width="0.7272727272727273" x="95.36363636363636" y="7.636363636363637" /><rect fill="white" height="0.7272727272727273" width="0.7272727272727273" x="96.0909090909091" y="7.636363636363637" /><rect fill="white" height="0.7272727272727273" width="0.7272727272727273" x="96.81818181818181" y="7.636363636363637" /><rect fill="white" height="0.7272727272727273" width="0.7272727272727273" x="97.54545454545455" y="7.636363636363637" /><rect fill="white" height="0.7272727272727273" width="0.7272727272727273" x="98.27272727272728" y="7.636363636363637" /><rect fill="white" height="0.7272727272727273" width="0.7272727272727273" x="83.0" y="8.363636363636363" /><rect fill="white" height="0.7272727272727273" width="0.7272727272727273" x="83.72727272727273" y="8.363636363636363" /><rect fill="white" height="0.7272727272727273" width="0.7272727272727273" x="84.45454545454545" y="8.363636363636363" /><rect fill="white" height="0.7272727272727273" width="0.7272727272727273" x="85.9090909090909" y="8.363636363636363" /><rect fill="white" height="0.7272727272727273" width="0.7272727272727273" x="87.36363636363636" y="8.363636363636363" /><rect fill="white" height="0.7272727272727273" width="0.7272727272727273" x="89.54545454545455" y="8.363636363636363" /><rect fill="white" height="0.7272727272727273" width="0.7272727272727273" x="90.27272727272728" y="8.363636363636363" /><rect fill="white" height="0.7272727272727273" width="0.7272727272727273" x="91.0" y="8.363636363636363" /><rect fill="white" height="0.7272727272727273" width="0.7272727272727273" x="91.72727272727272" y="8.363636363636363" /><rect fill="white" height="0.7272727272727273" width="0.7272727272727273" x="92.45454545454545" y="8.363636363636363" /><rect fill="white" height="0.7272727272727273" width="0.7272727272727273" x="93.18181818181819" y="8.363636363636363" /><rect fill="white" height="0.7272727272727273" width="0.7272727272727273" x="95.36363636363636" y="8.363636363636363" /><rect fill="white" height="0.7272727272727273" width="0.7272727272727273" x="96.0909090909091" y="8.363636363636363" /><rect fill="white" height="0.7272727272727273" width="0.7272727272727273" x="96.81818181818181" y="8.363636363636363" /><rect fill="white" height="0.7272727272727273" width="0.7272727272727273" x="83.0" y="9.09090909090909" /><rect fill="white" height="0.7272727272727273" width="0.7272727272727273" x="83.72727272727273" y="9.09090909090909" /><rect fill="white" height="0.7272727272727273" width="0.7272727272727273" x="84.45454545454545" y="9.09090909090909" /><rect fill="white" height="0.7272727272727273" width="0.7272727272727273" x="85.18181818181819" y="9.09090909090909" /><rect fill="white" height="0.7272727272727273" width="0.7272727272727273" x="85.9090909090909" y="9.09090909090909" /><rect fill="white" height="0.7272727272727273" width="0.7272727272727273" x="87.36363636363636" y="9.09090909090909" /><rect fill="white" height="0.7272727272727273" width="0.7272727272727273" x="88.0909090909091" y="9.09090909090909" /><rect fill="white" height="0.7272727272727273" width="0.7272727272727273" x="88.81818181818181" y="9.09090909090909" /><rect fill="white" height="0.7272727272727273" width="0.7272727272727273" x="91.72727272727272" y="9.09090909090909" /><rect fill="white" height="0.7272727272727273" width="0.7272727272727273" x="92.45454545454545" y="9.09090909090909" /><rect fill="white" height="0.7272727272727273" width="0.7272727272727273" x="93.9090909090909" y="9.09090909090909" /><rect fill="white" height="0.7272727272727273" width="0.7272727272727273" x="96.0909090909091" y="9.09090909090909" /><rect fill="white" height="0.7272727272727273" width="0.7272727272727273" x="97.54545454545455" y="9.09090909090909" /><rect fill="white" height="0.7272727272727273" width="0.7272727272727273" x="98.27272727272728" y="9.09090909090909" /><rect fill="white" height="0.7272727272727273" width="0.7272727272727273" x="83.0" y="9.818181818181818" /><rect fill="white" height="0.7272727272727273" width="0.7272727272727273" x="83.72727272727273" y="9.818181818181818" /><rect fill="white" height="0.7272727272727273" width="0.7272727272727273" x="85.18181818181819" y="9.818181818181818" /><rect fill="white" height="0.7272727272727273" width="0.7272727272727273" x="85.9090909090909" y="9.818181818181818" /><rect fill="white" height="0.7272727272727273" width="0.7272727272727273" x="87.36363636363636" y="9.818181818181818" /><rect fill="white" height="0.7272727272727273" width="0.7272727272727273" x="88.0909090909091" y="9.818181818181818" /><rect fill="white" height="0.7272727272727273" width="0.7272727272727273" x="88.81818181818181" y="9.818181818181818" /><rect fill="white" height="0.7272727272727273" width="0.7272727272727273" x="92.45454545454545" y="9.818181818181818" /><rect fill="white" height="0.7272727272727273" width="0.7272727272727273" x="95.36363636363636" y="9.818181818181818" /><rect fill="white" height="0.7272727272727273" width="0.7272727272727273" x="96.0909090909091" y="9.818181818181818" /><rect fill="white" height="0.7272727272727273" width="0.7272727272727273" x="83.0" y="10.545454545454547" /><rect fill="white" height="0.7272727272727273" width="0.7272727272727273" x="83.72727272727273" y="10.545454545454547" /><rect fill="white" height="0.7272727272727273" width="0.7272727272727273" x="84.45454545454545" y="10.545454545454547" /><rect fill="white" height="0.7272727272727273" width="0.7272727272727273" x="91.72727272727272" y="10.545454545454547" /><rect fill="white" height="0.7272727272727273" width="0.7272727272727273" x="92.45454545454545" y="10.545454545454547" /><rect fill="white" height="0.7272727272727273" width="0.7272727272727273" x="93.18181818181819" y="10.545454545454547" /><rect fill="white" height="0.7272727272727273" width="0.7272727272727273" x="93.9090909090909" y="10.545454545454547" /><rect fill="white" height="0.7272727272727273" width="0.7272727272727273" x="94.63636363636364" y="10.545454545454547" /><rect fill="white" height="0.7272727272727273" width="0.7272727272727273" x="96.81818181818181" y="10.545454545454547" /><rect fill="white" height="0.7272727272727273" width="0.7272727272727273" x="97.54545454545455" y="10.545454545454547" /><rect fill="white" height="0.7272727272727273" width="0.7272727272727273" x="98.27272727272728" y="10.545454545454547" /><rect fill="white" height="0.7272727272727273" width="0.7272727272727273" x="83.0" y="11.272727272727273" /><rect fill="white" height="0.7272727272727273" width="0.7272727272727273" x="85.18181818181819" y="11.272727272727273" /><rect fill="white" height="0.7272727272727273" width="0.7272727272727273" x="86.63636363636364" y="11.272727272727273" /><rect fill="white" height="0.7272727272727273" width="0.7272727272727273" x="88.0909090909091" y="11.272727272727273" /><rect fill="white" height="0.7272727272727273" width="0.7272727272727273" x="89.54545454545455" y="11.272727272727273" /><rect fill="white" height="0.7272727272727273" width="0.7272727272727273" x="90.27272727272728" y="11.272727272727273" /><rect fill="white" height="0.7272727272727273" width="0.7272727272727273" x="91.0" y="11.272727272727273" /><rect fill="white" height="0.7272727272727273" width="0.7272727272727273" x="94.63636363636364" y="11.272727272727273" /><rect fill="white" height="0.7272727272727273" width="0.7272727272727273" x="95.36363636363636" y="11.272727272727273" /><rect fill="white" height="0.7272727272727273" width="0.7272727272727273" x="96.0909090909091" y="11.272727272727273" /><rect fill="white" height="0.7272727272727273" width="0.7272727272727273" x="83.0" y="12.0" /><rect fill="white" height="0.7272727272727273" width="0.7272727272727273" x="84.45454545454545" y="12.0" /><rect fill="white" height="0.7272727272727273" width="0.7272727272727273" x="88.0909090909091" y="12.0" /><rect fill="white" height="0.7272727272727273" width="0.7272727272727273" x="88.81818181818181" y="12.0" /><rect fill="white" height="0.7272727272727273" width="0.7272727272727273" x="90.27272727272728" y="12.0" /><rect fill="white" height="0.7272727272727273" width="0.7272727272727273" x="95.36363636363636" y="12.0" /><rect fill="white" height="0.7272727272727273" width="0.7272727272727273" x="97.54545454545455" y="12.0" /><rect fill="white" height="0.7272727272727273" width="0.7272727272727273" x="98.27272727272728" y="12.0" /><rect fill="white" height="0.7272727272727273" width="0.7272727272727273" x="83.0" y="12.727272727272727" /><rect fill="white" height="0.7272727272727273" width="0.7272727272727273" x="85.18181818181819" y="12.727272727272727" /><rect fill="white" height="0.7272727272727273" width="0.7272727272727273" x="85.9090909090909" y="12.727272727272727" /><rect fill="white" height="0.7272727272727273" width="0.7272727272727273" x="86.63636363636364" y="12.727272727272727" /><rect fill="white" height="0.7272727272727273" width="0.7272727272727273" x="87.36363636363636" y="12.727272727272727" /><rect fill="white" height="0.7272727272727273" width="0.7272727272727273" x="88.81818181818181" y="12.727272727272727" /><rect fill="white" height="0.7272727272727273" width="0.7272727272727273" x="89.54545454545455" y="12.727272727272727" /><rect fill="white" height="0.7272727272727273" width="0.7272727272727273" x="90.27272727272728" y="12.727272727272727" /><rect fill="white" height="0.7272727272727273" width="0.7272727272727273" x="92.45454545454545" y="12.727272727272727" /><rect fill="white" height="0.7272727272727273" width="0.7272727272727273" x="93.18181818181819" y="12.727272727272727" /><rect fill="white" height="0.7272727272727273" width="0.7272727272727273" x="95.36363636363636" y="12.727272727272727" /><rect fill="white" height="0.7272727272727273" width="0.7272727272727273" x="97.54545454545455" y="12.727272727272727" /><rect fill="white" height="0.7272727272727273" width="0.7272727272727273" x="83.0" y="13.454545454545455" /><rect fill="white" height="0.7272727272727273" width="0.7272727272727273" x="85.18181818181819" y="13.454545454545455" /><rect fill="white" height="0.7272727272727273" width="0.7272727272727273" x="85.9090909090909" y="13.454545454545455" /><rect fill="white" height="0.7272727272727273" width="0.7272727272727273" x="86.63636363636364" y="13.454545454545455" /><rect fill="white" height="0.7272727272727273" width="0.7272727272727273" x="88.81818181818181" y="13.454545454545455" /><rect fill="white" height="0.7272727272727273" width="0.7272727272727273" x="89.54545454545455" y="13.454545454545455" /><rect fill="white" height="0.7272727272727273" width="0.7272727272727273" x="91.72727272727272" y="13.454545454545455" /><rect fill="white" height="0.7272727272727273" width="0.7272727272727273" x="92.45454545454545" y="13.454545454545455" /><rect fill="white" height="0.7272727272727273" width="0.7272727272727273" x="93.18181818181819" y="13.454545454545455" /><rect fill="white" height="0.7272727272727273" width="0.7272727272727273" x="95.36363636363636" y="13.454545454545455" /><rect fill="white" height="0.7272727272727273" width="0.7272727272727273" x="98.27272727272728" y="13.454545454545455" /><rect fill="white" height="0.7272727272727273" width="0.7272727272727273" x="83.0" y="14.181818181818182" /><rect fill="white" height="0.7272727272727273" width="0.7272727272727273" x="86.63636363636364" y="14.181818181818182" /><rect fill="white" height="0.7272727272727273" width="0.7272727272727273" x="88.0909090909091" y="14.181818181818182" /><rect fill="white" height="0.7272727272727273" width="0.7272727272727273" x="90.27272727272728" y="14.181818181818182" /><rect fill="white" height="0.7272727272727273" width="0.7272727272727273" x="91.72727272727272" y="14.181818181818182" /><rect fill="white" height="0.7272727272727273" width="0.7272727272727273" x="93.18181818181819" y="14.181818181818182" /><rect fill="white" height="0.7272727272727273" width="0.7272727272727273" x="95.36363636363636" y="14.181818181818182" /><rect fill="white" height="0.7272727272727273" width="0.7272727272727273" x="96.0909090909091" y="14.181818181818182" /><rect fill="white" height="0.7272727272727273" width="0.7272727272727273" x="96.81818181818181" y="14.181818181818182" /><rect fill="white" height="0.7272727272727273" width="0.7272727272727273" x="97.54545454545455" y="14.181818181818182" /><rect fill="white" height="0.7272727272727273" width="0.7272727272727273" x="83.0" y="14.90909090909091" /><rect fill="white" height="0.7272727272727273" width="0.7272727272727273" x="87.36363636363636" y="14.90909090909091" /><rect fill="white" height="0.7272727272727273" width="0.7272727272727273" x="88.0909090909091" y="14.90909090909091" /><rect fill="white" height="0.7272727272727273" width="0.7272727272727273" x="89.54545454545455" y="14.90909090909091" /><rect fill="white" height="0.7272727272727273" width="0.7272727272727273" x="91.0" y="14.90909090909091" /><rect fill="white" height="0.7272727272727273" width="0.7272727272727273" x="93.18181818181819" y="14.90909090909091" /><rect fill="white" height="0.7272727272727273" width="0.7272727272727273" x="95.36363636363636" y="14.90909090909091" /><rect fill="white" height="0.7272727272727273" width="0.7272727272727273" x="96.0909090909091" y="14.90909090909091" /><rect fill="white" height="0.7272727272727273" width="0.7272727272727273" x="96.81818181818181" y="14.90909090909091" /><rect fill="white" height="0.7272727272727273" width="0.7272727272727273" x="97.54545454545455" y="14.90909090909091" /><rect fill="white" height="0.7272727272727273" width="0.7272727272727273" x="98.27272727272728" y="14.90909090909091" /><rect fill="white" height="0.7272727272727273" width="0.7272727272727273" x="83.0" y="15.636363636363637" /><rect fill="white" height="0.7272727272727273" width="0.7272727272727273" x="84.45454545454545" y="15.636363636363637" /><rect fill="white" height="0.7272727272727273" width="0.7272727272727273" x="85.9090909090909" y="15.636363636363637" /><rect fill="white" height="0.7272727272727273" width="0.7272727272727273" x="88.0909090909091" y="15.636363636363637" /><rect fill="white" height="0.7272727272727273" width="0.7272727272727273" x="88.81818181818181" y="15.636363636363637" /><rect fill="white" height="0.7272727272727273" width="0.7272727272727273" x="89.54545454545455" y="15.636363636363637" /><rect fill="white" height="0.7272727272727273" width="0.7272727272727273" x="90.27272727272728" y="15.636363636363637" /><rect fill="white" height="0.7272727272727273" width="0.7272727272727273" x="91.0" y="15.636363636363637" /><rect fill="white" height="0.7272727272727273" width="0.7272727272727273" x="91.72727272727272" y="15.636363636363637" /><rect fill="white" height="0.7272727272727273" width="0.7272727272727273" x="92.45454545454545" y="15.636363636363637" /><rect fill="white" height="0.7272727272727273" width="0.7272727272727273" x="93.18181818181819" y="15.636363636363637" /><rect fill="white" height="0.7272727272727273" width="0.7272727272727273" x="94.63636363636364" y="15.636363636363637" /><rect fill="white" height="0.7272727272727273" width="0.7272727272727273" x="96.81818181818181" y="15.636363636363637" /><rect fill="white" height="0.7272727272727273" width="0.7272727272727273" x="83.0" y="16.363636363636363" /><rect fill="white" height="0.7272727272727273" width="0.7272727272727273" x="83.72727272727273" y="16.363636363636363" /><rect fill="white" height="0.7272727272727273" width="0.7272727272727273" x="85.18181818181819" y="16.363636363636363" /><rect fill="white" height="0.7272727272727273" width="0.7272727272727273" x="85.9090909090909" y="16.363636363636363" /><rect fill="white" height="0.7272727272727273" width="0.7272727272727273" x="86.63636363636364" y="16.363636363636363" /><rect fill="white" height="0.7272727272727273" width="0.7272727272727273" x="87.36363636363636" y="16.363636363636363" /><rect fill="white" height="0.7272727272727273" width="0.7272727272727273" x="88.0909090909091" y="16.363636363636363" /><rect fill="white" height="0.7272727272727273" width="0.7272727272727273" x="90.27272727272728" y="16.363636363636363" /><rect fill="white" height="0.7272727272727273" width="0.7272727272727273" x="92.45454545454545" y="16.363636363636363" /><rect fill="white" height="0.7272727272727273" width="0.7272727272727273" x="93.18181818181819" y="16.363636363636363" /><rect fill="white" height="0.7272727272727273" width="0.7272727272727273" x="93.9090909090909" y="16.363636363636363" /><rect fill="white" height="0.7272727272727273" width="0.7272727272727273" x="96.81818181818181" y="16.363636363636363" /><rect fill="white" height="0.7272727272727273" width="0.7272727272727273" x="98.27272727272728" y="16.363636363636363" /><rect fill="white" height="0.7272727272727273" width="0.7272727272727273" x="83.0" y="17.090909090909093" /><rect fill="white" height="0.7272727272727273" width="0.7272727272727273" x="84.45454545454545" y="17.090909090909093" /><rect fill="white" height="0.7272727272727273" width="0.7272727272727273" x="85.18181818181819" y="17.090909090909093" /><rect fill="white" height="0.7272727272727273" width="0.7272727272727273" x="86.63636363636364" y="17.090909090909093" /><rect fill="white" height="0.7272727272727273" width="0.7272727272727273" x="88.0909090909091" y="17.090909090909093" /><rect fill="white" height="0.7272727272727273" width="0.7272727272727273" x="88.81818181818181" y="17.090909090909093" /><rect fill="white" height="0.7272727272727273" width="0.7272727272727273" x="89.54545454545455" y="17.090909090909093" /><rect fill="white" height="0.7272727272727273" width="0.7272727272727273" x="91.0" y="17.090909090909093" /><rect fill="white" height="0.7272727272727273" width="0.7272727272727273" x="91.72727272727272" y="17.090909090909093" /><rect fill="white" height="0.7272727272727273" width="0.7272727272727273" x="96.0909090909091" y="17.090909090909093" /><rect fill="white" height="0.7272727272727273" width="0.7272727272727273" x="96.81818181818181" y="17.090909090909093" /><rect fill="white" height="0.7272727272727273" width="0.7272727272727273" x="83.0" y="17.81818181818182" /><rect fill="white" height="0.7272727272727273" width="0.7272727272727273" x="87.36363636363636" y="17.81818181818182" /><rect fill="white" height="0.7272727272727273" width="0.7272727272727273" x="88.81818181818181" y="17.81818181818182" /><rect fill="white" height="0.7272727272727273" width="0.7272727272727273" x="90.27272727272728" y="17.81818181818182" /><rect fill="white" height="0.7272727272727273" width="0.7272727272727273" x="91.72727272727272" y="17.81818181818182" /><rect fill="white" height="0.7272727272727273" width="0.7272727272727273" x="96.81818181818181" y="17.81818181818182" /><rect fill="white" height="0.7272727272727273" width="0.7272727272727273" x="97.54545454545455" y="17.81818181818182" /><rect fill="white" height="0.7272727272727273" width="0.7272727272727273" x="98.27272727272728" y="17.81818181818182" /><rect fill="white" height="0.7272727272727273" width="0.7272727272727273" x="83.0" y="18.545454545454547" /><rect fill="white" height="0.7272727272727273" width="0.7272727272727273" x="86.63636363636364" y="18.545454545454547" /><rect fill="white" height="0.7272727272727273" width="0.7272727272727273" x="87.36363636363636" y="18.545454545454547" /><rect fill="white" height="0.7272727272727273" width="0.7272727272727273" x="88.0909090909091" y="18.545454545454547" /><rect fill="white" height="0.7272727272727273" width="0.7272727272727273" x="88.81818181818181" y="18.545454545454547" /><rect fill="white" height="0.7272727272727273" width="0.7272727272727273" x="89.54545454545455" y="18.545454545454547" /><rect fill="white" height="0.7272727272727273" width="0.7272727272727273" x="90.27272727272728" y="18.545454545454547" /><rect fill="white" height="0.7272727272727273" width="0.7272727272727273" x="91.72727272727272" y="18.545454545454547" /><rect fill="white" height="0.7272727272727273" width="0.7272727272727273" x="92.45454545454545" y="18.545454545454547" /><rect fill="white" height="0.7272727272727273" width="0.7272727272727273" x="93.18181818181819" y="18.545454545454547" /><rect fill="white" height="0.7272727272727273" width="0.7272727272727273" x="93.9090909090909" y="18.545454545454547" /><rect fill="white" height="0.7272727272727273" width="0.7272727272727273" x="94.63636363636364" y="18.545454545454547" /><rect fill="white" height="0.7272727272727273" width="0.7272727272727273" x="97.54545454545455" y="18.545454545454547" /><rect fill="white" height="0.7272727272727273" width="0.7272727272727273" x="83.0" y="19.272727272727273" /><rect fill="white" height="0.7272727272727273" width="0.7272727272727273" x="83.72727272727273" y="19.272727272727273" /><rect fill="white" height="0.7272727272727273" width="0.7272727272727273" x="84.45454545454545" y="19.272727272727273" /><rect fill="white" height="0.7272727272727273" width="0.7272727272727273" x="85.18181818181819" y="19.272727272727273" /><rect fill="white" height="0.7272727272727273" width="0.7272727272727273" x="85.9090909090909" y="19.272727272727273" /><rect fill="white" height="0.7272727272727273" width="0.7272727272727273" x="86.63636363636364" y="19.272727272727273" /><rect fill="white" height="0.7272727272727273" width="0.7272727272727273" x="87.36363636363636" y="19.272727272727273" /><rect fill="white" height="0.7272727272727273" width="0.7272727272727273" x="88.0909090909091" y="19.272727272727273" /><rect fill="white" height="0.7272727272727273" width="0.7272727272727273" x="88.81818181818181" y="19.272727272727273" /><rect fill="white" height="0.7272727272727273" width="0.7272727272727273" x="89.54545454545455" y="19.272727272727273" /><rect fill="white" height="0.7272727272727273" width="0.7272727272727273" x="90.27272727272728" y="19.272727272727273" /><rect fill="white" height="0.7272727272727273" width="0.7272727272727273" x="91.0" y="19.272727272727273" /><rect fill="white" height="0.7272727272727273" width="0.7272727272727273" x="91.72727272727272" y="19.272727272727273" /><rect fill="white" height="0.7272727272727273" width="0.7272727272727273" x="92.45454545454545" y="19.272727272727273" /><rect fill="white" height="0.7272727272727273" width="0.7272727272727273" x="93.18181818181819" y="19.272727272727273" /><rect fill="white" height="0.7272727272727273" width="0.7272727272727273" x="93.9090909090909" y="19.272727272727273" /><rect fill="white" height="0.7272727272727273" width="0.7272727272727273" x="94.63636363636364" y="19.272727272727273" /><rect fill="white" height="0.7272727272727273" width="0.7272727272727273" x="95.36363636363636" y="19.272727272727273" /><rect fill="white" height="0.7272727272727273" width="0.7272727272727273" x="96.0909090909091" y="19.272727272727273" /><rect fill="white" height="0.7272727272727273" width="0.7272727272727273" x="96.81818181818181" y="19.272727272727273" /><rect fill="white" height="0.7272727272727273" width="0.7272727272727273" x="97.54545454545455" y="19.272727272727273" /><rect fill="white" height="0.7272727272727273" width="0.7272727272727273" x="98.27272727272728" y="19.272727272727273" /><text dominant-baseline="hanging" fill="black" font-family="Arial" font-size="8.466666666666665" font-weight="bold" letter-spacing="0.6" x="4" y="2.8">MFR 9G8G8</text><text dominant-baseline="hanging" fill="black" font-family="Arial" font-size="8.466666666666665" font-weight="bold" letter-spacing="0.6" x="4" y="13.383333333333333">SER 000-104</text><text dominant-baseline="hanging" fill="black" font-family="Arial" font-size="8.466666666666665" font-weight="bold" letter-spacing="0.6" x="4" y="23.96666666666667">PNR AA00063 REV --</text></svg>