<?xml version="1.0" encoding="utf-8" ?>
<svg baseProfile="full" height="29mm" version="1.1" viewBox="0,0,104,29" width="104mm" xmlns="http://www.w3.org/2000/svg" xmlns:ev="http://www.w3.org/2001/xml-events" xmlns:xlink="http://www.w3.org/1999/xlink"><defs /><rect fill="white" height="100%" width="100%" x="0" y="0" /><rect fill="none" height="28.75" rx="2" ry="2" stroke="black" stroke-width="0.25" width="103.75" x="0.125" y="0.125" /><rect fill="black" height="21.0" width="21.0" x="79.5" y="3.5" /><rect fill="white" height="0.7692307692307693" width="0.7692307692307693" x="80.0" y="4.0" /><rect fill="white" height="0.7692307692307693" width="0.7692307692307693" x="81.53846153846153" y="4.0" /><rect fill="white" height="0.7692307692307693" width="0.7692307692307693" x="83.07692307692308" y="4.0" /><rect fill="white" height="0.7692307692307693" width="0.7692307692307693" x="84.61538461538461" y="4.0" /><rect fill="white" height="0.7692307692307693" width="0.7692307692307693" x="86.15384615384616" y="4.0" /><rect fill="white" height="0.7692307692307693" width="0.7692307692307693" x="87.6923076923077" y="4.0" /><rect fill="white" height="0.7692307692307693" width="0.7692307692307693" x="89.23076923076923" y="4.0" /><rect fill="white" height="0.7692307692307693" width="0.7692307692307693" x="90.76923076923077" y="4.0" /><rect fill="white" height="0.7692307692307693" width="0.7692307692307693" x="92.3076923076923" y="4.0" /><rect fill="white" height="0.7692307692307693" width="0.7692307692307693" x="93.84615384615384" y="4.0" /><rect fill="white" height="0.7692307692307693" width="0.7692307692307693" x="95.38461538461539" y="4.0" /><rect fill="white" height="0.7692307692307693" width="0.7692307692307693" x="96.92307692307692" y="4.0" /><rect fill="white" height="0.7692307692307693" width="0.7692307692307693" x="98.46153846153847" y="4.0" /><rect fill="white" height="0.7692307692307693" width="0.7692307692307693" x="80.0" y="4.769230769230769" /><rect fill="white" height="0.7692307692307693" width="0.7692307692307693" x="80.76923076923077" y="4.769230769230769" /><rect fill="white" height="0.7692307692307693" width="0.7692307692307693" x="85.38461538461539" y="4.769230769230769" /><rect fill="white" height="0.7692307692307693" width="0.7692307692307693" x="90.0" y="4.769230769230769" /><rect fill="white" height="0.7692307692307693" width="0.7692307692307693" x="91.53846153846153" y="4.769230769230769" /><rect fill="white" height="0.7692307692307693" width="0.7692307692307693" x="95.38461538461539" y="4.769230769230769" /><rect fill="white" height="0.7692307692307693" width="0.7692307692307693" x="96.15384615384616" y="4.769230769230769" /><rect fill="white" height="0.7692307692307693" width="0.7692307692307693" x="96.92307692307692" y="4.769230769230769" /><rect fill="white" height="0.7692307692307693" width="0.7692307692307693" x="97.6923076923077" y="4.769230769230769" /><rect fill="white" height="0.7692307692307693" width="0.7692307692307693" x="98.46153846153847" y="4.769230769230769" /><rect fill="white" height="0.7692307692307693" width="0.7692307692307693" x="99.23076923076923" y="4.769230769230769" /><rect fill="white" height="0.7692307692307693" width="0.7692307692307693" x="80.0" y="5.538461538461538" /><rect fill="white" height="0.7692307692307693" width="0.7692307692307693" x="80.76923076923077" y="5.538461538461538" /><rect fill="white" height="0.7692307692307693" width="0.7692307692307693" x="83.07692307692308" y="5.538461538461538" /><rect fill="white" height="0.7692307692307693" width="0.7692307692307693" x="83.84615384615384" y="5.538461538461538" /><rect fill="white" height="0.7692307692307693" width="0.7692307692307693" x="84.61538461538461" y="5.538461538461538" /><rect fill="white" height="0.7692307692307693" width="0.7692307692307693" x="86.92307692307692" y="5.538461538461538" /><rect fill="white" height="0.7692307692307693" width="0.7692307692307693" x="92.3076923076923" y="5.538461538461538" /><rect fill="white" height="0.7692307692307693" width="0.7692307692307693" x="93.84615384615384" y="5.538461538461538" /><rect fill="white" height="0.7692307692307693" width="0.7692307692307693" x="96.15384615384616" y="5.538461538461538" /><rect fill="white" height="0.7692307692307693" width="0.7692307692307693" x="96.92307692307692" y="5.538461538461538" /><rect fill="white" height="0.7692307692307693" width="0.7692307692307693" x="97.6923076923077" y="5.538461538461538" /><rect fill="white" height="0.7692307692307693" width="0.7692307692307693" x="80.0" y="6.307692307692308" /><rect fill="white" height="0.7692307692307693" width="0.7692307692307693" x="80.76923076923077" y="6.307692307692308" /><rect fill="white" height="0.7692307692307693" width="0.7692307692307693" x="82.3076923076923" y="6.307692307692308" /><rect fill="white" height="0.7692307692307693" width="0.7692307692307693" x="83.84615384615384" y="6.307692307692308" /><rect fill="white" height="0.7692307692307693" width="0.7692307692307693" x="84.61538461538461" y="6.307692307692308" /><rect fill="white" height="0.7692307692307693" width="0.7692307692307693" x="86.15384615384616" y="6.307692307692308" /><rect fill="white" height="0.7692307692307693" width="0.7692307692307693" x="86.92307692307692" y="6.307692307692308" /><rect fill="white" height="0.7692307692307693" width="0.7692307692307693" x="88.46153846153847" y="6.307692307692308" /><rect fill="white" height="0.7692307692307693" width="0.7692307692307693" x="90.76923076923077" y="6.307692307692308" /><rect fill="white" height="0.7692307692307693" width="0.7692307692307693" x="91.53846153846153" y="6.307692307692308" /><rect fill="white" height="0.7692307692307693" width="0.7692307692307693" x="92.3076923076923" y="6.307692307692308" /><rect fill="white" height="0.7692307692307693" width="0.7692307692307693" x="93.07692307692308" y="6.307692307692308" /><rect fill="white" height="0.7692307692307693" width="0.7692307692307693" x="93.84615384615384" y="6.307692307692308" /><rect fill="white" height="0.7692307692307693" width="0.7692307692307693" x="94.61538461538461" y="6.307692307692308" /><rect fill="white" height="0.7692307692307693" width="0.7692307692307693" x="96.15384615384616" y="6.307692307692308" /><rect fill="white" height="0.7692307692307693" width="0.7692307692307693" x="97.6923076923077" y="6.307692307692308" /><rect fill="white" height="0.7692307692307693" width="0.7692307692307693" x="98.46153846153847" y="6.307692307692308" /><rect fill="white" height="0.7692307692307693" width="0.7692307692307693" x="99.23076923076923" y="6.307692307692308" /><rect fill="white" height="0.7692307692307693" width="0.7692307692307693" x="80.0" y="7.076923076923077" /><rect fill="white" height="0.7692307692307693" width="0.7692307692307693" x="82.3076923076923" y="7.076923076923077" /><rect fill="white" height="0.7692307692307693" width="0.7692307692307693" x="83.07692307692308" y="7.076923076923077" /><rect fill="white" height="0.7692307692307693" width="0.7692307692307693" x="84.61538461538461" y="7.076923076923077" /><rect fill="white" height="0.7692307692307693" width="0.7692307692307693" x="86.15384615384616" y="7.076923076923077" /><rect fill="white" height="0.7692307692307693" width="0.7692307692307693" x="86.92307692307692" y="7.076923076923077" /><rect fill="white" height="0.7692307692307693" width="0.7692307692307693" x="92.3076923076923" y="7.076923076923077" /><rect fill="white" height="0.7692307692307693" width="0.7692307692307693" x="95.38461538461539" y="7.076923076923077" /><rect fill="white" height="0.7692307692307693" width="0.7692307692307693" x="96.15384615384616" y="7.076923076923077" /><rect fill="white" height="0.7692307692307693" width="0.7692307692307693" x="96.92307692307692" y="7.076923076923077" /><rect fill="white" height="0.7692307692307693" width="0.7692307692307693" x="97.6923076923077" y="7.076923076923077" /><rect fill="white" height="0.7692307692307693" width="0.7692307692307693" x="80.0" y="7.846153846153847" /><rect fill="white" height="0.7692307692307693" width="0.7692307692307693" x="83.07692307692308" y="7.846153846153847" /><rect fill="white" height="0.7692307692307693" width="0.7692307692307693" x="84.61538461538461" y="7.846153846153847" /><rect fill="white" height="0.7692307692307693" width="0.7692307692307693" x="87.6923076923077" y="7.846153846153847" /><rect fill="white" height="0.7692307692307693" width="0.7692307692307693" x="93.07692307692308" y="7.846153846153847" /><rect fill="white" height="0.7692307692307693" width="0.7692307692307693" x="93.84615384615384" y="7.846153846153847" /><rect fill="white" height="0.7692307692307693" width="0.7692307692307693" x="96.15384615384616" y="7.846153846153847" /><rect fill="white" height="0.7692307692307693" width="0.7692307692307693" x="97.6923076923077" y="7.846153846153847" /><rect fill="white" height="0.7692307692307693" width="0.7692307692307693" x="98.46153846153847" y="7.846153846153847" /><rect fill="white" height="0.7692307692307693" width="0.7692307692307693" x="99.23076923076923" y="7.846153846153847" /><rect fill="white" height="0.7692307692307693" width="0.7692307692307693" x="80.0" y="8.615384615384617" /><rect fill="white" height="0.7692307692307693" width="0.7692307692307693" x="81.53846153846153" y="8.615384615384617" /><rect fill="white" height="0.7692307692307693" width="0.7692307692307693" x="82.3076923076923" y="8.615384615384617" /><rect fill="white" height="0.7692307692307693" width="0.7692307692307693" x="87.6923076923077" y="8.615384615384617" /><rect fill="white" height="0.7692307692307693" width="0.7692307692307693" x="88.46153846153847" y="8.615384615384617" /><rect fill="white" height="0.7692307692307693" width="0.7692307692307693" x="89.23076923076923" y="8.615384615384617" /><rect fill="white" height="0.7692307692307693" width="0.7692307692307693" x="90.76923076923077" y="8.615384615384617" /><rect fill="white" height="0.7692307692307693" width="0.7692307692307693" x="91.53846153846153" y="8.615384615384617" /><rect fill="white" height="0.7692307692307693" width="0.7692307692307693" x="95.38461538461539" y="8.615384615384617" /><rect fill="white" height="0.7692307692307693" width="0.7692307692307693" x="80.0" y="9.384615384615385" /><rect fill="white" height="0.7692307692307693" width="0.7692307692307693" x="81.53846153846153" y="9.384615384615385" /><rect fill="white" height="0.7692307692307693" width="0.7692307692307693" x="82.3076923076923" y="9.384615384615385" /><rect fill="white" height="0.7692307692307693" width="0.7692307692307693" x="83.07692307692308" y="9.384615384615385" /><rect fill="white" height="0.7692307692307693" width="0.7692307692307693" x="83.84615384615384" y="9.384615384615385" /><rect fill="white" height="0.7692307692307693" width="0.7692307692307693" x="84.61538461538461" y="9.384615384615385" /><rect fill="white" height="0.7692307692307693" width="0.7692307692307693" x="85.38461538461539" y="9.384615384615385" /><rect fill="white" height="0.7692307692307693" width="0.7692307692307693" x="86.15384615384616" y="9.384615384615385" /><rect fill="white" height="0.7692307692307693" width="0.7692307692307693" x="86.92307692307692" y="9.384615384615385" /><rect fill="white" height="0.7692307692307693" width="0.7692307692307693" x="87.6923076923077" y="9.384615384615385" /><rect fill="white" height="0.7692307692307693" width="0.7692307692307693" x="91.53846153846153" y="9.384615384615385" /><rect fill="white" height="0.7692307692307693" width="0.7692307692307693" x="92.3076923076923" y="9.384615384615385" /><rect fill="white" height="0.7692307692307693" width="0.7692307692307693" x="93.84615384615384" y="9.384615384615385" /><rect fill="white" height="0.7692307692307693" width="0.7692307692307693" x="95.38461538461539" y="9.384615384615385" /><rect fill="white" height="0.7692307692307693" width="0.7692307692307693" x="97.6923076923077" y="9.384615384615385" /><rect fill="white" height="0.7692307692307693" width="0.7692307692307693" x="98.46153846153847" y="9.384615384615385" /><rect fill="white" height="0.7692307692307693" width="0.7692307692307693" x="99.23076923076923" y="9.384615384615385" /><rect fill="white" height="0.7692307692307693" width="0.7692307692307693" x="80.0" y="10.153846153846153" /><rect fill="white" height="0.7692307692307693" width="0.7692307692307693" x="81.53846153846153" y="10.153846153846153" /><rect fill="white" height="0.7692307692307693" width="0.7692307692307693" x="85.38461538461539" y="10.153846153846153" /><rect fill="white" height="0.7692307692307693" width="0.7692307692307693" x="86.15384615384616" y="10.153846153846153" /><rect fill="white" height="0.7692307692307693" width="0.7692307692307693" x="86.92307692307692" y="10.153846153846153" /><rect fill="white" height="0.7692307692307693" width="0.7692307692307693" x="87.6923076923077" y="10.153846153846153" /><rect fill="white" height="0.7692307692307693" width="0.7692307692307693" x="88.46153846153847" y="10.153846153846153" /><rect fill="white" height="0.7692307692307693" width="0.7692307692307693" x="92.3076923076923" y="10.153846153846153" /><rect fill="white" height="0.7692307692307693" width="0.7692307692307693" x="93.07692307692308" y="10.153846153846153" /><rect fill="white" height="0.7692307692307693" width="0.7692307692307693" x="95.38461538461539" y="10.153846153846153" /><rect fill="white" height="0.7692307692307693" width="0.7692307692307693" x="96.92307692307692" y="10.153846153846153" /><rect fill="white" height="0.7692307692307693" width="0.7692307692307693" x="98.46153846153847" y="10.153846153846153" /><rect fill="white" height="0.7692307692307693" width="0.7692307692307693" x="80.0" y="10.923076923076923" /><rect fill="white" height="0.7692307692307693" width="0.7692307692307693" x="80.76923076923077" y="10.923076923076923" /><rect fill="white" height="0.7692307692307693" width="0.7692307692307693" x="81.53846153846153" y="10.923076923076923" /><rect fill="white" height="0.7692307692307693" width="0.7692307692307693" x="83.07692307692308" y="10.923076923076923" /><rect fill="white" height="0.7692307692307693" width="0.7692307692307693" x="85.38461538461539" y="10.923076923076923" /><rect fill="white" height="0.7692307692307693" width="0.7692307692307693" x="87.6923076923077" y="10.923076923076923" /><rect fill="white" height="0.7692307692307693" width="0.7692307692307693" x="88.46153846153847" y="10.923076923076923" /><rect fill="white" height="0.7692307692307693" width="0.7692307692307693" x="90.0" y="10.923076923076923" /><rect fill="white" height="0.7692307692307693" width="0.7692307692307693" x="90.76923076923077" y="10.923076923076923" /><rect fill="white" height="0.7692307692307693" width="0.7692307692307693" x="92.3076923076923" y="10.923076923076923" /><rect fill="white" height="0.7692307692307693" width="0.7692307692307693" x="93.07692307692308" y="10.923076923076923" /><rect fill="white" height="0.7692307692307693" width="0.7692307692307693" x="94.61538461538461" y="10.923076923076923" /><rect fill="white" height="0.7692307692307693" width="0.7692307692307693" x="95.38461538461539" y="10.923076923076923" /><rect fill="white" height="0.7692307692307693" width="0.7692307692307693" x="96.92307692307692" y="10.923076923076923" /><rect fill="white" height="0.7692307692307693" width="0.7692307692307693" x="97.6923076923077" y="10.923076923076923" /><rect fill="white" height="0.7692307692307693" width="0.7692307692307693" x="99.23076923076923" y="10.923076923076923" /><rect fill="white" height="0.7692307692307693" width="0.7692307692307693" x="80.0" y="11.692307692307693" /><rect fill="white" height="0.7692307692307693" width="0.7692307692307693" x="81.53846153846153" y="11.692307692307693" /><rect fill="white" height="0.7692307692307693" width="0.7692307692307693" x="83.84615384615384" y="11.692307692307693" /><rect fill="white" height="0.7692307692307693" width="0.7692307692307693" x="85.38461538461539" y="11.692307692307693" /><rect fill="white" height="0.7692307692307693" width="0.7692307692307693" x="87.6923076923077" y="11.692307692307693" /><rect fill="white" height="0.7692307692307693" width="0.7692307692307693" x="88.46153846153847" y="11.692307692307693" /><rect fill="white" height="0.7692307692307693" width="0.7692307692307693" x="89.23076923076923" y="11.692307692307693" /><rect fill="white" height="0.7692307692307693" width="0.7692307692307693" x="90.76923076923077" y="11.692307692307693" /><rect fill="white" height="0.7692307692307693" width="0.7692307692307693" x="91.53846153846153" y="11.692307692307693" /><rect fill="white" height="0.7692307692307693" width="0.7692307692307693" x="93.84615384615384" y="11.692307692307693" /><rect fill="white" height="0.7692307692307693" width="0.7692307692307693" x="95.38461538461539" y="11.692307692307693" /><rect fill="white" height="0.7692307692307693" width="0.7692307692307693" x="96.15384615384616" y="11.692307692307693" /><rect fill="white" height="0.7692307692307693" width="0.7692307692307693" x="97.6923076923077" y="11.692307692307693" /><rect fill="white" height="0.7692307692307693" width="0.7692307692307693" x="98.46153846153847" y="11.692307692307693" /><rect fill="white" height="0.7692307692307693" width="0.7692307692307693" x="80.0" y="12.461538461538462" /><rect fill="white" height="0.7692307692307693" width="0.7692307692307693" x="81.53846153846153" y="12.461538461538462" /><rect fill="white" height="0.7692307692307693" width="0.7692307692307693" x="82.3076923076923" y="12.461538461538462" /><rect fill="white" height="0.7692307692307693" width="0.7692307692307693" x="83.84615384615384" y="12.461538461538462" /><rect fill="white" height="0.7692307692307693" width="0.7692307692307693" x="86.15384615384616" y="12.461538461538462" /><rect fill="white" height="0.7692307692307693" width="0.7692307692307693" x="91.53846153846153" y="12.461538461538462" /><rect fill="white" height="0.7692307692307693" width="0.7692307692307693" x="94.61538461538461" y="12.461538461538462" /><rect fill="white" height="0.7692307692307693" width="0.7692307692307693" x="96.15384615384616" y="12.461538461538462" /><rect fill="white" height="0.7692307692307693" width="0.7692307692307693" x="99.23076923076923" y="12.461538461538462" /><rect fill="white" height="0.7692307692307693" width="0.7692307692307693" x="80.0" y="13.230769230769232" /><rect fill="white" height="0.7692307692307693" width="0.7692307692307693" x="82.3076923076923" y="13.230769230769232" /><rect fill="white" height="0.7692307692307693" width="0.7692307692307693" x="84.61538461538461" y="13.230769230769232" /><rect fill="white" height="0.7692307692307693" width="0.7692307692307693" x="90.76923076923077" y="13.230769230769232" /><rect fill="white" height="0.7692307692307693" width="0.7692307692307693" x="91.53846153846153" y="13.230769230769232" /><rect fill="white" height="0.7692307692307693" width="0.7692307692307693" x="92.3076923076923" y="13.230769230769232" /><rect fill="white" height="0.7692307692307693" width="0.7692307692307693" x="93.07692307692308" y="13.230769230769232" /><rect fill="white" height="0.7692307692307693" width="0.7692307692307693" x="93.84615384615384" y="13.230769230769232" /><rect fill="white" height="0.7692307692307693" width="0.7692307692307693" x="94.61538461538461" y="13.230769230769232" /><rect fill="white" height="0.7692307692307693" width="0.7692307692307693" x="95.38461538461539" y="13.230769230769232" /><rect fill="white" height="0.7692307692307693" width="0.7692307692307693" x="96.15384615384616" y="13.230769230769232" /><rect fill="white" height="0.7692307692307693" width="0.7692307692307693" x="98.46153846153847" y="13.230769230769232" /><rect fill="white" height="0.7692307692307693" width="0.7692307692307693" x="80.0" y="14.0" /><rect fill="white" height="0.7692307692307693" width="0.7692307692307693" x="80.76923076923077" y="14.0" /><rect fill="white" height="0.7692307692307693" width="0.7692307692307693" x="81.53846153846153" y="14.0" /><rect fill="white" height="0.7692307692307693" width="0.7692307692307693" x="82.3076923076923" y="14.0" /><rect fill="white" height="0.7692307692307693" width="0.7692307692307693" x="83.84615384615384" y="14.0" /><rect fill="white" height="0.7692307692307693" width="0.7692307692307693" x="84.61538461538461" y="14.0" /><rect fill="white" height="0.7692307692307693" width="0.7692307692307693" x="85.38461538461539" y="14.0" /><rect fill="white" height="0.7692307692307693" width="0.7692307692307693" x="86.15384615384616" y="14.0" /><rect fill="white" height="0.7692307692307693" width="0.7692307692307693" x="86.92307692307692" y="14.0" /><rect fill="white" height="0.7692307692307693" width="0.7692307692307693" x="88.46153846153847" y="14.0" /><rect fill="white" height="0.7692307692307693" width="0.7692307692307693" x="90.0" y="14.0" /><rect fill="white" height="0.7692307692307693" width="0.7692307692307693" x="91.53846153846153" y="14.0" /><rect fill="white" height="0.7692307692307693" width="0.7692307692307693" x="93.84615384615384" y="14.0" /><rect fill="white" height="0.7692307692307693" width="0.7692307692307693" x="94.61538461538461" y="14.0" /><rect fill="white" height="0.7692307692307693" width="0.7692307692307693" x="95.38461538461539" y="14.0" /><rect fill="white" height="0.7692307692307693" width="0.7692307692307693" x="96.15384615384616" y="14.0" /><rect fill="white" height="0.7692307692307693" width="0.7692307692307693" x="96.92307692307692" y="14.0" /><rect fill="white" height="0.7692307692307693" width="0.7692307692307693" x="97.6923076923077" y="14.0" /><rect fill="white" height="0.7692307692307693" width="0.7692307692307693" x="98.46153846153847" y="14.0" /><rect fill="white" height="0.7692307692307693" width="0.7692307692307693" x="99.23076923076923" y="14.0" /><rect fill="white" height="0.7692307692307693" width="0.7692307692307693" x="80.0" y="14.76923076923077" /><rect fill="white" height="0.7692307692307693" width="0.7692307692307693" x="81.53846153846153" y="14.76923076923077" /><rect fill="white" height="0.7692307692307693" width="0.7692307692307693" x="83.07692307692308" y="14.76923076923077" /><rect fill="white" height="0.7692307692307693" width="0.7692307692307693" x="86.15384615384616" y="14.76923076923077" /><rect fill="white" height="0.7692307692307693" width="0.7692307692307693" x="89.23076923076923" y="14.76923076923077" /><rect fill="white" height="0.7692307692307693" width="0.7692307692307693" x="90.0" y="14.76923076923077" /><rect fill="white" height="0.7692307692307693" width="0.7692307692307693" x="93.07692307692308" y="14.76923076923077" /><rect fill="white" height="0.7692307692307693" width="0.7692307692307693" x="94.61538461538461" y="14.76923076923077" /><rect fill="white" height="0.7692307692307693" width="0.7692307692307693" x="95.38461538461539" y="14.76923076923077" /><rect fill="white" height="0.7692307692307693" width="0.7692307692307693" x="96.15384615384616" y="14.76923076923077" /><rect fill="white" height="0.7692307692307693" width="0.7692307692307693" x="97.6923076923077" y="14.76923076923077" /><rect fill="white" height="0.7692307692307693" width="0.7692307692307693" x="80.0" y="15.538461538461538" /><rect fill="white" height="0.7692307692307693" width="0.7692307692307693" x="80.76923076923077" y="15.538461538461538" /><rect fill="white" height="0.7692307692307693" width="0.7692307692307693" x="81.53846153846153" y="15.538461538461538" /><rect fill="white" height="0.7692307692307693" width="0.7692307692307693" x="83.07692307692308" y="15.538461538461538" /><rect fill="white" height="0.7692307692307693" width="0.7692307692307693" x="84.61538461538461" y="15.538461538461538" /><rect fill="white" height="0.7692307692307693" width="0.7692307692307693" x="86.15384615384616" y="15.538461538461538" /><rect fill="white" height="0.7692307692307693" width="0.7692307692307693" x="90.76923076923077" y="15.538461538461538" /><rect fill="white" height="0.7692307692307693" width="0.7692307692307693" x="91.53846153846153" y="15.538461538461538" /><rect fill="white" height="0.7692307692307693" width="0.7692307692307693" x="93.07692307692308" y="15.538461538461538" /><rect fill="white" height="0.7692307692307693" width="0.7692307692307693" x="93.84615384615384" y="15.538461538461538" /><rect fill="white" height="0.7692307692307693" width="0.7692307692307693" x="94.61538461538461" y="15.538461538461538" /><rect fill="white" height="0.7692307692307693" width="0.7692307692307693" x="95.38461538461539" y="15.538461538461538" /><rect fill="white" height="0.7692307692307693" width="0.7692307692307693" x="99.23076923076923" y="15.538461538461538" /><rect fill="white" height="0.7692307692307693" width="0.7692307692307693" x="80.0" y="16.307692307692307" /><rect fill="white" height="0.7692307692307693" width="0.7692307692307693" x="80.76923076923077" y="16.307692307692307" /><rect fill="white" height="0.7692307692307693" width="0.7692307692307693" x="81.53846153846153" y="16.307692307692307" /><rect fill="white" height="0.7692307692307693" width="0.7692307692307693" x="82.3076923076923" y="16.307692307692307" /><rect fill="white" height="0.7692307692307693" width="0.7692307692307693" x="86.15384615384616" y="16.307692307692307" /><rect fill="white" height="0.7692307692307693" width="0.7692307692307693" x="86.92307692307692" y="16.307692307692307" /><rect fill="white" height="0.7692307692307693" width="0.7692307692307693" x="87.6923076923077" y="16.307692307692307" /><rect fill="white" height="0.7692307692307693" width="0.7692307692307693" x="88.46153846153847" y="16.307692307692307" /><rect fill="white" height="0.7692307692307693" width="0.7692307692307693" x="89.23076923076923" y="16.307692307692307" /><rect fill="white" height="0.7692307692307693" width="0.7692307692307693" x="90.0" y="16.307692307692307" /><rect fill="white" height="0.7692307692307693" width="0.7692307692307693" x="90.76923076923077" y="16.307692307692307" /><rect fill="white" height="0.7692307692307693" width="0.7692307692307693" x="92.3076923076923" y="16.307692307692307" /><rect fill="white" height="0.7692307692307693" width="0.7692307692307693" x="93.84615384615384" y="16.307692307692307" /><rect fill="white" height="0.7692307692307693" width="0.7692307692307693" x="94.61538461538461" y="16.307692307692307" /><rect fill="white" height="0.7692307692307693" width="0.7692307692307693" x="98.46153846153847" y="16.307692307692307" /><rect fill="white" height="0.7692307692307693" width="0.7692307692307693" x="80.0" y="17.07692307692308" /><rect fill="white" height="0.7692307692307693" width="0.7692307692307693" x="82.3076923076923" y="17.07692307692308" /><rect fill="white" height="0.7692307692307693" width="0.7692307692307693" x="84.61538461538461" y="17.07692307692308" /><rect fill="white" height="0.7692307692307693" width="0.7692307692307693" x="85.38461538461539" y="17.07692307692308" /><rect fill="white" height="0.7692307692307693" width="0.7692307692307693" x="86.15384615384616" y="17.07692307692308" /><rect fill="white" height="0.7692307692307693" width="0.7692307692307693" x="86.92307692307692" y="17.07692307692308" /><rect fill="white" height="0.7692307692307693" width="0.7692307692307693" x="88.46153846153847" y="17.07692307692308" /><rect fill="white" height="0.7692307692307693" width="0.7692307692307693" x="89.23076923076923" y="17.07692307692308" /><rect fill="white" height="0.7692307692307693" width="0.7692307692307693" x="93.07692307692308" y="17.07692307692308" /><rect fill="white" height="0.7692307692307693" width="0.7692307692307693" x="94.61538461538461" y="17.07692307692308" /><rect fill="white" height="0.7692307692307693" width="0.7692307692307693" x="97.6923076923077" y="17.07692307692308" /><rect fill="white" height="0.7692307692307693" width="0.7692307692307693" x="99.23076923076923" y="17.07692307692308" /><rect fill="white" height="0.7692307692307693" width="0.7692307692307693" x="80.0" y="17.846153846153847" /><rect fill="white" height="0.7692307692307693" width="0.7692307692307693" x="81.53846153846153" y="17.846153846153847" /><rect fill="white" height="0.7692307692307693" width="0.7692307692307693" x="83.07692307692308" y="17.846153846153847" /><rect fill="white" height="0.7692307692307693" width="0.7692307692307693" x="83.84615384615384" y="17.846153846153847" /><rect fill="white" height="0.7692307692307693" width="0.7692307692307693" x="84.61538461538461" y="17.846153846153847" /><rect fill="white" height="0.7692307692307693" width="0.7692307692307693" x="85.38461538461539" y="17.846153846153847" /><rect fill="white" height="0.7692307692307693" width="0.7692307692307693" x="88.46153846153847" y="17.846153846153847" /><rect fill="white" height="0.7692307692307693" width="0.7692307692307693" x="89.23076923076923" y="17.846153846153847" /><rect fill="white" height="0.7692307692307693" width="0.7692307692307693" x="93.07692307692308" y="17.846153846153847" /><rect fill="white" height="0.7692307692307693" width="0.7692307692307693" x="94.61538461538461" y="17.846153846153847" /><rect fill="white" height="0.7692307692307693" width="0.7692307692307693" x="95.38461538461539" y="17.846153846153847" /><rect fill="white" height="0.7692307692307693" width="0.7692307692307693" x="96.15384615384616" y="17.846153846153847" /><rect fill="white" height="0.7692307692307693" width="0.7692307692307693" x="96.92307692307692" y="17.846153846153847" /><rect fill="white" height="0.7692307692307693" width="0.7692307692307693" x="80.0" y="18.615384615384617" /><rect fill="white" height="0.7692307692307693" width="0.7692307692307693" x="80.76923076923077" y="18.615384615384617" /><rect fill="white" height="0.7692307692307693" width="0.7692307692307693" x="81.53846153846153" y="18.615384615384617" /><rect fill="white" height="0.7692307692307693" width="0.7692307692307693" x="82.3076923076923" y="18.615384615384617" /><rect fill="white" height="0.7692307692307693" width="0.7692307692307693" x="83.84615384615384" y="18.615384615384617" /><rect fill="white" height="0.7692307692307693" width="0.7692307692307693" x="85.38461538461539" y="18.615384615384617" /><rect fill="white" height="0.7692307692307693" width="0.7692307692307693" x="90.0" y="18.615384615384617" /><rect fill="white" height="0.7692307692307693" width="0.7692307692307693" x="90.76923076923077" y="18.615384615384617" /><rect fill="white" height="0.7692307692307693" width="0.7692307692307693" x="92.3076923076923" y="18.615384615384617" /><rect fill="white" height="0.7692307692307693" width="0.7692307692307693" x="95.38461538461539" y="18.615384615384617" /><rect fill="white" height="0.7692307692307693" width="0.7692307692307693" x="96.92307692307692" y="18.615384615384617" /><rect fill="white" height="0.7692307692307693" width="0.7692307692307693" x="97.6923076923077" y="18.615384615384617" /><rect fill="white" height="0.7692307692307693" width="0.7692307692307693" x="98.46153846153847" y="18.615384615384617" /><rect fill="white" height="0.7692307692307693" width="0.7692307692307693" x="99.23076923076923" y="18.615384615384617" /><rect fill="white" height="0.7692307692307693" width="0.7692307692307693" x="80.0" y="19.384615384615387" /><rect fill="white" height="0.7692307692307693" width="0.7692307692307693" x="80.76923076923077" y="19.384615384615387" /><rect fill="white" height="0.7692307692307693" width="0.7692307692307693" x="82.3076923076923" y="19.384615384615387" /><rect fill="white" height="0.7692307692307693" width="0.7692307692307693" x="83.07692307692308" y="19.384615384615387" /><rect fill="white" height="0.7692307692307693" width="0.7692307692307693" x="85.38461538461539" y="19.384615384615387" /><rect fill="white" height="0.7692307692307693" width="0.7692307692307693" x="87.6923076923077" y="19.384615384615387" /><rect fill="white" height="0.7692307692307693" width="0.7692307692307693" x="88.46153846153847" y="19.384615384615387" /><rect fill="white" height="0.7692307692307693" width="0.7692307692307693" x="90.0" y="19.384615384615387" /><rect fill="white" height="0.7692307692307693" width="0.7692307692307693" x="90.76923076923077" y="19.384615384615387" /><rect fill="white" height="0.7692307692307693" width="0.7692307692307693" x="91.53846153846153" y="19.384615384615387" /><rect fill="white" height="0.7692307692307693" width="0.7692307692307693" x="92.3076923076923" y="19.384615384615387" /><rect fill="white" height="0.7692307692307693" width="0.7692307692307693" x="93.07692307692308" y="19.384615384615387" /><rect fill="white" height="0.7692307692307693" width="0.7692307692307693" x="95.38461538461539" y="19.384615384615387" /><rect fill="white" height="0.7692307692307693" width="0.7692307692307693" x="96.92307692307692" y="19.384615384615387" /><rect fill="white" height="0.7692307692307693" width="0.7692307692307693" x="97.6923076923077" y="19.384615384615387" /><rect fill="white" height="0.7692307692307693" width="0.7692307692307693" x="80.0" y="20.153846153846153" /><rect fill="white" height="0.7692307692307693" width="0.7692307692307693" x="81.53846153846153" y="20.153846153846153" /><rect fill="white" height="0.7692307692307693" width="0.7692307692307693" x="83.07692307692308" y="20.153846153846153" /><rect fill="white" height="0.7692307692307693" width="0.7692307692307693" x="84.61538461538461" y="20.153846153846153" /><rect fill="white" height="0.7692307692307693" width="0.7692307692307693" x="85.38461538461539" y="20.153846153846153" /><rect fill="white" height="0.7692307692307693" width="0.7692307692307693" x="86.92307692307692" y="20.153846153846153" /><rect fill="white" height="0.7692307692307693" width="0.7692307692307693" x="87.6923076923077" y="20.153846153846153" /><rect fill="white" height="0.7692307692307693" width="0.7692307692307693" x="88.46153846153847" y="20.153846153846153" /><rect fill="white" height="0.7692307692307693" width="0.7692307692307693" x="89.23076923076923" y="20.153846153846153" /><rect fill="white" height="0.7692307692307693" width="0.7692307692307693" x="91.53846153846153" y="20.153846153846153" /><rect fill="white" height="0.7692307692307693" width="0.7692307692307693" x="92.3076923076923" y="20.153846153846153" /><rect fill="white" height="0.7692307692307693" width="0.7692307692307693" x="93.07692307692308" y="20.153846153846153" /><rect fill="white" height="0.7692307692307693" width="0.7692307692307693" x="93.84615384615384" y="20.153846153846153" /><rect fill="white" height="0.7692307692307693" width="0.7692307692307693" x="94.61538461538461" y="20.153846153846153" /><rect fill="white" height="0.7692307692307693" width="0.7692307692307693" x="96.15384615384616" y="20.153846153846153" /><rect fill="white" height="0.7692307692307693" width="0.7692307692307693" x="96.92307692307692" y="20.153846153846153" /><rect fill="white" height="0.7692307692307693" width="0.7692307692307693" x="97.6923076923077" y="20.153846153846153" /><rect fill="white" height="0.7692307692307693" width="0.7692307692307693" x="98.46153846153847" y="20.153846153846153" /><rect fill="white" height="0.7692307692307693" width="0.7692307692307693" x="99.23076923076923" y="20.153846153846153" /><rect fill="white" height="0.7692307692307693" width="0.7692307692307693" x="80.0" y="20.923076923076923" /><rect fill="white" height="0.7692307692307693" width="0.7692307692307693" x="80.76923076923077" y="20.923076923076923" /><rect fill="white" height="0.7692307692307693" width="0.7692307692307693" x="82.3076923076923" y="20.923076923076923" /><rect fill="white" height="0.7692307692307693" width="0.7692307692307693" x="83.07692307692308" y="20.923076923076923" /><rect fill="white" height="0.7692307692307693" width="0.7692307692307693" x="83.84615384615384" y="20.923076923076923" /><rect fill="white" height="0.7692307692307693" width="0.7692307692307693" x="84.61538461538461" y="20.923076923076923" /><rect fill="white" height="0.7692307692307693" width="0.7692307692307693" x="85.38461538461539" y="20.923076923076923" /><rect fill="white" height="0.7692307692307693" width="0.7692307692307693" x="86.15384615384616" y="20.923076923076923" /><rect fill="white" height="0.7692307692307693" width="0.7692307692307693" x="87.6923076923077" y="20.923076923076923" /><rect fill="white" height="0.7692307692307693" width="0.7692307692307693" x="89.23076923076923" y="20.923076923076923" /><rect fill="white" height="0.7692307692307693" width="0.7692307692307693" x="90.0" y="20.923076923076923" /><rect fill="white" height="0.7692307692307693" width="0.7692307692307693" x="91.53846153846153" y="20.923076923076923" /><rect fill="white" height="0.7692307692307693" width="0.7692307692307693" x="92.3076923076923" y="20.923076923076923" /><rect fill="white" height="0.7692307692307693" width="0.7692307692307693" x="93.84615384615384" y="20.923076923076923" /><rect fill="white" height="0.7692307692307693" width="0.7692307692307693" x="95.38461538461539" y="20.923076923076923" /><rect fill="white" height="0.7692307692307693" width="0.7692307692307693" x="97.6923076923077" y="20.923076923076923" /><rect fill="white" height="0.7692307692307693" width="0.7692307692307693" x="80.0" y="21.692307692307693" /><rect fill="white" height="0.7692307692307693" width="0.7692307692307693" x="80.76923076923077" y="21.692307692307693" /><rect fill="white" height="0.7692307692307693" width="0.7692307692307693" x="81.53846153846153" y="21.692307692307693" /><rect fill="white" height="0.7692307692307693" width="0.7692307692307693" x="82.3076923076923" y="21.692307692307693" /><rect fill="white" height="0.7692307692307693" width="0.7692307692307693" x="83.84615384615384" y="21.692307692307693" /><rect fill="white" height="0.7692307692307693" width="0.7692307692307693" x="85.38461538461539" y="21.692307692307693" /><rect fill="white" height="0.7692307692307693" width="0.7692307692307693" x="86.15384615384616" y="21.692307692307693" /><rect fill="white" height="0.7692307692307693" width="0.7692307692307693" x="86.92307692307692" y="21.692307692307693" /><rect fill="white" height="0.7692307692307693" width="0.7692307692307693" x="90.0" y="21.692307692307693" /><rect fill="white" height="0.7692307692307693" width="0.7692307692307693" x="93.07692307692308" y="21.692307692307693" /><rect fill="white" height="0.7692307692307693" width="0.7692307692307693" x="94.61538461538461" y="21.692307692307693" /><rect fill="white" height="0.7692307692307693" width="0.7692307692307693" x="96.92307692307692" y="21.692307692307693" /><rect fill="white" height="0.7692307692307693" width="0.7692307692307693" x="97.6923076923077" y="21.692307692307693" /><rect fill="white" height="0.7692307692307693" width="0.7692307692307693" x="98.46153846153847" y="21.692307692307693" /><rect fill="white" height="0.7692307692307693" width="0.7692307692307693" x="99.23076923076923" y="21.692307692307693" /><rect fill="white" height="0.7692307692307693" width="0.7692307692307693" x="80.0" y="22.461538461538463" /><rect fill="white" height="0.7692307692307693" width="0.7692307692307693" x="80.76923076923077" y="22.461538461538463" /><rect fill="white" height="0.7692307692307693" width="0.7692307692307693" x="81.53846153846153" y="22.461538461538463" /><rect fill="white" height="0.7692307692307693" width="0.7692307692307693" x="83.07692307692308" y="22.461538461538463" /><rect fill="white" height="0.7692307692307693" width="0.7692307692307693" x="83.84615384615384" y="22.461538461538463" /><rect fill="white" height="0.7692307692307693" width="0.7692307692307693" x="89.23076923076923" y="22.461538461538463" /><rect fill="white" height="0.7692307692307693" width="0.7692307692307693" x="90.0" y="22.461538461538463" /><rect fill="white" height="0.7692307692307693" width="0.7692307692307693" x="90.76923076923077" y="22.461538461538463" /><rect fill="white" height="0.7692307692307693" width="0.7692307692307693" x="91.53846153846153" y="22.461538461538463" /><rect fill="white" height="0.7692307692307693" width="0.7692307692307693" x="94.61538461538461" y="22.461538461538463" /><rect fill="white" height="0.7692307692307693" width="0.7692307692307693" x="96.15384615384616" y="22.461538461538463" /><rect fill="white" height="0.7692307692307693" width="0.7692307692307693" x="96.92307692307692" y="22.461538461538463" /><rect fill="white" height="0.7692307692307693" width="0.7692307692307693" x="97.6923076923077" y="22.461538461538463" /><rect fill="white" height="0.7692307692307693" width="0.7692307692307693" x="80.0" y="23.230769230769234" /><rect fill="white" height="0.7692307692307693" width="0.7692307692307693" x="80.76923076923077" y="23.230769230769234" /><rect fill="white" height="0.7692307692307693" width="0.7692307692307693" x="81.53846153846153" y="23.230769230769234" /><rect fill="white" height="0.7692307692307693" width="0.7692307692307693" x="82.3076923076923" y="23.230769230769234" /><rect fill="white" height="0.7692307692307693" width="0.7692307692307693" x="83.07692307692308" y="23.230769230769234" /><rect fill="white" height="0.7692307692307693" width="0.7692307692307693" x="83.84615384615384" y="23.230769230769234" /><rect fill="white" height="0.7692307692307693" width="0.7692307692307693" x="84.61538461538461" y="23.230769230769234" /><rect fill="white" height="0.7692307692307693" width="0.7692307692307693" x="85.38461538461539" y="23.230769230769234" /><rect fill="white" height="0.7692307692307693" width="0.7692307692307693" x="86.15384615384616" y="23.230769230769234" /><rect fill="white" height="0.7692307692307693" width="0.7692307692307693" x="86.92307692307692" y="23.230769230769234" /><rect fill="white" height="0.7692307692307693" width="0.7692307692307693" x="87.6923076923077" y="23.230769230769234" /><rect fill="white" height="0.7692307692307693" width="0.7692307692307693" x="88.46153846153847" y="23.230769230769234" /><rect fill="white" height="0.7692307692307693" width="0.7692307692307693" x="89.23076923076923" y="23.230769230769234" /><rect fill="white" height="0.7692307692307693" width="0.7692307692307693" x="90.0" y="23.230769230769234" /><rect fill="white" height="0.7692307692307693" width="0.7692307692307693" x="90.76923076923077" y="23.230769230769234" /><rect fill="white" height="0.7692307692307693" width="0.7692307692307693" x="91.53846153846153" y="23.230769230769234" /><rect fill="white" height="0.7692307692307693" width="0.7692307692307693" x="92.3076923076923" y="23.230769230769234" /><rect fill="white" height="0.7692307692307693" width="0.7692307692307693" x="93.07692307692308" y="23.230769230769234" /><rect fill="white" height="0.7692307692307693" width="0.7692307692307693" x="93.84615384615384" y="23.230769230769234" /><rect fill="white" height="0.7692307692307693" width="0.7692307692307693" x="94.61538461538461" y="23.230769230769234" /><rect fill="white" height="0.7692307692307693" width="0.7692307692307693" x="95.38461538461539" y="23.230769230769234" /><rect fill="white" height="0.7692307692307693" width="0.7692307692307693" x="96.15384615384616" y="23.230769230769234" /><rect fill="white" height="0.7692307692307693" width="0.7692307692307693" x="96.92307692307692" y="23.230769230769234" /><rect fill="white" height="0.7692307692307693" width="0.7692307692307693" x="97.6923076923077" y="23.230769230769234" /><rect fill="white" height="0.7692307692307693" width="0.7692307692307693" x="98.46153846153847" y="23.230769230769234" /><rect fill="white" height="0.7692307692307693" width="0.7692307692307693" x="99.23076923076923" y="23.230769230769234" /><text dominant-baseline="hanging" fill="black" font-family="Arial" font-size="5.644444444444444" font-weight="bold" letter-spacing="0.2" x="4.0" y="3.0">MFR 9G8G8</text><text dominant-baseline="hanging" fill="black" font-family="Arial" font-size="5.644444444444444" font-weight="bold" letter-spacing="0.2" x="4.0" y="11.466666666666665">SER AA00014-26159-109</text><text dominant-baseline="hanging" fill="black" font-family="Arial" font-size="5.644444444444444" font-weight="bold" letter-spacing="0.2" x="4.0" y="19.93333333333333">PNR AA00014 REV --</text></svg>