<?xml version="1.0" encoding="utf-8" ?>
<svg baseProfile="full" height="17mm" version="1.1" viewBox="0,0,75,17" width="75mm" xmlns="http://www.w3.org/2000/svg" xmlns:ev="http://www.w3.org/2001/xml-events" xmlns:xlink="http://www.w3.org/1999/xlink"><defs /><rect fill="white" height="100%" width="100%" x="0" y="0" /><rect fill="none" height="16.75" rx="2" ry="2" stroke="black" stroke-width="0.25" width="74.75" x="0.125" y="0.125" /><rect fill="black" height="14.0" width="14.0" x="59.5" y="1.5" /><rect fill="white" height="0.5416666666666666" width="0.5416666666666666" x="60.0" y="2.0" /><rect fill="white" height="0.5416666666666666" width="0.5416666666666666" x="61.083333333333336" y="2.0" /><rect fill="white" height="0.5416666666666666" width="0.5416666666666666" x="62.166666666666664" y="2.0" /><rect fill="white" height="0.5416666666666666" width="0.5416666666666666" x="63.25" y="2.0" /><rect fill="white" height="0.5416666666666666" width="0.5416666666666666" x="64.33333333333333" y="2.0" /><rect fill="white" height="0.5416666666666666" width="0.5416666666666666" x="65.41666666666667" y="2.0" /><rect fill="white" height="0.5416666666666666" width="0.5416666666666666" x="66.5" y="2.0" /><rect fill="white" height="0.5416666666666666" width="0.5416666666666666" x="67.58333333333333" y="2.0" /><rect fill="white" height="0.5416666666666666" width="0.5416666666666666" x="68.66666666666667" y="2.0" /><rect fill="white" height="0.5416666666666666" width="0.5416666666666666" x="69.75" y="2.0" /><rect fill="white" height="0.5416666666666666" width="0.5416666666666666" x="70.83333333333333" y="2.0" /><rect fill="white" height="0.5416666666666666" width="0.5416666666666666" x="71.91666666666667" y="2.0" /><rect fill="white" height="0.5416666666666666" width="0.5416666666666666" x="60.0" y="2.5416666666666665" /><rect fill="white" height="0.5416666666666666" width="0.5416666666666666" x="60.541666666666664" y="2.5416666666666665" /><rect fill="white" height="0.5416666666666666" width="0.5416666666666666" x="63.791666666666664" y="2.5416666666666665" /><rect fill="white" height="0.5416666666666666" width="0.5416666666666666" x="67.04166666666667" y="2.5416666666666665" /><rect fill="white" height="0.5416666666666666" width="0.5416666666666666" x="68.125" y="2.5416666666666665" /><rect fill="white" height="0.5416666666666666" width="0.5416666666666666" x="69.20833333333333" y="2.5416666666666665" /><rect fill="white" height="0.5416666666666666" width="0.5416666666666666" x="69.75" y="2.5416666666666665" /><rect fill="white" height="0.5416666666666666" width="0.5416666666666666" x="70.29166666666667" y="2.5416666666666665" /><rect fill="white" height="0.5416666666666666" width="0.5416666666666666" x="71.375" y="2.5416666666666665" /><rect fill="white" height="0.5416666666666666" width="0.5416666666666666" x="72.45833333333333" y="2.5416666666666665" /><rect fill="white" height="0.5416666666666666" width="0.5416666666666666" x="60.0" y="3.083333333333333" /><rect fill="white" height="0.5416666666666666" width="0.5416666666666666" x="60.541666666666664" y="3.083333333333333" /><rect fill="white" height="0.5416666666666666" width="0.5416666666666666" x="62.166666666666664" y="3.083333333333333" /><rect fill="white" height="0.5416666666666666" width="0.5416666666666666" x="62.708333333333336" y="3.083333333333333" /><rect fill="white" height="0.5416666666666666" width="0.5416666666666666" x="63.25" y="3.083333333333333" /><rect fill="white" height="0.5416666666666666" width="0.5416666666666666" x="64.875" y="3.083333333333333" /><rect fill="white" height="0.5416666666666666" width="0.5416666666666666" x="67.58333333333333" y="3.083333333333333" /><rect fill="white" height="0.5416666666666666" width="0.5416666666666666" x="68.125" y="3.083333333333333" /><rect fill="white" height="0.5416666666666666" width="0.5416666666666666" x="70.83333333333333" y="3.083333333333333" /><rect fill="white" height="0.5416666666666666" width="0.5416666666666666" x="60.0" y="3.625" /><rect fill="white" height="0.5416666666666666" width="0.5416666666666666" x="60.541666666666664" y="3.625" /><rect fill="white" height="0.5416666666666666" width="0.5416666666666666" x="61.625" y="3.625" /><rect fill="white" height="0.5416666666666666" width="0.5416666666666666" x="62.708333333333336" y="3.625" /><rect fill="white" height="0.5416666666666666" width="0.5416666666666666" x="63.25" y="3.625" /><rect fill="white" height="0.5416666666666666" width="0.5416666666666666" x="64.33333333333333" y="3.625" /><rect fill="white" height="0.5416666666666666" width="0.5416666666666666" x="64.875" y="3.625" /><rect fill="white" height="0.5416666666666666" width="0.5416666666666666" x="65.95833333333333" y="3.625" /><rect fill="white" height="0.5416666666666666" width="0.5416666666666666" x="67.58333333333333" y="3.625" /><rect fill="white" height="0.5416666666666666" width="0.5416666666666666" x="68.66666666666667" y="3.625" /><rect fill="white" height="0.5416666666666666" width="0.5416666666666666" x="69.20833333333333" y="3.625" /><rect fill="white" height="0.5416666666666666" width="0.5416666666666666" x="70.83333333333333" y="3.625" /><rect fill="white" height="0.5416666666666666" width="0.5416666666666666" x="71.375" y="3.625" /><rect fill="white" height="0.5416666666666666" width="0.5416666666666666" x="72.45833333333333" y="3.625" /><rect fill="white" height="0.5416666666666666" width="0.5416666666666666" x="60.0" y="4.166666666666666" /><rect fill="white" height="0.5416666666666666" width="0.5416666666666666" x="61.625" y="4.166666666666666" /><rect fill="white" height="0.5416666666666666" width="0.5416666666666666" x="62.166666666666664" y="4.166666666666666" /><rect fill="white" height="0.5416666666666666" width="0.5416666666666666" x="63.25" y="4.166666666666666" /><rect fill="white" height="0.5416666666666666" width="0.5416666666666666" x="64.33333333333333" y="4.166666666666666" /><rect fill="white" height="0.5416666666666666" width="0.5416666666666666" x="64.875" y="4.166666666666666" /><rect fill="white" height="0.5416666666666666" width="0.5416666666666666" x="69.20833333333333" y="4.166666666666666" /><rect fill="white" height="0.5416666666666666" width="0.5416666666666666" x="69.75" y="4.166666666666666" /><rect fill="white" height="0.5416666666666666" width="0.5416666666666666" x="70.29166666666667" y="4.166666666666666" /><rect fill="white" height="0.5416666666666666" width="0.5416666666666666" x="70.83333333333333" y="4.166666666666666" /><rect fill="white" height="0.5416666666666666" width="0.5416666666666666" x="60.0" y="4.708333333333333" /><rect fill="white" height="0.5416666666666666" width="0.5416666666666666" x="62.166666666666664" y="4.708333333333333" /><rect fill="white" height="0.5416666666666666" width="0.5416666666666666" x="63.25" y="4.708333333333333" /><rect fill="white" height="0.5416666666666666" width="0.5416666666666666" x="65.41666666666667" y="4.708333333333333" /><rect fill="white" height="0.5416666666666666" width="0.5416666666666666" x="68.125" y="4.708333333333333" /><rect fill="white" height="0.5416666666666666" width="0.5416666666666666" x="69.75" y="4.708333333333333" /><rect fill="white" height="0.5416666666666666" width="0.5416666666666666" x="70.29166666666667" y="4.708333333333333" /><rect fill="white" height="0.5416666666666666" width="0.5416666666666666" x="70.83333333333333" y="4.708333333333333" /><rect fill="white" height="0.5416666666666666" width="0.5416666666666666" x="71.375" y="4.708333333333333" /><rect fill="white" height="0.5416666666666666" width="0.5416666666666666" x="71.91666666666667" y="4.708333333333333" /><rect fill="white" height="0.5416666666666666" width="0.5416666666666666" x="72.45833333333333" y="4.708333333333333" /><rect fill="white" height="0.5416666666666666" width="0.5416666666666666" x="60.0" y="5.25" /><rect fill="white" height="0.5416666666666666" width="0.5416666666666666" x="61.083333333333336" y="5.25" /><rect fill="white" height="0.5416666666666666" width="0.5416666666666666" x="61.625" y="5.25" /><rect fill="white" height="0.5416666666666666" width="0.5416666666666666" x="65.41666666666667" y="5.25" /><rect fill="white" height="0.5416666666666666" width="0.5416666666666666" x="65.95833333333333" y="5.25" /><rect fill="white" height="0.5416666666666666" width="0.5416666666666666" x="66.5" y="5.25" /><rect fill="white" height="0.5416666666666666" width="0.5416666666666666" x="67.04166666666667" y="5.25" /><rect fill="white" height="0.5416666666666666" width="0.5416666666666666" x="68.66666666666667" y="5.25" /><rect fill="white" height="0.5416666666666666" width="0.5416666666666666" x="69.75" y="5.25" /><rect fill="white" height="0.5416666666666666" width="0.5416666666666666" x="70.29166666666667" y="5.25" /><rect fill="white" height="0.5416666666666666" width="0.5416666666666666" x="71.375" y="5.25" /><rect fill="white" height="0.5416666666666666" width="0.5416666666666666" x="60.0" y="5.791666666666666" /><rect fill="white" height="0.5416666666666666" width="0.5416666666666666" x="61.083333333333336" y="5.791666666666666" /><rect fill="white" height="0.5416666666666666" width="0.5416666666666666" x="61.625" y="5.791666666666666" /><rect fill="white" height="0.5416666666666666" width="0.5416666666666666" x="62.166666666666664" y="5.791666666666666" /><rect fill="white" height="0.5416666666666666" width="0.5416666666666666" x="62.708333333333336" y="5.791666666666666" /><rect fill="white" height="0.5416666666666666" width="0.5416666666666666" x="63.25" y="5.791666666666666" /><rect fill="white" height="0.5416666666666666" width="0.5416666666666666" x="63.791666666666664" y="5.791666666666666" /><rect fill="white" height="0.5416666666666666" width="0.5416666666666666" x="64.33333333333333" y="5.791666666666666" /><rect fill="white" height="0.5416666666666666" width="0.5416666666666666" x="64.875" y="5.791666666666666" /><rect fill="white" height="0.5416666666666666" width="0.5416666666666666" x="65.41666666666667" y="5.791666666666666" /><rect fill="white" height="0.5416666666666666" width="0.5416666666666666" x="65.95833333333333" y="5.791666666666666" /><rect fill="white" height="0.5416666666666666" width="0.5416666666666666" x="68.125" y="5.791666666666666" /><rect fill="white" height="0.5416666666666666" width="0.5416666666666666" x="70.29166666666667" y="5.791666666666666" /><rect fill="white" height="0.5416666666666666" width="0.5416666666666666" x="71.375" y="5.791666666666666" /><rect fill="white" height="0.5416666666666666" width="0.5416666666666666" x="71.91666666666667" y="5.791666666666666" /><rect fill="white" height="0.5416666666666666" width="0.5416666666666666" x="72.45833333333333" y="5.791666666666666" /><rect fill="white" height="0.5416666666666666" width="0.5416666666666666" x="60.0" y="6.333333333333333" /><rect fill="white" height="0.5416666666666666" width="0.5416666666666666" x="61.083333333333336" y="6.333333333333333" /><rect fill="white" height="0.5416666666666666" width="0.5416666666666666" x="63.791666666666664" y="6.333333333333333" /><rect fill="white" height="0.5416666666666666" width="0.5416666666666666" x="64.33333333333333" y="6.333333333333333" /><rect fill="white" height="0.5416666666666666" width="0.5416666666666666" x="64.875" y="6.333333333333333" /><rect fill="white" height="0.5416666666666666" width="0.5416666666666666" x="65.41666666666667" y="6.333333333333333" /><rect fill="white" height="0.5416666666666666" width="0.5416666666666666" x="65.95833333333333" y="6.333333333333333" /><rect fill="white" height="0.5416666666666666" width="0.5416666666666666" x="67.58333333333333" y="6.333333333333333" /><rect fill="white" height="0.5416666666666666" width="0.5416666666666666" x="69.75" y="6.333333333333333" /><rect fill="white" height="0.5416666666666666" width="0.5416666666666666" x="70.83333333333333" y="6.333333333333333" /><rect fill="white" height="0.5416666666666666" width="0.5416666666666666" x="60.0" y="6.875" /><rect fill="white" height="0.5416666666666666" width="0.5416666666666666" x="60.541666666666664" y="6.875" /><rect fill="white" height="0.5416666666666666" width="0.5416666666666666" x="61.083333333333336" y="6.875" /><rect fill="white" height="0.5416666666666666" width="0.5416666666666666" x="62.166666666666664" y="6.875" /><rect fill="white" height="0.5416666666666666" width="0.5416666666666666" x="63.791666666666664" y="6.875" /><rect fill="white" height="0.5416666666666666" width="0.5416666666666666" x="65.95833333333333" y="6.875" /><rect fill="white" height="0.5416666666666666" width="0.5416666666666666" x="67.04166666666667" y="6.875" /><rect fill="white" height="0.5416666666666666" width="0.5416666666666666" x="67.58333333333333" y="6.875" /><rect fill="white" height="0.5416666666666666" width="0.5416666666666666" x="68.125" y="6.875" /><rect fill="white" height="0.5416666666666666" width="0.5416666666666666" x="69.75" y="6.875" /><rect fill="white" height="0.5416666666666666" width="0.5416666666666666" x="70.83333333333333" y="6.875" /><rect fill="white" height="0.5416666666666666" width="0.5416666666666666" x="71.91666666666667" y="6.875" /><rect fill="white" height="0.5416666666666666" width="0.5416666666666666" x="72.45833333333333" y="6.875" /><rect fill="white" height="0.5416666666666666" width="0.5416666666666666" x="60.0" y="7.416666666666666" /><rect fill="white" height="0.5416666666666666" width="0.5416666666666666" x="61.083333333333336" y="7.416666666666666" /><rect fill="white" height="0.5416666666666666" width="0.5416666666666666" x="63.791666666666664" y="7.416666666666666" /><rect fill="white" height="0.5416666666666666" width="0.5416666666666666" x="65.41666666666667" y="7.416666666666666" /><rect fill="white" height="0.5416666666666666" width="0.5416666666666666" x="65.95833333333333" y="7.416666666666666" /><rect fill="white" height="0.5416666666666666" width="0.5416666666666666" x="67.58333333333333" y="7.416666666666666" /><rect fill="white" height="0.5416666666666666" width="0.5416666666666666" x="68.66666666666667" y="7.416666666666666" /><rect fill="white" height="0.5416666666666666" width="0.5416666666666666" x="69.20833333333333" y="7.416666666666666" /><rect fill="white" height="0.5416666666666666" width="0.5416666666666666" x="69.75" y="7.416666666666666" /><rect fill="white" height="0.5416666666666666" width="0.5416666666666666" x="70.83333333333333" y="7.416666666666666" /><rect fill="white" height="0.5416666666666666" width="0.5416666666666666" x="71.91666666666667" y="7.416666666666666" /><rect fill="white" height="0.5416666666666666" width="0.5416666666666666" x="60.0" y="7.958333333333333" /><rect fill="white" height="0.5416666666666666" width="0.5416666666666666" x="61.083333333333336" y="7.958333333333333" /><rect fill="white" height="0.5416666666666666" width="0.5416666666666666" x="61.625" y="7.958333333333333" /><rect fill="white" height="0.5416666666666666" width="0.5416666666666666" x="62.166666666666664" y="7.958333333333333" /><rect fill="white" height="0.5416666666666666" width="0.5416666666666666" x="62.708333333333336" y="7.958333333333333" /><rect fill="white" height="0.5416666666666666" width="0.5416666666666666" x="63.25" y="7.958333333333333" /><rect fill="white" height="0.5416666666666666" width="0.5416666666666666" x="63.791666666666664" y="7.958333333333333" /><rect fill="white" height="0.5416666666666666" width="0.5416666666666666" x="64.33333333333333" y="7.958333333333333" /><rect fill="white" height="0.5416666666666666" width="0.5416666666666666" x="65.95833333333333" y="7.958333333333333" /><rect fill="white" height="0.5416666666666666" width="0.5416666666666666" x="66.5" y="7.958333333333333" /><rect fill="white" height="0.5416666666666666" width="0.5416666666666666" x="67.04166666666667" y="7.958333333333333" /><rect fill="white" height="0.5416666666666666" width="0.5416666666666666" x="67.58333333333333" y="7.958333333333333" /><rect fill="white" height="0.5416666666666666" width="0.5416666666666666" x="68.125" y="7.958333333333333" /><rect fill="white" height="0.5416666666666666" width="0.5416666666666666" x="68.66666666666667" y="7.958333333333333" /><rect fill="white" height="0.5416666666666666" width="0.5416666666666666" x="69.75" y="7.958333333333333" /><rect fill="white" height="0.5416666666666666" width="0.5416666666666666" x="70.29166666666667" y="7.958333333333333" /><rect fill="white" height="0.5416666666666666" width="0.5416666666666666" x="70.83333333333333" y="7.958333333333333" /><rect fill="white" height="0.5416666666666666" width="0.5416666666666666" x="71.91666666666667" y="7.958333333333333" /><rect fill="white" height="0.5416666666666666" width="0.5416666666666666" x="72.45833333333333" y="7.958333333333333" /><rect fill="white" height="0.5416666666666666" width="0.5416666666666666" x="60.0" y="8.5" /><rect fill="white" height="0.5416666666666666" width="0.5416666666666666" x="61.083333333333336" y="8.5" /><rect fill="white" height="0.5416666666666666" width="0.5416666666666666" x="62.166666666666664" y="8.5" /><rect fill="white" height="0.5416666666666666" width="0.5416666666666666" x="62.708333333333336" y="8.5" /><rect fill="white" height="0.5416666666666666" width="0.5416666666666666" x="63.791666666666664" y="8.5" /><rect fill="white" height="0.5416666666666666" width="0.5416666666666666" x="64.33333333333333" y="8.5" /><rect fill="white" height="0.5416666666666666" width="0.5416666666666666" x="64.875" y="8.5" /><rect fill="white" height="0.5416666666666666" width="0.5416666666666666" x="65.41666666666667" y="8.5" /><rect fill="white" height="0.5416666666666666" width="0.5416666666666666" x="66.5" y="8.5" /><rect fill="white" height="0.5416666666666666" width="0.5416666666666666" x="67.58333333333333" y="8.5" /><rect fill="white" height="0.5416666666666666" width="0.5416666666666666" x="68.125" y="8.5" /><rect fill="white" height="0.5416666666666666" width="0.5416666666666666" x="70.29166666666667" y="8.5" /><rect fill="white" height="0.5416666666666666" width="0.5416666666666666" x="70.83333333333333" y="8.5" /><rect fill="white" height="0.5416666666666666" width="0.5416666666666666" x="60.0" y="9.041666666666666" /><rect fill="white" height="0.5416666666666666" width="0.5416666666666666" x="60.541666666666664" y="9.041666666666666" /><rect fill="white" height="0.5416666666666666" width="0.5416666666666666" x="61.083333333333336" y="9.041666666666666" /><rect fill="white" height="0.5416666666666666" width="0.5416666666666666" x="61.625" y="9.041666666666666" /><rect fill="white" height="0.5416666666666666" width="0.5416666666666666" x="63.791666666666664" y="9.041666666666666" /><rect fill="white" height="0.5416666666666666" width="0.5416666666666666" x="64.33333333333333" y="9.041666666666666" /><rect fill="white" height="0.5416666666666666" width="0.5416666666666666" x="64.875" y="9.041666666666666" /><rect fill="white" height="0.5416666666666666" width="0.5416666666666666" x="65.41666666666667" y="9.041666666666666" /><rect fill="white" height="0.5416666666666666" width="0.5416666666666666" x="67.58333333333333" y="9.041666666666666" /><rect fill="white" height="0.5416666666666666" width="0.5416666666666666" x="68.125" y="9.041666666666666" /><rect fill="white" height="0.5416666666666666" width="0.5416666666666666" x="68.66666666666667" y="9.041666666666666" /><rect fill="white" height="0.5416666666666666" width="0.5416666666666666" x="70.29166666666667" y="9.041666666666666" /><rect fill="white" height="0.5416666666666666" width="0.5416666666666666" x="70.83333333333333" y="9.041666666666666" /><rect fill="white" height="0.5416666666666666" width="0.5416666666666666" x="72.45833333333333" y="9.041666666666666" /><rect fill="white" height="0.5416666666666666" width="0.5416666666666666" x="60.0" y="9.583333333333332" /><rect fill="white" height="0.5416666666666666" width="0.5416666666666666" x="61.083333333333336" y="9.583333333333332" /><rect fill="white" height="0.5416666666666666" width="0.5416666666666666" x="62.166666666666664" y="9.583333333333332" /><rect fill="white" height="0.5416666666666666" width="0.5416666666666666" x="63.25" y="9.583333333333332" /><rect fill="white" height="0.5416666666666666" width="0.5416666666666666" x="64.875" y="9.583333333333332" /><rect fill="white" height="0.5416666666666666" width="0.5416666666666666" x="65.95833333333333" y="9.583333333333332" /><rect fill="white" height="0.5416666666666666" width="0.5416666666666666" x="67.04166666666667" y="9.583333333333332" /><rect fill="white" height="0.5416666666666666" width="0.5416666666666666" x="67.58333333333333" y="9.583333333333332" /><rect fill="white" height="0.5416666666666666" width="0.5416666666666666" x="68.125" y="9.583333333333332" /><rect fill="white" height="0.5416666666666666" width="0.5416666666666666" x="68.66666666666667" y="9.583333333333332" /><rect fill="white" height="0.5416666666666666" width="0.5416666666666666" x="69.20833333333333" y="9.583333333333332" /><rect fill="white" height="0.5416666666666666" width="0.5416666666666666" x="69.75" y="9.583333333333332" /><rect fill="white" height="0.5416666666666666" width="0.5416666666666666" x="70.83333333333333" y="9.583333333333332" /><rect fill="white" height="0.5416666666666666" width="0.5416666666666666" x="71.91666666666667" y="9.583333333333332" /><rect fill="white" height="0.5416666666666666" width="0.5416666666666666" x="60.0" y="10.125" /><rect fill="white" height="0.5416666666666666" width="0.5416666666666666" x="60.541666666666664" y="10.125" /><rect fill="white" height="0.5416666666666666" width="0.5416666666666666" x="61.083333333333336" y="10.125" /><rect fill="white" height="0.5416666666666666" width="0.5416666666666666" x="61.625" y="10.125" /><rect fill="white" height="0.5416666666666666" width="0.5416666666666666" x="62.708333333333336" y="10.125" /><rect fill="white" height="0.5416666666666666" width="0.5416666666666666" x="64.875" y="10.125" /><rect fill="white" height="0.5416666666666666" width="0.5416666666666666" x="65.41666666666667" y="10.125" /><rect fill="white" height="0.5416666666666666" width="0.5416666666666666" x="65.95833333333333" y="10.125" /><rect fill="white" height="0.5416666666666666" width="0.5416666666666666" x="67.04166666666667" y="10.125" /><rect fill="white" height="0.5416666666666666" width="0.5416666666666666" x="69.20833333333333" y="10.125" /><rect fill="white" height="0.5416666666666666" width="0.5416666666666666" x="69.75" y="10.125" /><rect fill="white" height="0.5416666666666666" width="0.5416666666666666" x="70.29166666666667" y="10.125" /><rect fill="white" height="0.5416666666666666" width="0.5416666666666666" x="71.375" y="10.125" /><rect fill="white" height="0.5416666666666666" width="0.5416666666666666" x="71.91666666666667" y="10.125" /><rect fill="white" height="0.5416666666666666" width="0.5416666666666666" x="72.45833333333333" y="10.125" /><rect fill="white" height="0.5416666666666666" width="0.5416666666666666" x="60.0" y="10.666666666666666" /><rect fill="white" height="0.5416666666666666" width="0.5416666666666666" x="61.083333333333336" y="10.666666666666666" /><rect fill="white" height="0.5416666666666666" width="0.5416666666666666" x="62.166666666666664" y="10.666666666666666" /><rect fill="white" height="0.5416666666666666" width="0.5416666666666666" x="62.708333333333336" y="10.666666666666666" /><rect fill="white" height="0.5416666666666666" width="0.5416666666666666" x="63.791666666666664" y="10.666666666666666" /><rect fill="white" height="0.5416666666666666" width="0.5416666666666666" x="65.41666666666667" y="10.666666666666666" /><rect fill="white" height="0.5416666666666666" width="0.5416666666666666" x="67.04166666666667" y="10.666666666666666" /><rect fill="white" height="0.5416666666666666" width="0.5416666666666666" x="67.58333333333333" y="10.666666666666666" /><rect fill="white" height="0.5416666666666666" width="0.5416666666666666" x="68.125" y="10.666666666666666" /><rect fill="white" height="0.5416666666666666" width="0.5416666666666666" x="69.20833333333333" y="10.666666666666666" /><rect fill="white" height="0.5416666666666666" width="0.5416666666666666" x="69.75" y="10.666666666666666" /><rect fill="white" height="0.5416666666666666" width="0.5416666666666666" x="70.29166666666667" y="10.666666666666666" /><rect fill="white" height="0.5416666666666666" width="0.5416666666666666" x="70.83333333333333" y="10.666666666666666" /><rect fill="white" height="0.5416666666666666" width="0.5416666666666666" x="71.375" y="10.666666666666666" /><rect fill="white" height="0.5416666666666666" width="0.5416666666666666" x="60.0" y="11.208333333333332" /><rect fill="white" height="0.5416666666666666" width="0.5416666666666666" x="60.541666666666664" y="11.208333333333332" /><rect fill="white" height="0.5416666666666666" width="0.5416666666666666" x="64.33333333333333" y="11.208333333333332" /><rect fill="white" height="0.5416666666666666" width="0.5416666666666666" x="64.875" y="11.208333333333332" /><rect fill="white" height="0.5416666666666666" width="0.5416666666666666" x="65.41666666666667" y="11.208333333333332" /><rect fill="white" height="0.5416666666666666" width="0.5416666666666666" x="65.95833333333333" y="11.208333333333332" /><rect fill="white" height="0.5416666666666666" width="0.5416666666666666" x="66.5" y="11.208333333333332" /><rect fill="white" height="0.5416666666666666" width="0.5416666666666666" x="67.04166666666667" y="11.208333333333332" /><rect fill="white" height="0.5416666666666666" width="0.5416666666666666" x="67.58333333333333" y="11.208333333333332" /><rect fill="white" height="0.5416666666666666" width="0.5416666666666666" x="68.66666666666667" y="11.208333333333332" /><rect fill="white" height="0.5416666666666666" width="0.5416666666666666" x="69.20833333333333" y="11.208333333333332" /><rect fill="white" height="0.5416666666666666" width="0.5416666666666666" x="69.75" y="11.208333333333332" /><rect fill="white" height="0.5416666666666666" width="0.5416666666666666" x="72.45833333333333" y="11.208333333333332" /><rect fill="white" height="0.5416666666666666" width="0.5416666666666666" x="60.0" y="11.75" /><rect fill="white" height="0.5416666666666666" width="0.5416666666666666" x="60.541666666666664" y="11.75" /><rect fill="white" height="0.5416666666666666" width="0.5416666666666666" x="61.083333333333336" y="11.75" /><rect fill="white" height="0.5416666666666666" width="0.5416666666666666" x="61.625" y="11.75" /><rect fill="white" height="0.5416666666666666" width="0.5416666666666666" x="62.166666666666664" y="11.75" /><rect fill="white" height="0.5416666666666666" width="0.5416666666666666" x="64.33333333333333" y="11.75" /><rect fill="white" height="0.5416666666666666" width="0.5416666666666666" x="65.41666666666667" y="11.75" /><rect fill="white" height="0.5416666666666666" width="0.5416666666666666" x="65.95833333333333" y="11.75" /><rect fill="white" height="0.5416666666666666" width="0.5416666666666666" x="66.5" y="11.75" /><rect fill="white" height="0.5416666666666666" width="0.5416666666666666" x="67.58333333333333" y="11.75" /><rect fill="white" height="0.5416666666666666" width="0.5416666666666666" x="69.75" y="11.75" /><rect fill="white" height="0.5416666666666666" width="0.5416666666666666" x="70.29166666666667" y="11.75" /><rect fill="white" height="0.5416666666666666" width="0.5416666666666666" x="70.83333333333333" y="11.75" /><rect fill="white" height="0.5416666666666666" width="0.5416666666666666" x="60.0" y="12.291666666666666" /><rect fill="white" height="0.5416666666666666" width="0.5416666666666666" x="61.625" y="12.291666666666666" /><rect fill="white" height="0.5416666666666666" width="0.5416666666666666" x="62.708333333333336" y="12.291666666666666" /><rect fill="white" height="0.5416666666666666" width="0.5416666666666666" x="63.791666666666664" y="12.291666666666666" /><rect fill="white" height="0.5416666666666666" width="0.5416666666666666" x="65.95833333333333" y="12.291666666666666" /><rect fill="white" height="0.5416666666666666" width="0.5416666666666666" x="66.5" y="12.291666666666666" /><rect fill="white" height="0.5416666666666666" width="0.5416666666666666" x="67.04166666666667" y="12.291666666666666" /><rect fill="white" height="0.5416666666666666" width="0.5416666666666666" x="67.58333333333333" y="12.291666666666666" /><rect fill="white" height="0.5416666666666666" width="0.5416666666666666" x="68.125" y="12.291666666666666" /><rect fill="white" height="0.5416666666666666" width="0.5416666666666666" x="68.66666666666667" y="12.291666666666666" /><rect fill="white" height="0.5416666666666666" width="0.5416666666666666" x="70.29166666666667" y="12.291666666666666" /><rect fill="white" height="0.5416666666666666" width="0.5416666666666666" x="70.83333333333333" y="12.291666666666666" /><rect fill="white" height="0.5416666666666666" width="0.5416666666666666" x="71.91666666666667" y="12.291666666666666" /><rect fill="white" height="0.5416666666666666" width="0.5416666666666666" x="72.45833333333333" y="12.291666666666666" /><rect fill="white" height="0.5416666666666666" width="0.5416666666666666" x="60.0" y="12.833333333333332" /><rect fill="white" height="0.5416666666666666" width="0.5416666666666666" x="60.541666666666664" y="12.833333333333332" /><rect fill="white" height="0.5416666666666666" width="0.5416666666666666" x="61.625" y="12.833333333333332" /><rect fill="white" height="0.5416666666666666" width="0.5416666666666666" x="62.166666666666664" y="12.833333333333332" /><rect fill="white" height="0.5416666666666666" width="0.5416666666666666" x="62.708333333333336" y="12.833333333333332" /><rect fill="white" height="0.5416666666666666" width="0.5416666666666666" x="63.791666666666664" y="12.833333333333332" /><rect fill="white" height="0.5416666666666666" width="0.5416666666666666" x="64.33333333333333" y="12.833333333333332" /><rect fill="white" height="0.5416666666666666" width="0.5416666666666666" x="64.875" y="12.833333333333332" /><rect fill="white" height="0.5416666666666666" width="0.5416666666666666" x="65.41666666666667" y="12.833333333333332" /><rect fill="white" height="0.5416666666666666" width="0.5416666666666666" x="65.95833333333333" y="12.833333333333332" /><rect fill="white" height="0.5416666666666666" width="0.5416666666666666" x="67.04166666666667" y="12.833333333333332" /><rect fill="white" height="0.5416666666666666" width="0.5416666666666666" x="68.125" y="12.833333333333332" /><rect fill="white" height="0.5416666666666666" width="0.5416666666666666" x="69.20833333333333" y="12.833333333333332" /><rect fill="white" height="0.5416666666666666" width="0.5416666666666666" x="71.375" y="12.833333333333332" /><rect fill="white" height="0.5416666666666666" width="0.5416666666666666" x="60.0" y="13.375" /><rect fill="white" height="0.5416666666666666" width="0.5416666666666666" x="60.541666666666664" y="13.375" /><rect fill="white" height="0.5416666666666666" width="0.5416666666666666" x="61.083333333333336" y="13.375" /><rect fill="white" height="0.5416666666666666" width="0.5416666666666666" x="61.625" y="13.375" /><rect fill="white" height="0.5416666666666666" width="0.5416666666666666" x="62.708333333333336" y="13.375" /><rect fill="white" height="0.5416666666666666" width="0.5416666666666666" x="65.41666666666667" y="13.375" /><rect fill="white" height="0.5416666666666666" width="0.5416666666666666" x="66.5" y="13.375" /><rect fill="white" height="0.5416666666666666" width="0.5416666666666666" x="68.66666666666667" y="13.375" /><rect fill="white" height="0.5416666666666666" width="0.5416666666666666" x="69.20833333333333" y="13.375" /><rect fill="white" height="0.5416666666666666" width="0.5416666666666666" x="70.83333333333333" y="13.375" /><rect fill="white" height="0.5416666666666666" width="0.5416666666666666" x="71.375" y="13.375" /><rect fill="white" height="0.5416666666666666" width="0.5416666666666666" x="72.45833333333333" y="13.375" /><rect fill="white" height="0.5416666666666666" width="0.5416666666666666" x="60.0" y="13.916666666666666" /><rect fill="white" height="0.5416666666666666" width="0.5416666666666666" x="60.541666666666664" y="13.916666666666666" /><rect fill="white" height="0.5416666666666666" width="0.5416666666666666" x="61.083333333333336" y="13.916666666666666" /><rect fill="white" height="0.5416666666666666" width="0.5416666666666666" x="62.166666666666664" y="13.916666666666666" /><rect fill="white" height="0.5416666666666666" width="0.5416666666666666" x="63.25" y="13.916666666666666" /><rect fill="white" height="0.5416666666666666" width="0.5416666666666666" x="63.791666666666664" y="13.916666666666666" /><rect fill="white" height="0.5416666666666666" width="0.5416666666666666" x="65.41666666666667" y="13.916666666666666" /><rect fill="white" height="0.5416666666666666" width="0.5416666666666666" x="67.58333333333333" y="13.916666666666666" /><rect fill="white" height="0.5416666666666666" width="0.5416666666666666" x="68.125" y="13.916666666666666" /><rect fill="white" height="0.5416666666666666" width="0.5416666666666666" x="68.66666666666667" y="13.916666666666666" /><rect fill="white" height="0.5416666666666666" width="0.5416666666666666" x="69.20833333333333" y="13.916666666666666" /><rect fill="white" height="0.5416666666666666" width="0.5416666666666666" x="69.75" y="13.916666666666666" /><rect fill="white" height="0.5416666666666666" width="0.5416666666666666" x="70.29166666666667" y="13.916666666666666" /><rect fill="white" height="0.5416666666666666" width="0.5416666666666666" x="70.83333333333333" y="13.916666666666666" /><rect fill="white" height="0.5416666666666666" width="0.5416666666666666" x="71.91666666666667" y="13.916666666666666" /><rect fill="white" height="0.5416666666666666" width="0.5416666666666666" x="60.0" y="14.458333333333332" /><rect fill="white" height="0.5416666666666666" width="0.5416666666666666" x="60.541666666666664" y="14.458333333333332" /><rect fill="white" height="0.5416666666666666" width="0.5416666666666666" x="61.083333333333336" y="14.458333333333332" /><rect fill="white" height="0.5416666666666666" width="0.5416666666666666" x="61.625" y="14.458333333333332" /><rect fill="white" height="0.5416666666666666" width="0.5416666666666666" x="62.166666666666664" y="14.458333333333332" /><rect fill="white" height="0.5416666666666666" width="0.5416666666666666" x="62.708333333333336" y="14.458333333333332" /><rect fill="white" height="0.5416666666666666" width="0.5416666666666666" x="63.25" y="14.458333333333332" /><rect fill="white" height="0.5416666666666666" width="0.5416666666666666" x="63.791666666666664" y="14.458333333333332" /><rect fill="white" height="0.5416666666666666" width="0.5416666666666666" x="64.33333333333333" y="14.458333333333332" /><rect fill="white" height="0.5416666666666666" width="0.5416666666666666" x="64.875" y="14.458333333333332" /><rect fill="white" height="0.5416666666666666" width="0.5416666666666666" x="65.41666666666667" y="14.458333333333332" /><rect fill="white" height="0.5416666666666666" width="0.5416666666666666" x="65.95833333333333" y="14.458333333333332" /><rect fill="white" height="0.5416666666666666" width="0.5416666666666666" x="66.5" y="14.458333333333332" /><rect fill="white" height="0.5416666666666666" width="0.5416666666666666" x="67.04166666666667" y="14.458333333333332" /><rect fill="white" height="0.5416666666666666" width="0.5416666666666666" x="67.58333333333333" y="14.458333333333332" /><rect fill="white" height="0.5416666666666666" width="0.5416666666666666" x="68.125" y="14.458333333333332" /><rect fill="white" height="0.5416666666666666" width="0.5416666666666666" x="68.66666666666667" y="14.458333333333332" /><rect fill="white" height="0.5416666666666666" width="0.5416666666666666" x="69.20833333333333" y="14.458333333333332" /><rect fill="white" height="0.5416666666666666" width="0.5416666666666666" x="69.75" y="14.458333333333332" /><rect fill="white" height="0.5416666666666666" width="0.5416666666666666" x="70.29166666666667" y="14.458333333333332" /><rect fill="white" height="0.5416666666666666" width="0.5416666666666666" x="70.83333333333333" y="14.458333333333332" /><rect fill="white" height="0.5416666666666666" width="0.5416666666666666" x="71.375" y="14.458333333333332" /><rect fill="white" height="0.5416666666666666" width="0.5416666666666666" x="71.91666666666667" y="14.458333333333332" /><rect fill="white" height="0.5416666666666666" width="0.5416666666666666" x="72.45833333333333" y="14.458333333333332" /><text dominant-baseline="hanging" fill="black" font-family="Arial" font-size="4.2333333333333325" font-weight="bold" letter-spacing="0.2" x="2.0" y="1.5">MFR 9G8G8</text><text dominant-baseline="hanging" fill="black" font-family="Arial" font-size="4.2333333333333325" font-weight="bold" letter-spacing="0.2" x="2.0" y="6.438888888888889">SER AA00019-26156-02</text><text dominant-baseline="hanging" fill="black" font-family="Arial" font-size="4.2333333333333325" font-weight="bold" letter-spacing="0.2" x="2.0" y="11.377777777777778">PNR AA00019 REV </text></svg>