<?xml version="1.0" encoding="utf-8" ?>
<svg baseProfile="full" height="25mm" version="1.1" viewBox="0,0,25,25" width="25mm" xmlns="http://www.w3.org/2000/svg" xmlns:ev="http://www.w3.org/2001/xml-events" xmlns:xlink="http://www.w3.org/1999/xlink"><defs /><rect fill="white" height="100%" width="100%" x="0" y="0" /><rect fill="black" height="21.0" width="21.0" x="2.0" y="2.0" /><rect fill="white" height="0.8333333333333334" width="0.8333333333333334" x="2.5" y="2.5" /><rect fill="white" height="0.8333333333333334" width="0.8333333333333334" x="4.166666666666667" y="2.5" /><rect fill="white" height="0.8333333333333334" width="0.8333333333333334" x="5.833333333333334" y="2.5" /><rect fill="white" height="0.8333333333333334" width="0.8333333333333334" x="7.5" y="2.5" /><rect fill="white" height="0.8333333333333334" width="0.8333333333333334" x="9.166666666666668" y="2.5" /><rect fill="white" height="0.8333333333333334" width="0.8333333333333334" x="10.833333333333334" y="2.5" /><rect fill="white" height="0.8333333333333334" width="0.8333333333333334" x="12.5" y="2.5" /><rect fill="white" height="0.8333333333333334" width="0.8333333333333334" x="14.166666666666668" y="2.5" /><rect fill="white" height="0.8333333333333334" width="0.8333333333333334" x="15.833333333333334" y="2.5" /><rect fill="white" height="0.8333333333333334" width="0.8333333333333334" x="17.5" y="2.5" /><rect fill="white" height="0.8333333333333334" width="0.8333333333333334" x="19.166666666666668" y="2.5" /><rect fill="white" height="0.8333333333333334" width="0.8333333333333334" x="20.833333333333336" y="2.5" /><rect fill="white" height="0.8333333333333334" width="0.8333333333333334" x="2.5" y="3.3333333333333335" /><rect fill="white" height="0.8333333333333334" width="0.8333333333333334" x="3.3333333333333335" y="3.3333333333333335" /><rect fill="white" height="0.8333333333333334" width="0.8333333333333334" x="8.333333333333334" y="3.3333333333333335" /><rect fill="white" height="0.8333333333333334" width="0.8333333333333334" x="12.5" y="3.3333333333333335" /><rect fill="white" height="0.8333333333333334" width="0.8333333333333334" x="15.833333333333334" y="3.3333333333333335" /><rect fill="white" height="0.8333333333333334" width="0.8333333333333334" x="16.666666666666668" y="3.3333333333333335" /><rect fill="white" height="0.8333333333333334" width="0.8333333333333334" x="17.5" y="3.3333333333333335" /><rect fill="white" height="0.8333333333333334" width="0.8333333333333334" x="18.333333333333336" y="3.3333333333333335" /><rect fill="white" height="0.8333333333333334" width="0.8333333333333334" x="20.0" y="3.3333333333333335" /><rect fill="white" height="0.8333333333333334" width="0.8333333333333334" x="21.666666666666668" y="3.3333333333333335" /><rect fill="white" height="0.8333333333333334" width="0.8333333333333334" x="2.5" y="4.166666666666667" /><rect fill="white" height="0.8333333333333334" width="0.8333333333333334" x="3.3333333333333335" y="4.166666666666667" /><rect fill="white" height="0.8333333333333334" width="0.8333333333333334" x="5.833333333333334" y="4.166666666666667" /><rect fill="white" height="0.8333333333333334" width="0.8333333333333334" x="6.666666666666667" y="4.166666666666667" /><rect fill="white" height="0.8333333333333334" width="0.8333333333333334" x="7.5" y="4.166666666666667" /><rect fill="white" height="0.8333333333333334" width="0.8333333333333334" x="10.0" y="4.166666666666667" /><rect fill="white" height="0.8333333333333334" width="0.8333333333333334" x="14.166666666666668" y="4.166666666666667" /><rect fill="white" height="0.8333333333333334" width="0.8333333333333334" x="19.166666666666668" y="4.166666666666667" /><rect fill="white" height="0.8333333333333334" width="0.8333333333333334" x="2.5" y="5.0" /><rect fill="white" height="0.8333333333333334" width="0.8333333333333334" x="3.3333333333333335" y="5.0" /><rect fill="white" height="0.8333333333333334" width="0.8333333333333334" x="5.0" y="5.0" /><rect fill="white" height="0.8333333333333334" width="0.8333333333333334" x="6.666666666666667" y="5.0" /><rect fill="white" height="0.8333333333333334" width="0.8333333333333334" x="7.5" y="5.0" /><rect fill="white" height="0.8333333333333334" width="0.8333333333333334" x="9.166666666666668" y="5.0" /><rect fill="white" height="0.8333333333333334" width="0.8333333333333334" x="10.0" y="5.0" /><rect fill="white" height="0.8333333333333334" width="0.8333333333333334" x="11.666666666666668" y="5.0" /><rect fill="white" height="0.8333333333333334" width="0.8333333333333334" x="14.166666666666668" y="5.0" /><rect fill="white" height="0.8333333333333334" width="0.8333333333333334" x="15.0" y="5.0" /><rect fill="white" height="0.8333333333333334" width="0.8333333333333334" x="16.666666666666668" y="5.0" /><rect fill="white" height="0.8333333333333334" width="0.8333333333333334" x="19.166666666666668" y="5.0" /><rect fill="white" height="0.8333333333333334" width="0.8333333333333334" x="20.0" y="5.0" /><rect fill="white" height="0.8333333333333334" width="0.8333333333333334" x="21.666666666666668" y="5.0" /><rect fill="white" height="0.8333333333333334" width="0.8333333333333334" x="2.5" y="5.833333333333334" /><rect fill="white" height="0.8333333333333334" width="0.8333333333333334" x="5.0" y="5.833333333333334" /><rect fill="white" height="0.8333333333333334" width="0.8333333333333334" x="5.833333333333334" y="5.833333333333334" /><rect fill="white" height="0.8333333333333334" width="0.8333333333333334" x="7.5" y="5.833333333333334" /><rect fill="white" height="0.8333333333333334" width="0.8333333333333334" x="9.166666666666668" y="5.833333333333334" /><rect fill="white" height="0.8333333333333334" width="0.8333333333333334" x="10.0" y="5.833333333333334" /><rect fill="white" height="0.8333333333333334" width="0.8333333333333334" x="15.0" y="5.833333333333334" /><rect fill="white" height="0.8333333333333334" width="0.8333333333333334" x="15.833333333333334" y="5.833333333333334" /><rect fill="white" height="0.8333333333333334" width="0.8333333333333334" x="16.666666666666668" y="5.833333333333334" /><rect fill="white" height="0.8333333333333334" width="0.8333333333333334" x="17.5" y="5.833333333333334" /><rect fill="white" height="0.8333333333333334" width="0.8333333333333334" x="18.333333333333336" y="5.833333333333334" /><rect fill="white" height="0.8333333333333334" width="0.8333333333333334" x="19.166666666666668" y="5.833333333333334" /><rect fill="white" height="0.8333333333333334" width="0.8333333333333334" x="2.5" y="6.666666666666667" /><rect fill="white" height="0.8333333333333334" width="0.8333333333333334" x="5.833333333333334" y="6.666666666666667" /><rect fill="white" height="0.8333333333333334" width="0.8333333333333334" x="7.5" y="6.666666666666667" /><rect fill="white" height="0.8333333333333334" width="0.8333333333333334" x="10.833333333333334" y="6.666666666666667" /><rect fill="white" height="0.8333333333333334" width="0.8333333333333334" x="15.0" y="6.666666666666667" /><rect fill="white" height="0.8333333333333334" width="0.8333333333333334" x="17.5" y="6.666666666666667" /><rect fill="white" height="0.8333333333333334" width="0.8333333333333334" x="18.333333333333336" y="6.666666666666667" /><rect fill="white" height="0.8333333333333334" width="0.8333333333333334" x="19.166666666666668" y="6.666666666666667" /><rect fill="white" height="0.8333333333333334" width="0.8333333333333334" x="20.0" y="6.666666666666667" /><rect fill="white" height="0.8333333333333334" width="0.8333333333333334" x="20.833333333333336" y="6.666666666666667" /><rect fill="white" height="0.8333333333333334" width="0.8333333333333334" x="21.666666666666668" y="6.666666666666667" /><rect fill="white" height="0.8333333333333334" width="0.8333333333333334" x="2.5" y="7.5" /><rect fill="white" height="0.8333333333333334" width="0.8333333333333334" x="4.166666666666667" y="7.5" /><rect fill="white" height="0.8333333333333334" width="0.8333333333333334" x="5.0" y="7.5" /><rect fill="white" height="0.8333333333333334" width="0.8333333333333334" x="10.833333333333334" y="7.5" /><rect fill="white" height="0.8333333333333334" width="0.8333333333333334" x="11.666666666666668" y="7.5" /><rect fill="white" height="0.8333333333333334" width="0.8333333333333334" x="12.5" y="7.5" /><rect fill="white" height="0.8333333333333334" width="0.8333333333333334" x="13.333333333333334" y="7.5" /><rect fill="white" height="0.8333333333333334" width="0.8333333333333334" x="14.166666666666668" y="7.5" /><rect fill="white" height="0.8333333333333334" width="0.8333333333333334" x="15.833333333333334" y="7.5" /><rect fill="white" height="0.8333333333333334" width="0.8333333333333334" x="17.5" y="7.5" /><rect fill="white" height="0.8333333333333334" width="0.8333333333333334" x="18.333333333333336" y="7.5" /><rect fill="white" height="0.8333333333333334" width="0.8333333333333334" x="20.0" y="7.5" /><rect fill="white" height="0.8333333333333334" width="0.8333333333333334" x="2.5" y="8.333333333333334" /><rect fill="white" height="0.8333333333333334" width="0.8333333333333334" x="4.166666666666667" y="8.333333333333334" /><rect fill="white" height="0.8333333333333334" width="0.8333333333333334" x="5.0" y="8.333333333333334" /><rect fill="white" height="0.8333333333333334" width="0.8333333333333334" x="5.833333333333334" y="8.333333333333334" /><rect fill="white" height="0.8333333333333334" width="0.8333333333333334" x="6.666666666666667" y="8.333333333333334" /><rect fill="white" height="0.8333333333333334" width="0.8333333333333334" x="7.5" y="8.333333333333334" /><rect fill="white" height="0.8333333333333334" width="0.8333333333333334" x="8.333333333333334" y="8.333333333333334" /><rect fill="white" height="0.8333333333333334" width="0.8333333333333334" x="9.166666666666668" y="8.333333333333334" /><rect fill="white" height="0.8333333333333334" width="0.8333333333333334" x="10.0" y="8.333333333333334" /><rect fill="white" height="0.8333333333333334" width="0.8333333333333334" x="10.833333333333334" y="8.333333333333334" /><rect fill="white" height="0.8333333333333334" width="0.8333333333333334" x="11.666666666666668" y="8.333333333333334" /><rect fill="white" height="0.8333333333333334" width="0.8333333333333334" x="14.166666666666668" y="8.333333333333334" /><rect fill="white" height="0.8333333333333334" width="0.8333333333333334" x="15.0" y="8.333333333333334" /><rect fill="white" height="0.8333333333333334" width="0.8333333333333334" x="18.333333333333336" y="8.333333333333334" /><rect fill="white" height="0.8333333333333334" width="0.8333333333333334" x="20.0" y="8.333333333333334" /><rect fill="white" height="0.8333333333333334" width="0.8333333333333334" x="20.833333333333336" y="8.333333333333334" /><rect fill="white" height="0.8333333333333334" width="0.8333333333333334" x="21.666666666666668" y="8.333333333333334" /><rect fill="white" height="0.8333333333333334" width="0.8333333333333334" x="2.5" y="9.166666666666668" /><rect fill="white" height="0.8333333333333334" width="0.8333333333333334" x="4.166666666666667" y="9.166666666666668" /><rect fill="white" height="0.8333333333333334" width="0.8333333333333334" x="8.333333333333334" y="9.166666666666668" /><rect fill="white" height="0.8333333333333334" width="0.8333333333333334" x="9.166666666666668" y="9.166666666666668" /><rect fill="white" height="0.8333333333333334" width="0.8333333333333334" x="10.0" y="9.166666666666668" /><rect fill="white" height="0.8333333333333334" width="0.8333333333333334" x="10.833333333333334" y="9.166666666666668" /><rect fill="white" height="0.8333333333333334" width="0.8333333333333334" x="11.666666666666668" y="9.166666666666668" /><rect fill="white" height="0.8333333333333334" width="0.8333333333333334" x="14.166666666666668" y="9.166666666666668" /><rect fill="white" height="0.8333333333333334" width="0.8333333333333334" x="17.5" y="9.166666666666668" /><rect fill="white" height="0.8333333333333334" width="0.8333333333333334" x="18.333333333333336" y="9.166666666666668" /><rect fill="white" height="0.8333333333333334" width="0.8333333333333334" x="19.166666666666668" y="9.166666666666668" /><rect fill="white" height="0.8333333333333334" width="0.8333333333333334" x="2.5" y="10.0" /><rect fill="white" height="0.8333333333333334" width="0.8333333333333334" x="3.3333333333333335" y="10.0" /><rect fill="white" height="0.8333333333333334" width="0.8333333333333334" x="4.166666666666667" y="10.0" /><rect fill="white" height="0.8333333333333334" width="0.8333333333333334" x="5.833333333333334" y="10.0" /><rect fill="white" height="0.8333333333333334" width="0.8333333333333334" x="8.333333333333334" y="10.0" /><rect fill="white" height="0.8333333333333334" width="0.8333333333333334" x="11.666666666666668" y="10.0" /><rect fill="white" height="0.8333333333333334" width="0.8333333333333334" x="13.333333333333334" y="10.0" /><rect fill="white" height="0.8333333333333334" width="0.8333333333333334" x="14.166666666666668" y="10.0" /><rect fill="white" height="0.8333333333333334" width="0.8333333333333334" x="15.0" y="10.0" /><rect fill="white" height="0.8333333333333334" width="0.8333333333333334" x="17.5" y="10.0" /><rect fill="white" height="0.8333333333333334" width="0.8333333333333334" x="19.166666666666668" y="10.0" /><rect fill="white" height="0.8333333333333334" width="0.8333333333333334" x="20.0" y="10.0" /><rect fill="white" height="0.8333333333333334" width="0.8333333333333334" x="20.833333333333336" y="10.0" /><rect fill="white" height="0.8333333333333334" width="0.8333333333333334" x="21.666666666666668" y="10.0" /><rect fill="white" height="0.8333333333333334" width="0.8333333333333334" x="2.5" y="10.833333333333334" /><rect fill="white" height="0.8333333333333334" width="0.8333333333333334" x="4.166666666666667" y="10.833333333333334" /><rect fill="white" height="0.8333333333333334" width="0.8333333333333334" x="6.666666666666667" y="10.833333333333334" /><rect fill="white" height="0.8333333333333334" width="0.8333333333333334" x="10.833333333333334" y="10.833333333333334" /><rect fill="white" height="0.8333333333333334" width="0.8333333333333334" x="11.666666666666668" y="10.833333333333334" /><rect fill="white" height="0.8333333333333334" width="0.8333333333333334" x="12.5" y="10.833333333333334" /><rect fill="white" height="0.8333333333333334" width="0.8333333333333334" x="14.166666666666668" y="10.833333333333334" /><rect fill="white" height="0.8333333333333334" width="0.8333333333333334" x="15.833333333333334" y="10.833333333333334" /><rect fill="white" height="0.8333333333333334" width="0.8333333333333334" x="17.5" y="10.833333333333334" /><rect fill="white" height="0.8333333333333334" width="0.8333333333333334" x="18.333333333333336" y="10.833333333333334" /><rect fill="white" height="0.8333333333333334" width="0.8333333333333334" x="20.833333333333336" y="10.833333333333334" /><rect fill="white" height="0.8333333333333334" width="0.8333333333333334" x="2.5" y="11.666666666666668" /><rect fill="white" height="0.8333333333333334" width="0.8333333333333334" x="4.166666666666667" y="11.666666666666668" /><rect fill="white" height="0.8333333333333334" width="0.8333333333333334" x="5.0" y="11.666666666666668" /><rect fill="white" height="0.8333333333333334" width="0.8333333333333334" x="6.666666666666667" y="11.666666666666668" /><rect fill="white" height="0.8333333333333334" width="0.8333333333333334" x="8.333333333333334" y="11.666666666666668" /><rect fill="white" height="0.8333333333333334" width="0.8333333333333334" x="9.166666666666668" y="11.666666666666668" /><rect fill="white" height="0.8333333333333334" width="0.8333333333333334" x="11.666666666666668" y="11.666666666666668" /><rect fill="white" height="0.8333333333333334" width="0.8333333333333334" x="12.5" y="11.666666666666668" /><rect fill="white" height="0.8333333333333334" width="0.8333333333333334" x="13.333333333333334" y="11.666666666666668" /><rect fill="white" height="0.8333333333333334" width="0.8333333333333334" x="14.166666666666668" y="11.666666666666668" /><rect fill="white" height="0.8333333333333334" width="0.8333333333333334" x="15.0" y="11.666666666666668" /><rect fill="white" height="0.8333333333333334" width="0.8333333333333334" x="16.666666666666668" y="11.666666666666668" /><rect fill="white" height="0.8333333333333334" width="0.8333333333333334" x="20.833333333333336" y="11.666666666666668" /><rect fill="white" height="0.8333333333333334" width="0.8333333333333334" x="21.666666666666668" y="11.666666666666668" /><rect fill="white" height="0.8333333333333334" width="0.8333333333333334" x="2.5" y="12.5" /><rect fill="white" height="0.8333333333333334" width="0.8333333333333334" x="5.0" y="12.5" /><rect fill="white" height="0.8333333333333334" width="0.8333333333333334" x="7.5" y="12.5" /><rect fill="white" height="0.8333333333333334" width="0.8333333333333334" x="8.333333333333334" y="12.5" /><rect fill="white" height="0.8333333333333334" width="0.8333333333333334" x="9.166666666666668" y="12.5" /><rect fill="white" height="0.8333333333333334" width="0.8333333333333334" x="10.0" y="12.5" /><rect fill="white" height="0.8333333333333334" width="0.8333333333333334" x="12.5" y="12.5" /><rect fill="white" height="0.8333333333333334" width="0.8333333333333334" x="13.333333333333334" y="12.5" /><rect fill="white" height="0.8333333333333334" width="0.8333333333333334" x="15.0" y="12.5" /><rect fill="white" height="0.8333333333333334" width="0.8333333333333334" x="16.666666666666668" y="12.5" /><rect fill="white" height="0.8333333333333334" width="0.8333333333333334" x="17.5" y="12.5" /><rect fill="white" height="0.8333333333333334" width="0.8333333333333334" x="20.833333333333336" y="12.5" /><rect fill="white" height="0.8333333333333334" width="0.8333333333333334" x="2.5" y="13.333333333333334" /><rect fill="white" height="0.8333333333333334" width="0.8333333333333334" x="3.3333333333333335" y="13.333333333333334" /><rect fill="white" height="0.8333333333333334" width="0.8333333333333334" x="4.166666666666667" y="13.333333333333334" /><rect fill="white" height="0.8333333333333334" width="0.8333333333333334" x="5.0" y="13.333333333333334" /><rect fill="white" height="0.8333333333333334" width="0.8333333333333334" x="8.333333333333334" y="13.333333333333334" /><rect fill="white" height="0.8333333333333334" width="0.8333333333333334" x="9.166666666666668" y="13.333333333333334" /><rect fill="white" height="0.8333333333333334" width="0.8333333333333334" x="10.0" y="13.333333333333334" /><rect fill="white" height="0.8333333333333334" width="0.8333333333333334" x="10.833333333333334" y="13.333333333333334" /><rect fill="white" height="0.8333333333333334" width="0.8333333333333334" x="11.666666666666668" y="13.333333333333334" /><rect fill="white" height="0.8333333333333334" width="0.8333333333333334" x="12.5" y="13.333333333333334" /><rect fill="white" height="0.8333333333333334" width="0.8333333333333334" x="13.333333333333334" y="13.333333333333334" /><rect fill="white" height="0.8333333333333334" width="0.8333333333333334" x="15.833333333333334" y="13.333333333333334" /><rect fill="white" height="0.8333333333333334" width="0.8333333333333334" x="18.333333333333336" y="13.333333333333334" /><rect fill="white" height="0.8333333333333334" width="0.8333333333333334" x="21.666666666666668" y="13.333333333333334" /><rect fill="white" height="0.8333333333333334" width="0.8333333333333334" x="2.5" y="14.166666666666668" /><rect fill="white" height="0.8333333333333334" width="0.8333333333333334" x="4.166666666666667" y="14.166666666666668" /><rect fill="white" height="0.8333333333333334" width="0.8333333333333334" x="5.833333333333334" y="14.166666666666668" /><rect fill="white" height="0.8333333333333334" width="0.8333333333333334" x="7.5" y="14.166666666666668" /><rect fill="white" height="0.8333333333333334" width="0.8333333333333334" x="9.166666666666668" y="14.166666666666668" /><rect fill="white" height="0.8333333333333334" width="0.8333333333333334" x="10.0" y="14.166666666666668" /><rect fill="white" height="0.8333333333333334" width="0.8333333333333334" x="10.833333333333334" y="14.166666666666668" /><rect fill="white" height="0.8333333333333334" width="0.8333333333333334" x="12.5" y="14.166666666666668" /><rect fill="white" height="0.8333333333333334" width="0.8333333333333334" x="14.166666666666668" y="14.166666666666668" /><rect fill="white" height="0.8333333333333334" width="0.8333333333333334" x="17.5" y="14.166666666666668" /><rect fill="white" height="0.8333333333333334" width="0.8333333333333334" x="20.833333333333336" y="14.166666666666668" /><rect fill="white" height="0.8333333333333334" width="0.8333333333333334" x="2.5" y="15.0" /><rect fill="white" height="0.8333333333333334" width="0.8333333333333334" x="3.3333333333333335" y="15.0" /><rect fill="white" height="0.8333333333333334" width="0.8333333333333334" x="4.166666666666667" y="15.0" /><rect fill="white" height="0.8333333333333334" width="0.8333333333333334" x="5.0" y="15.0" /><rect fill="white" height="0.8333333333333334" width="0.8333333333333334" x="6.666666666666667" y="15.0" /><rect fill="white" height="0.8333333333333334" width="0.8333333333333334" x="9.166666666666668" y="15.0" /><rect fill="white" height="0.8333333333333334" width="0.8333333333333334" x="10.0" y="15.0" /><rect fill="white" height="0.8333333333333334" width="0.8333333333333334" x="10.833333333333334" y="15.0" /><rect fill="white" height="0.8333333333333334" width="0.8333333333333334" x="11.666666666666668" y="15.0" /><rect fill="white" height="0.8333333333333334" width="0.8333333333333334" x="12.5" y="15.0" /><rect fill="white" height="0.8333333333333334" width="0.8333333333333334" x="13.333333333333334" y="15.0" /><rect fill="white" height="0.8333333333333334" width="0.8333333333333334" x="14.166666666666668" y="15.0" /><rect fill="white" height="0.8333333333333334" width="0.8333333333333334" x="15.0" y="15.0" /><rect fill="white" height="0.8333333333333334" width="0.8333333333333334" x="17.5" y="15.0" /><rect fill="white" height="0.8333333333333334" width="0.8333333333333334" x="19.166666666666668" y="15.0" /><rect fill="white" height="0.8333333333333334" width="0.8333333333333334" x="20.0" y="15.0" /><rect fill="white" height="0.8333333333333334" width="0.8333333333333334" x="20.833333333333336" y="15.0" /><rect fill="white" height="0.8333333333333334" width="0.8333333333333334" x="21.666666666666668" y="15.0" /><rect fill="white" height="0.8333333333333334" width="0.8333333333333334" x="2.5" y="15.833333333333334" /><rect fill="white" height="0.8333333333333334" width="0.8333333333333334" x="4.166666666666667" y="15.833333333333334" /><rect fill="white" height="0.8333333333333334" width="0.8333333333333334" x="5.833333333333334" y="15.833333333333334" /><rect fill="white" height="0.8333333333333334" width="0.8333333333333334" x="6.666666666666667" y="15.833333333333334" /><rect fill="white" height="0.8333333333333334" width="0.8333333333333334" x="7.5" y="15.833333333333334" /><rect fill="white" height="0.8333333333333334" width="0.8333333333333334" x="10.0" y="15.833333333333334" /><rect fill="white" height="0.8333333333333334" width="0.8333333333333334" x="11.666666666666668" y="15.833333333333334" /><rect fill="white" height="0.8333333333333334" width="0.8333333333333334" x="14.166666666666668" y="15.833333333333334" /><rect fill="white" height="0.8333333333333334" width="0.8333333333333334" x="15.833333333333334" y="15.833333333333334" /><rect fill="white" height="0.8333333333333334" width="0.8333333333333334" x="18.333333333333336" y="15.833333333333334" /><rect fill="white" height="0.8333333333333334" width="0.8333333333333334" x="20.0" y="15.833333333333334" /><rect fill="white" height="0.8333333333333334" width="0.8333333333333334" x="2.5" y="16.666666666666668" /><rect fill="white" height="0.8333333333333334" width="0.8333333333333334" x="3.3333333333333335" y="16.666666666666668" /><rect fill="white" height="0.8333333333333334" width="0.8333333333333334" x="7.5" y="16.666666666666668" /><rect fill="white" height="0.8333333333333334" width="0.8333333333333334" x="8.333333333333334" y="16.666666666666668" /><rect fill="white" height="0.8333333333333334" width="0.8333333333333334" x="9.166666666666668" y="16.666666666666668" /><rect fill="white" height="0.8333333333333334" width="0.8333333333333334" x="10.0" y="16.666666666666668" /><rect fill="white" height="0.8333333333333334" width="0.8333333333333334" x="11.666666666666668" y="16.666666666666668" /><rect fill="white" height="0.8333333333333334" width="0.8333333333333334" x="12.5" y="16.666666666666668" /><rect fill="white" height="0.8333333333333334" width="0.8333333333333334" x="15.0" y="16.666666666666668" /><rect fill="white" height="0.8333333333333334" width="0.8333333333333334" x="15.833333333333334" y="16.666666666666668" /><rect fill="white" height="0.8333333333333334" width="0.8333333333333334" x="16.666666666666668" y="16.666666666666668" /><rect fill="white" height="0.8333333333333334" width="0.8333333333333334" x="18.333333333333336" y="16.666666666666668" /><rect fill="white" height="0.8333333333333334" width="0.8333333333333334" x="20.0" y="16.666666666666668" /><rect fill="white" height="0.8333333333333334" width="0.8333333333333334" x="21.666666666666668" y="16.666666666666668" /><rect fill="white" height="0.8333333333333334" width="0.8333333333333334" x="2.5" y="17.5" /><rect fill="white" height="0.8333333333333334" width="0.8333333333333334" x="3.3333333333333335" y="17.5" /><rect fill="white" height="0.8333333333333334" width="0.8333333333333334" x="4.166666666666667" y="17.5" /><rect fill="white" height="0.8333333333333334" width="0.8333333333333334" x="5.0" y="17.5" /><rect fill="white" height="0.8333333333333334" width="0.8333333333333334" x="6.666666666666667" y="17.5" /><rect fill="white" height="0.8333333333333334" width="0.8333333333333334" x="10.0" y="17.5" /><rect fill="white" height="0.8333333333333334" width="0.8333333333333334" x="10.833333333333334" y="17.5" /><rect fill="white" height="0.8333333333333334" width="0.8333333333333334" x="12.5" y="17.5" /><rect fill="white" height="0.8333333333333334" width="0.8333333333333334" x="15.0" y="17.5" /><rect fill="white" height="0.8333333333333334" width="0.8333333333333334" x="15.833333333333334" y="17.5" /><rect fill="white" height="0.8333333333333334" width="0.8333333333333334" x="2.5" y="18.333333333333336" /><rect fill="white" height="0.8333333333333334" width="0.8333333333333334" x="5.0" y="18.333333333333336" /><rect fill="white" height="0.8333333333333334" width="0.8333333333333334" x="5.833333333333334" y="18.333333333333336" /><rect fill="white" height="0.8333333333333334" width="0.8333333333333334" x="6.666666666666667" y="18.333333333333336" /><rect fill="white" height="0.8333333333333334" width="0.8333333333333334" x="7.5" y="18.333333333333336" /><rect fill="white" height="0.8333333333333334" width="0.8333333333333334" x="8.333333333333334" y="18.333333333333336" /><rect fill="white" height="0.8333333333333334" width="0.8333333333333334" x="10.0" y="18.333333333333336" /><rect fill="white" height="0.8333333333333334" width="0.8333333333333334" x="10.833333333333334" y="18.333333333333336" /><rect fill="white" height="0.8333333333333334" width="0.8333333333333334" x="11.666666666666668" y="18.333333333333336" /><rect fill="white" height="0.8333333333333334" width="0.8333333333333334" x="16.666666666666668" y="18.333333333333336" /><rect fill="white" height="0.8333333333333334" width="0.8333333333333334" x="19.166666666666668" y="18.333333333333336" /><rect fill="white" height="0.8333333333333334" width="0.8333333333333334" x="20.0" y="18.333333333333336" /><rect fill="white" height="0.8333333333333334" width="0.8333333333333334" x="21.666666666666668" y="18.333333333333336" /><rect fill="white" height="0.8333333333333334" width="0.8333333333333334" x="2.5" y="19.166666666666668" /><rect fill="white" height="0.8333333333333334" width="0.8333333333333334" x="3.3333333333333335" y="19.166666666666668" /><rect fill="white" height="0.8333333333333334" width="0.8333333333333334" x="4.166666666666667" y="19.166666666666668" /><rect fill="white" height="0.8333333333333334" width="0.8333333333333334" x="6.666666666666667" y="19.166666666666668" /><rect fill="white" height="0.8333333333333334" width="0.8333333333333334" x="10.833333333333334" y="19.166666666666668" /><rect fill="white" height="0.8333333333333334" width="0.8333333333333334" x="13.333333333333334" y="19.166666666666668" /><rect fill="white" height="0.8333333333333334" width="0.8333333333333334" x="14.166666666666668" y="19.166666666666668" /><rect fill="white" height="0.8333333333333334" width="0.8333333333333334" x="15.0" y="19.166666666666668" /><rect fill="white" height="0.8333333333333334" width="0.8333333333333334" x="15.833333333333334" y="19.166666666666668" /><rect fill="white" height="0.8333333333333334" width="0.8333333333333334" x="17.5" y="19.166666666666668" /><rect fill="white" height="0.8333333333333334" width="0.8333333333333334" x="18.333333333333336" y="19.166666666666668" /><rect fill="white" height="0.8333333333333334" width="0.8333333333333334" x="20.833333333333336" y="19.166666666666668" /><rect fill="white" height="0.8333333333333334" width="0.8333333333333334" x="2.5" y="20.0" /><rect fill="white" height="0.8333333333333334" width="0.8333333333333334" x="3.3333333333333335" y="20.0" /><rect fill="white" height="0.8333333333333334" width="0.8333333333333334" x="5.833333333333334" y="20.0" /><rect fill="white" height="0.8333333333333334" width="0.8333333333333334" x="6.666666666666667" y="20.0" /><rect fill="white" height="0.8333333333333334" width="0.8333333333333334" x="10.833333333333334" y="20.0" /><rect fill="white" height="0.8333333333333334" width="0.8333333333333334" x="11.666666666666668" y="20.0" /><rect fill="white" height="0.8333333333333334" width="0.8333333333333334" x="12.5" y="20.0" /><rect fill="white" height="0.8333333333333334" width="0.8333333333333334" x="15.833333333333334" y="20.0" /><rect fill="white" height="0.8333333333333334" width="0.8333333333333334" x="16.666666666666668" y="20.0" /><rect fill="white" height="0.8333333333333334" width="0.8333333333333334" x="18.333333333333336" y="20.0" /><rect fill="white" height="0.8333333333333334" width="0.8333333333333334" x="19.166666666666668" y="20.0" /><rect fill="white" height="0.8333333333333334" width="0.8333333333333334" x="20.0" y="20.0" /><rect fill="white" height="0.8333333333333334" width="0.8333333333333334" x="21.666666666666668" y="20.0" /><rect fill="white" height="0.8333333333333334" width="0.8333333333333334" x="2.5" y="20.833333333333336" /><rect fill="white" height="0.8333333333333334" width="0.8333333333333334" x="3.3333333333333335" y="20.833333333333336" /><rect fill="white" height="0.8333333333333334" width="0.8333333333333334" x="5.0" y="20.833333333333336" /><rect fill="white" height="0.8333333333333334" width="0.8333333333333334" x="7.5" y="20.833333333333336" /><rect fill="white" height="0.8333333333333334" width="0.8333333333333334" x="8.333333333333334" y="20.833333333333336" /><rect fill="white" height="0.8333333333333334" width="0.8333333333333334" x="12.5" y="20.833333333333336" /><rect fill="white" height="0.8333333333333334" width="0.8333333333333334" x="14.166666666666668" y="20.833333333333336" /><rect fill="white" height="0.8333333333333334" width="0.8333333333333334" x="15.0" y="20.833333333333336" /><rect fill="white" height="0.8333333333333334" width="0.8333333333333334" x="16.666666666666668" y="20.833333333333336" /><rect fill="white" height="0.8333333333333334" width="0.8333333333333334" x="17.5" y="20.833333333333336" /><rect fill="white" height="0.8333333333333334" width="0.8333333333333334" x="18.333333333333336" y="20.833333333333336" /><rect fill="white" height="0.8333333333333334" width="0.8333333333333334" x="19.166666666666668" y="20.833333333333336" /><rect fill="white" height="0.8333333333333334" width="0.8333333333333334" x="20.833333333333336" y="20.833333333333336" /><rect fill="white" height="0.8333333333333334" width="0.8333333333333334" x="2.5" y="21.666666666666668" /><rect fill="white" height="0.8333333333333334" width="0.8333333333333334" x="3.3333333333333335" y="21.666666666666668" /><rect fill="white" height="0.8333333333333334" width="0.8333333333333334" x="4.166666666666667" y="21.666666666666668" /><rect fill="white" height="0.8333333333333334" width="0.8333333333333334" x="5.0" y="21.666666666666668" /><rect fill="white" height="0.8333333333333334" width="0.8333333333333334" x="5.833333333333334" y="21.666666666666668" /><rect fill="white" height="0.8333333333333334" width="0.8333333333333334" x="6.666666666666667" y="21.666666666666668" /><rect fill="white" height="0.8333333333333334" width="0.8333333333333334" x="7.5" y="21.666666666666668" /><rect fill="white" height="0.8333333333333334" width="0.8333333333333334" x="8.333333333333334" y="21.666666666666668" /><rect fill="white" height="0.8333333333333334" width="0.8333333333333334" x="9.166666666666668" y="21.666666666666668" /><rect fill="white" height="0.8333333333333334" width="0.8333333333333334" x="10.0" y="21.666666666666668" /><rect fill="white" height="0.8333333333333334" width="0.8333333333333334" x="10.833333333333334" y="21.666666666666668" /><rect fill="white" height="0.8333333333333334" width="0.8333333333333334" x="11.666666666666668" y="21.666666666666668" /><rect fill="white" height="0.8333333333333334" width="0.8333333333333334" x="12.5" y="21.666666666666668" /><rect fill="white" height="0.8333333333333334" width="0.8333333333333334" x="13.333333333333334" y="21.666666666666668" /><rect fill="white" height="0.8333333333333334" width="0.8333333333333334" x="14.166666666666668" y="21.666666666666668" /><rect fill="white" height="0.8333333333333334" width="0.8333333333333334" x="15.0" y="21.666666666666668" /><rect fill="white" height="0.8333333333333334" width="0.8333333333333334" x="15.833333333333334" y="21.666666666666668" /><rect fill="white" height="0.8333333333333334" width="0.8333333333333334" x="16.666666666666668" y="21.666666666666668" /><rect fill="white" height="0.8333333333333334" width="0.8333333333333334" x="17.5" y="21.666666666666668" /><rect fill="white" height="0.8333333333333334" width="0.8333333333333334" x="18.333333333333336" y="21.666666666666668" /><rect fill="white" height="0.8333333333333334" width="0.8333333333333334" x="19.166666666666668" y="21.666666666666668" /><rect fill="white" height="0.8333333333333334" width="0.8333333333333334" x="20.0" y="21.666666666666668" /><rect fill="white" height="0.8333333333333334" width="0.8333333333333334" x="20.833333333333336" y="21.666666666666668" /><rect fill="white" height="0.8333333333333334" width="0.8333333333333334" x="21.666666666666668" y="21.666666666666668" /></svg>