<?xml version="1.0" encoding="utf-8" ?>
<svg baseProfile="full" height="25mm" version="1.1" viewBox="0,0,25,25" width="25mm" xmlns="http://www.w3.org/2000/svg" xmlns:ev="http://www.w3.org/2001/xml-events" xmlns:xlink="http://www.w3.org/1999/xlink"><defs /><rect fill="white" height="100%" width="100%" x="0" y="0" /><rect fill="black" height="21.0" width="21.0" x="2.0" y="2.0" /><rect fill="white" height="0.7692307692307693" width="0.7692307692307693" x="2.5" y="2.5" /><rect fill="white" height="0.7692307692307693" width="0.7692307692307693" x="4.038461538461538" y="2.5" /><rect fill="white" height="0.7692307692307693" width="0.7692307692307693" x="5.576923076923077" y="2.5" /><rect fill="white" height="0.7692307692307693" width="0.7692307692307693" x="7.115384615384616" y="2.5" /><rect fill="white" height="0.7692307692307693" width="0.7692307692307693" x="8.653846153846153" y="2.5" /><rect fill="white" height="0.7692307692307693" width="0.7692307692307693" x="10.192307692307693" y="2.5" /><rect fill="white" height="0.7692307692307693" width="0.7692307692307693" x="11.730769230769232" y="2.5" /><rect fill="white" height="0.7692307692307693" width="0.7692307692307693" x="13.26923076923077" y="2.5" /><rect fill="white" height="0.7692307692307693" width="0.7692307692307693" x="14.807692307692308" y="2.5" /><rect fill="white" height="0.7692307692307693" width="0.7692307692307693" x="16.346153846153847" y="2.5" /><rect fill="white" height="0.7692307692307693" width="0.7692307692307693" x="17.884615384615387" y="2.5" /><rect fill="white" height="0.7692307692307693" width="0.7692307692307693" x="19.423076923076923" y="2.5" /><rect fill="white" height="0.7692307692307693" width="0.7692307692307693" x="20.961538461538463" y="2.5" /><rect fill="white" height="0.7692307692307693" width="0.7692307692307693" x="2.5" y="3.269230769230769" /><rect fill="white" height="0.7692307692307693" width="0.7692307692307693" x="3.269230769230769" y="3.269230769230769" /><rect fill="white" height="0.7692307692307693" width="0.7692307692307693" x="7.884615384615385" y="3.269230769230769" /><rect fill="white" height="0.7692307692307693" width="0.7692307692307693" x="12.5" y="3.269230769230769" /><rect fill="white" height="0.7692307692307693" width="0.7692307692307693" x="14.038461538461538" y="3.269230769230769" /><rect fill="white" height="0.7692307692307693" width="0.7692307692307693" x="17.884615384615387" y="3.269230769230769" /><rect fill="white" height="0.7692307692307693" width="0.7692307692307693" x="18.653846153846153" y="3.269230769230769" /><rect fill="white" height="0.7692307692307693" width="0.7692307692307693" x="19.423076923076923" y="3.269230769230769" /><rect fill="white" height="0.7692307692307693" width="0.7692307692307693" x="20.192307692307693" y="3.269230769230769" /><rect fill="white" height="0.7692307692307693" width="0.7692307692307693" x="20.961538461538463" y="3.269230769230769" /><rect fill="white" height="0.7692307692307693" width="0.7692307692307693" x="21.730769230769234" y="3.269230769230769" /><rect fill="white" height="0.7692307692307693" width="0.7692307692307693" x="2.5" y="4.038461538461538" /><rect fill="white" height="0.7692307692307693" width="0.7692307692307693" x="3.269230769230769" y="4.038461538461538" /><rect fill="white" height="0.7692307692307693" width="0.7692307692307693" x="5.576923076923077" y="4.038461538461538" /><rect fill="white" height="0.7692307692307693" width="0.7692307692307693" x="6.346153846153847" y="4.038461538461538" /><rect fill="white" height="0.7692307692307693" width="0.7692307692307693" x="7.115384615384616" y="4.038461538461538" /><rect fill="white" height="0.7692307692307693" width="0.7692307692307693" x="9.423076923076923" y="4.038461538461538" /><rect fill="white" height="0.7692307692307693" width="0.7692307692307693" x="14.807692307692308" y="4.038461538461538" /><rect fill="white" height="0.7692307692307693" width="0.7692307692307693" x="16.346153846153847" y="4.038461538461538" /><rect fill="white" height="0.7692307692307693" width="0.7692307692307693" x="18.653846153846153" y="4.038461538461538" /><rect fill="white" height="0.7692307692307693" width="0.7692307692307693" x="19.423076923076923" y="4.038461538461538" /><rect fill="white" height="0.7692307692307693" width="0.7692307692307693" x="20.192307692307693" y="4.038461538461538" /><rect fill="white" height="0.7692307692307693" width="0.7692307692307693" x="2.5" y="4.807692307692308" /><rect fill="white" height="0.7692307692307693" width="0.7692307692307693" x="3.269230769230769" y="4.807692307692308" /><rect fill="white" height="0.7692307692307693" width="0.7692307692307693" x="4.807692307692308" y="4.807692307692308" /><rect fill="white" height="0.7692307692307693" width="0.7692307692307693" x="6.346153846153847" y="4.807692307692308" /><rect fill="white" height="0.7692307692307693" width="0.7692307692307693" x="7.115384615384616" y="4.807692307692308" /><rect fill="white" height="0.7692307692307693" width="0.7692307692307693" x="8.653846153846153" y="4.807692307692308" /><rect fill="white" height="0.7692307692307693" width="0.7692307692307693" x="9.423076923076923" y="4.807692307692308" /><rect fill="white" height="0.7692307692307693" width="0.7692307692307693" x="10.961538461538462" y="4.807692307692308" /><rect fill="white" height="0.7692307692307693" width="0.7692307692307693" x="13.26923076923077" y="4.807692307692308" /><rect fill="white" height="0.7692307692307693" width="0.7692307692307693" x="14.038461538461538" y="4.807692307692308" /><rect fill="white" height="0.7692307692307693" width="0.7692307692307693" x="14.807692307692308" y="4.807692307692308" /><rect fill="white" height="0.7692307692307693" width="0.7692307692307693" x="15.576923076923078" y="4.807692307692308" /><rect fill="white" height="0.7692307692307693" width="0.7692307692307693" x="16.346153846153847" y="4.807692307692308" /><rect fill="white" height="0.7692307692307693" width="0.7692307692307693" x="17.115384615384617" y="4.807692307692308" /><rect fill="white" height="0.7692307692307693" width="0.7692307692307693" x="18.653846153846153" y="4.807692307692308" /><rect fill="white" height="0.7692307692307693" width="0.7692307692307693" x="20.192307692307693" y="4.807692307692308" /><rect fill="white" height="0.7692307692307693" width="0.7692307692307693" x="20.961538461538463" y="4.807692307692308" /><rect fill="white" height="0.7692307692307693" width="0.7692307692307693" x="21.730769230769234" y="4.807692307692308" /><rect fill="white" height="0.7692307692307693" width="0.7692307692307693" x="2.5" y="5.576923076923077" /><rect fill="white" height="0.7692307692307693" width="0.7692307692307693" x="4.807692307692308" y="5.576923076923077" /><rect fill="white" height="0.7692307692307693" width="0.7692307692307693" x="5.576923076923077" y="5.576923076923077" /><rect fill="white" height="0.7692307692307693" width="0.7692307692307693" x="7.115384615384616" y="5.576923076923077" /><rect fill="white" height="0.7692307692307693" width="0.7692307692307693" x="8.653846153846153" y="5.576923076923077" /><rect fill="white" height="0.7692307692307693" width="0.7692307692307693" x="9.423076923076923" y="5.576923076923077" /><rect fill="white" height="0.7692307692307693" width="0.7692307692307693" x="14.807692307692308" y="5.576923076923077" /><rect fill="white" height="0.7692307692307693" width="0.7692307692307693" x="17.884615384615387" y="5.576923076923077" /><rect fill="white" height="0.7692307692307693" width="0.7692307692307693" x="18.653846153846153" y="5.576923076923077" /><rect fill="white" height="0.7692307692307693" width="0.7692307692307693" x="19.423076923076923" y="5.576923076923077" /><rect fill="white" height="0.7692307692307693" width="0.7692307692307693" x="20.192307692307693" y="5.576923076923077" /><rect fill="white" height="0.7692307692307693" width="0.7692307692307693" x="2.5" y="6.346153846153847" /><rect fill="white" height="0.7692307692307693" width="0.7692307692307693" x="5.576923076923077" y="6.346153846153847" /><rect fill="white" height="0.7692307692307693" width="0.7692307692307693" x="7.115384615384616" y="6.346153846153847" /><rect fill="white" height="0.7692307692307693" width="0.7692307692307693" x="10.192307692307693" y="6.346153846153847" /><rect fill="white" height="0.7692307692307693" width="0.7692307692307693" x="15.576923076923078" y="6.346153846153847" /><rect fill="white" height="0.7692307692307693" width="0.7692307692307693" x="16.346153846153847" y="6.346153846153847" /><rect fill="white" height="0.7692307692307693" width="0.7692307692307693" x="18.653846153846153" y="6.346153846153847" /><rect fill="white" height="0.7692307692307693" width="0.7692307692307693" x="20.192307692307693" y="6.346153846153847" /><rect fill="white" height="0.7692307692307693" width="0.7692307692307693" x="20.961538461538463" y="6.346153846153847" /><rect fill="white" height="0.7692307692307693" width="0.7692307692307693" x="21.730769230769234" y="6.346153846153847" /><rect fill="white" height="0.7692307692307693" width="0.7692307692307693" x="2.5" y="7.115384615384616" /><rect fill="white" height="0.7692307692307693" width="0.7692307692307693" x="4.038461538461538" y="7.115384615384616" /><rect fill="white" height="0.7692307692307693" width="0.7692307692307693" x="4.807692307692308" y="7.115384615384616" /><rect fill="white" height="0.7692307692307693" width="0.7692307692307693" x="10.192307692307693" y="7.115384615384616" /><rect fill="white" height="0.7692307692307693" width="0.7692307692307693" x="10.961538461538462" y="7.115384615384616" /><rect fill="white" height="0.7692307692307693" width="0.7692307692307693" x="11.730769230769232" y="7.115384615384616" /><rect fill="white" height="0.7692307692307693" width="0.7692307692307693" x="13.26923076923077" y="7.115384615384616" /><rect fill="white" height="0.7692307692307693" width="0.7692307692307693" x="14.038461538461538" y="7.115384615384616" /><rect fill="white" height="0.7692307692307693" width="0.7692307692307693" x="17.884615384615387" y="7.115384615384616" /><rect fill="white" height="0.7692307692307693" width="0.7692307692307693" x="18.653846153846153" y="7.115384615384616" /><rect fill="white" height="0.7692307692307693" width="0.7692307692307693" x="2.5" y="7.884615384615385" /><rect fill="white" height="0.7692307692307693" width="0.7692307692307693" x="4.038461538461538" y="7.884615384615385" /><rect fill="white" height="0.7692307692307693" width="0.7692307692307693" x="4.807692307692308" y="7.884615384615385" /><rect fill="white" height="0.7692307692307693" width="0.7692307692307693" x="5.576923076923077" y="7.884615384615385" /><rect fill="white" height="0.7692307692307693" width="0.7692307692307693" x="6.346153846153847" y="7.884615384615385" /><rect fill="white" height="0.7692307692307693" width="0.7692307692307693" x="7.115384615384616" y="7.884615384615385" /><rect fill="white" height="0.7692307692307693" width="0.7692307692307693" x="7.884615384615385" y="7.884615384615385" /><rect fill="white" height="0.7692307692307693" width="0.7692307692307693" x="8.653846153846153" y="7.884615384615385" /><rect fill="white" height="0.7692307692307693" width="0.7692307692307693" x="9.423076923076923" y="7.884615384615385" /><rect fill="white" height="0.7692307692307693" width="0.7692307692307693" x="10.192307692307693" y="7.884615384615385" /><rect fill="white" height="0.7692307692307693" width="0.7692307692307693" x="14.038461538461538" y="7.884615384615385" /><rect fill="white" height="0.7692307692307693" width="0.7692307692307693" x="14.807692307692308" y="7.884615384615385" /><rect fill="white" height="0.7692307692307693" width="0.7692307692307693" x="16.346153846153847" y="7.884615384615385" /><rect fill="white" height="0.7692307692307693" width="0.7692307692307693" x="17.115384615384617" y="7.884615384615385" /><rect fill="white" height="0.7692307692307693" width="0.7692307692307693" x="18.653846153846153" y="7.884615384615385" /><rect fill="white" height="0.7692307692307693" width="0.7692307692307693" x="20.961538461538463" y="7.884615384615385" /><rect fill="white" height="0.7692307692307693" width="0.7692307692307693" x="21.730769230769234" y="7.884615384615385" /><rect fill="white" height="0.7692307692307693" width="0.7692307692307693" x="2.5" y="8.653846153846153" /><rect fill="white" height="0.7692307692307693" width="0.7692307692307693" x="4.038461538461538" y="8.653846153846153" /><rect fill="white" height="0.7692307692307693" width="0.7692307692307693" x="7.884615384615385" y="8.653846153846153" /><rect fill="white" height="0.7692307692307693" width="0.7692307692307693" x="8.653846153846153" y="8.653846153846153" /><rect fill="white" height="0.7692307692307693" width="0.7692307692307693" x="9.423076923076923" y="8.653846153846153" /><rect fill="white" height="0.7692307692307693" width="0.7692307692307693" x="10.192307692307693" y="8.653846153846153" /><rect fill="white" height="0.7692307692307693" width="0.7692307692307693" x="10.961538461538462" y="8.653846153846153" /><rect fill="white" height="0.7692307692307693" width="0.7692307692307693" x="14.807692307692308" y="8.653846153846153" /><rect fill="white" height="0.7692307692307693" width="0.7692307692307693" x="15.576923076923078" y="8.653846153846153" /><rect fill="white" height="0.7692307692307693" width="0.7692307692307693" x="18.653846153846153" y="8.653846153846153" /><rect fill="white" height="0.7692307692307693" width="0.7692307692307693" x="20.192307692307693" y="8.653846153846153" /><rect fill="white" height="0.7692307692307693" width="0.7692307692307693" x="20.961538461538463" y="8.653846153846153" /><rect fill="white" height="0.7692307692307693" width="0.7692307692307693" x="2.5" y="9.423076923076923" /><rect fill="white" height="0.7692307692307693" width="0.7692307692307693" x="3.269230769230769" y="9.423076923076923" /><rect fill="white" height="0.7692307692307693" width="0.7692307692307693" x="4.038461538461538" y="9.423076923076923" /><rect fill="white" height="0.7692307692307693" width="0.7692307692307693" x="5.576923076923077" y="9.423076923076923" /><rect fill="white" height="0.7692307692307693" width="0.7692307692307693" x="7.884615384615385" y="9.423076923076923" /><rect fill="white" height="0.7692307692307693" width="0.7692307692307693" x="10.192307692307693" y="9.423076923076923" /><rect fill="white" height="0.7692307692307693" width="0.7692307692307693" x="10.961538461538462" y="9.423076923076923" /><rect fill="white" height="0.7692307692307693" width="0.7692307692307693" x="12.5" y="9.423076923076923" /><rect fill="white" height="0.7692307692307693" width="0.7692307692307693" x="13.26923076923077" y="9.423076923076923" /><rect fill="white" height="0.7692307692307693" width="0.7692307692307693" x="14.807692307692308" y="9.423076923076923" /><rect fill="white" height="0.7692307692307693" width="0.7692307692307693" x="16.346153846153847" y="9.423076923076923" /><rect fill="white" height="0.7692307692307693" width="0.7692307692307693" x="19.423076923076923" y="9.423076923076923" /><rect fill="white" height="0.7692307692307693" width="0.7692307692307693" x="20.192307692307693" y="9.423076923076923" /><rect fill="white" height="0.7692307692307693" width="0.7692307692307693" x="20.961538461538463" y="9.423076923076923" /><rect fill="white" height="0.7692307692307693" width="0.7692307692307693" x="21.730769230769234" y="9.423076923076923" /><rect fill="white" height="0.7692307692307693" width="0.7692307692307693" x="2.5" y="10.192307692307693" /><rect fill="white" height="0.7692307692307693" width="0.7692307692307693" x="4.038461538461538" y="10.192307692307693" /><rect fill="white" height="0.7692307692307693" width="0.7692307692307693" x="6.346153846153847" y="10.192307692307693" /><rect fill="white" height="0.7692307692307693" width="0.7692307692307693" x="7.884615384615385" y="10.192307692307693" /><rect fill="white" height="0.7692307692307693" width="0.7692307692307693" x="10.192307692307693" y="10.192307692307693" /><rect fill="white" height="0.7692307692307693" width="0.7692307692307693" x="10.961538461538462" y="10.192307692307693" /><rect fill="white" height="0.7692307692307693" width="0.7692307692307693" x="11.730769230769232" y="10.192307692307693" /><rect fill="white" height="0.7692307692307693" width="0.7692307692307693" x="13.26923076923077" y="10.192307692307693" /><rect fill="white" height="0.7692307692307693" width="0.7692307692307693" x="14.038461538461538" y="10.192307692307693" /><rect fill="white" height="0.7692307692307693" width="0.7692307692307693" x="15.576923076923078" y="10.192307692307693" /><rect fill="white" height="0.7692307692307693" width="0.7692307692307693" x="17.115384615384617" y="10.192307692307693" /><rect fill="white" height="0.7692307692307693" width="0.7692307692307693" x="17.884615384615387" y="10.192307692307693" /><rect fill="white" height="0.7692307692307693" width="0.7692307692307693" x="18.653846153846153" y="10.192307692307693" /><rect fill="white" height="0.7692307692307693" width="0.7692307692307693" x="19.423076923076923" y="10.192307692307693" /><rect fill="white" height="0.7692307692307693" width="0.7692307692307693" x="2.5" y="10.961538461538462" /><rect fill="white" height="0.7692307692307693" width="0.7692307692307693" x="4.038461538461538" y="10.961538461538462" /><rect fill="white" height="0.7692307692307693" width="0.7692307692307693" x="4.807692307692308" y="10.961538461538462" /><rect fill="white" height="0.7692307692307693" width="0.7692307692307693" x="6.346153846153847" y="10.961538461538462" /><rect fill="white" height="0.7692307692307693" width="0.7692307692307693" x="8.653846153846153" y="10.961538461538462" /><rect fill="white" height="0.7692307692307693" width="0.7692307692307693" x="15.576923076923078" y="10.961538461538462" /><rect fill="white" height="0.7692307692307693" width="0.7692307692307693" x="17.115384615384617" y="10.961538461538462" /><rect fill="white" height="0.7692307692307693" width="0.7692307692307693" x="17.884615384615387" y="10.961538461538462" /><rect fill="white" height="0.7692307692307693" width="0.7692307692307693" x="19.423076923076923" y="10.961538461538462" /><rect fill="white" height="0.7692307692307693" width="0.7692307692307693" x="21.730769230769234" y="10.961538461538462" /><rect fill="white" height="0.7692307692307693" width="0.7692307692307693" x="2.5" y="11.730769230769232" /><rect fill="white" height="0.7692307692307693" width="0.7692307692307693" x="4.807692307692308" y="11.730769230769232" /><rect fill="white" height="0.7692307692307693" width="0.7692307692307693" x="7.115384615384616" y="11.730769230769232" /><rect fill="white" height="0.7692307692307693" width="0.7692307692307693" x="13.26923076923077" y="11.730769230769232" /><rect fill="white" height="0.7692307692307693" width="0.7692307692307693" x="14.038461538461538" y="11.730769230769232" /><rect fill="white" height="0.7692307692307693" width="0.7692307692307693" x="15.576923076923078" y="11.730769230769232" /><rect fill="white" height="0.7692307692307693" width="0.7692307692307693" x="16.346153846153847" y="11.730769230769232" /><rect fill="white" height="0.7692307692307693" width="0.7692307692307693" x="19.423076923076923" y="11.730769230769232" /><rect fill="white" height="0.7692307692307693" width="0.7692307692307693" x="20.961538461538463" y="11.730769230769232" /><rect fill="white" height="0.7692307692307693" width="0.7692307692307693" x="2.5" y="12.5" /><rect fill="white" height="0.7692307692307693" width="0.7692307692307693" x="3.269230769230769" y="12.5" /><rect fill="white" height="0.7692307692307693" width="0.7692307692307693" x="4.038461538461538" y="12.5" /><rect fill="white" height="0.7692307692307693" width="0.7692307692307693" x="4.807692307692308" y="12.5" /><rect fill="white" height="0.7692307692307693" width="0.7692307692307693" x="6.346153846153847" y="12.5" /><rect fill="white" height="0.7692307692307693" width="0.7692307692307693" x="7.115384615384616" y="12.5" /><rect fill="white" height="0.7692307692307693" width="0.7692307692307693" x="7.884615384615385" y="12.5" /><rect fill="white" height="0.7692307692307693" width="0.7692307692307693" x="8.653846153846153" y="12.5" /><rect fill="white" height="0.7692307692307693" width="0.7692307692307693" x="9.423076923076923" y="12.5" /><rect fill="white" height="0.7692307692307693" width="0.7692307692307693" x="10.961538461538462" y="12.5" /><rect fill="white" height="0.7692307692307693" width="0.7692307692307693" x="12.5" y="12.5" /><rect fill="white" height="0.7692307692307693" width="0.7692307692307693" x="14.038461538461538" y="12.5" /><rect fill="white" height="0.7692307692307693" width="0.7692307692307693" x="17.115384615384617" y="12.5" /><rect fill="white" height="0.7692307692307693" width="0.7692307692307693" x="19.423076923076923" y="12.5" /><rect fill="white" height="0.7692307692307693" width="0.7692307692307693" x="20.192307692307693" y="12.5" /><rect fill="white" height="0.7692307692307693" width="0.7692307692307693" x="20.961538461538463" y="12.5" /><rect fill="white" height="0.7692307692307693" width="0.7692307692307693" x="21.730769230769234" y="12.5" /><rect fill="white" height="0.7692307692307693" width="0.7692307692307693" x="2.5" y="13.26923076923077" /><rect fill="white" height="0.7692307692307693" width="0.7692307692307693" x="4.038461538461538" y="13.26923076923077" /><rect fill="white" height="0.7692307692307693" width="0.7692307692307693" x="5.576923076923077" y="13.26923076923077" /><rect fill="white" height="0.7692307692307693" width="0.7692307692307693" x="8.653846153846153" y="13.26923076923077" /><rect fill="white" height="0.7692307692307693" width="0.7692307692307693" x="11.730769230769232" y="13.26923076923077" /><rect fill="white" height="0.7692307692307693" width="0.7692307692307693" x="12.5" y="13.26923076923077" /><rect fill="white" height="0.7692307692307693" width="0.7692307692307693" x="14.807692307692308" y="13.26923076923077" /><rect fill="white" height="0.7692307692307693" width="0.7692307692307693" x="19.423076923076923" y="13.26923076923077" /><rect fill="white" height="0.7692307692307693" width="0.7692307692307693" x="2.5" y="14.038461538461538" /><rect fill="white" height="0.7692307692307693" width="0.7692307692307693" x="3.269230769230769" y="14.038461538461538" /><rect fill="white" height="0.7692307692307693" width="0.7692307692307693" x="4.038461538461538" y="14.038461538461538" /><rect fill="white" height="0.7692307692307693" width="0.7692307692307693" x="5.576923076923077" y="14.038461538461538" /><rect fill="white" height="0.7692307692307693" width="0.7692307692307693" x="7.115384615384616" y="14.038461538461538" /><rect fill="white" height="0.7692307692307693" width="0.7692307692307693" x="8.653846153846153" y="14.038461538461538" /><rect fill="white" height="0.7692307692307693" width="0.7692307692307693" x="11.730769230769232" y="14.038461538461538" /><rect fill="white" height="0.7692307692307693" width="0.7692307692307693" x="14.038461538461538" y="14.038461538461538" /><rect fill="white" height="0.7692307692307693" width="0.7692307692307693" x="14.807692307692308" y="14.038461538461538" /><rect fill="white" height="0.7692307692307693" width="0.7692307692307693" x="15.576923076923078" y="14.038461538461538" /><rect fill="white" height="0.7692307692307693" width="0.7692307692307693" x="16.346153846153847" y="14.038461538461538" /><rect fill="white" height="0.7692307692307693" width="0.7692307692307693" x="17.115384615384617" y="14.038461538461538" /><rect fill="white" height="0.7692307692307693" width="0.7692307692307693" x="20.192307692307693" y="14.038461538461538" /><rect fill="white" height="0.7692307692307693" width="0.7692307692307693" x="21.730769230769234" y="14.038461538461538" /><rect fill="white" height="0.7692307692307693" width="0.7692307692307693" x="2.5" y="14.807692307692308" /><rect fill="white" height="0.7692307692307693" width="0.7692307692307693" x="3.269230769230769" y="14.807692307692308" /><rect fill="white" height="0.7692307692307693" width="0.7692307692307693" x="4.038461538461538" y="14.807692307692308" /><rect fill="white" height="0.7692307692307693" width="0.7692307692307693" x="4.807692307692308" y="14.807692307692308" /><rect fill="white" height="0.7692307692307693" width="0.7692307692307693" x="8.653846153846153" y="14.807692307692308" /><rect fill="white" height="0.7692307692307693" width="0.7692307692307693" x="9.423076923076923" y="14.807692307692308" /><rect fill="white" height="0.7692307692307693" width="0.7692307692307693" x="10.192307692307693" y="14.807692307692308" /><rect fill="white" height="0.7692307692307693" width="0.7692307692307693" x="10.961538461538462" y="14.807692307692308" /><rect fill="white" height="0.7692307692307693" width="0.7692307692307693" x="13.26923076923077" y="14.807692307692308" /><rect fill="white" height="0.7692307692307693" width="0.7692307692307693" x="15.576923076923078" y="14.807692307692308" /><rect fill="white" height="0.7692307692307693" width="0.7692307692307693" x="18.653846153846153" y="14.807692307692308" /><rect fill="white" height="0.7692307692307693" width="0.7692307692307693" x="19.423076923076923" y="14.807692307692308" /><rect fill="white" height="0.7692307692307693" width="0.7692307692307693" x="20.961538461538463" y="14.807692307692308" /><rect fill="white" height="0.7692307692307693" width="0.7692307692307693" x="2.5" y="15.576923076923078" /><rect fill="white" height="0.7692307692307693" width="0.7692307692307693" x="4.807692307692308" y="15.576923076923078" /><rect fill="white" height="0.7692307692307693" width="0.7692307692307693" x="7.115384615384616" y="15.576923076923078" /><rect fill="white" height="0.7692307692307693" width="0.7692307692307693" x="7.884615384615385" y="15.576923076923078" /><rect fill="white" height="0.7692307692307693" width="0.7692307692307693" x="8.653846153846153" y="15.576923076923078" /><rect fill="white" height="0.7692307692307693" width="0.7692307692307693" x="14.038461538461538" y="15.576923076923078" /><rect fill="white" height="0.7692307692307693" width="0.7692307692307693" x="14.807692307692308" y="15.576923076923078" /><rect fill="white" height="0.7692307692307693" width="0.7692307692307693" x="15.576923076923078" y="15.576923076923078" /><rect fill="white" height="0.7692307692307693" width="0.7692307692307693" x="17.115384615384617" y="15.576923076923078" /><rect fill="white" height="0.7692307692307693" width="0.7692307692307693" x="17.884615384615387" y="15.576923076923078" /><rect fill="white" height="0.7692307692307693" width="0.7692307692307693" x="18.653846153846153" y="15.576923076923078" /><rect fill="white" height="0.7692307692307693" width="0.7692307692307693" x="19.423076923076923" y="15.576923076923078" /><rect fill="white" height="0.7692307692307693" width="0.7692307692307693" x="20.192307692307693" y="15.576923076923078" /><rect fill="white" height="0.7692307692307693" width="0.7692307692307693" x="21.730769230769234" y="15.576923076923078" /><rect fill="white" height="0.7692307692307693" width="0.7692307692307693" x="2.5" y="16.346153846153847" /><rect fill="white" height="0.7692307692307693" width="0.7692307692307693" x="4.038461538461538" y="16.346153846153847" /><rect fill="white" height="0.7692307692307693" width="0.7692307692307693" x="5.576923076923077" y="16.346153846153847" /><rect fill="white" height="0.7692307692307693" width="0.7692307692307693" x="6.346153846153847" y="16.346153846153847" /><rect fill="white" height="0.7692307692307693" width="0.7692307692307693" x="7.115384615384616" y="16.346153846153847" /><rect fill="white" height="0.7692307692307693" width="0.7692307692307693" x="7.884615384615385" y="16.346153846153847" /><rect fill="white" height="0.7692307692307693" width="0.7692307692307693" x="12.5" y="16.346153846153847" /><rect fill="white" height="0.7692307692307693" width="0.7692307692307693" x="15.576923076923078" y="16.346153846153847" /><rect fill="white" height="0.7692307692307693" width="0.7692307692307693" x="17.115384615384617" y="16.346153846153847" /><rect fill="white" height="0.7692307692307693" width="0.7692307692307693" x="17.884615384615387" y="16.346153846153847" /><rect fill="white" height="0.7692307692307693" width="0.7692307692307693" x="18.653846153846153" y="16.346153846153847" /><rect fill="white" height="0.7692307692307693" width="0.7692307692307693" x="19.423076923076923" y="16.346153846153847" /><rect fill="white" height="0.7692307692307693" width="0.7692307692307693" x="20.961538461538463" y="16.346153846153847" /><rect fill="white" height="0.7692307692307693" width="0.7692307692307693" x="2.5" y="17.115384615384617" /><rect fill="white" height="0.7692307692307693" width="0.7692307692307693" x="3.269230769230769" y="17.115384615384617" /><rect fill="white" height="0.7692307692307693" width="0.7692307692307693" x="4.038461538461538" y="17.115384615384617" /><rect fill="white" height="0.7692307692307693" width="0.7692307692307693" x="4.807692307692308" y="17.115384615384617" /><rect fill="white" height="0.7692307692307693" width="0.7692307692307693" x="6.346153846153847" y="17.115384615384617" /><rect fill="white" height="0.7692307692307693" width="0.7692307692307693" x="9.423076923076923" y="17.115384615384617" /><rect fill="white" height="0.7692307692307693" width="0.7692307692307693" x="10.192307692307693" y="17.115384615384617" /><rect fill="white" height="0.7692307692307693" width="0.7692307692307693" x="14.807692307692308" y="17.115384615384617" /><rect fill="white" height="0.7692307692307693" width="0.7692307692307693" x="15.576923076923078" y="17.115384615384617" /><rect fill="white" height="0.7692307692307693" width="0.7692307692307693" x="16.346153846153847" y="17.115384615384617" /><rect fill="white" height="0.7692307692307693" width="0.7692307692307693" x="17.884615384615387" y="17.115384615384617" /><rect fill="white" height="0.7692307692307693" width="0.7692307692307693" x="20.192307692307693" y="17.115384615384617" /><rect fill="white" height="0.7692307692307693" width="0.7692307692307693" x="20.961538461538463" y="17.115384615384617" /><rect fill="white" height="0.7692307692307693" width="0.7692307692307693" x="21.730769230769234" y="17.115384615384617" /><rect fill="white" height="0.7692307692307693" width="0.7692307692307693" x="2.5" y="17.884615384615387" /><rect fill="white" height="0.7692307692307693" width="0.7692307692307693" x="3.269230769230769" y="17.884615384615387" /><rect fill="white" height="0.7692307692307693" width="0.7692307692307693" x="4.807692307692308" y="17.884615384615387" /><rect fill="white" height="0.7692307692307693" width="0.7692307692307693" x="5.576923076923077" y="17.884615384615387" /><rect fill="white" height="0.7692307692307693" width="0.7692307692307693" x="8.653846153846153" y="17.884615384615387" /><rect fill="white" height="0.7692307692307693" width="0.7692307692307693" x="9.423076923076923" y="17.884615384615387" /><rect fill="white" height="0.7692307692307693" width="0.7692307692307693" x="10.192307692307693" y="17.884615384615387" /><rect fill="white" height="0.7692307692307693" width="0.7692307692307693" x="11.730769230769232" y="17.884615384615387" /><rect fill="white" height="0.7692307692307693" width="0.7692307692307693" x="13.26923076923077" y="17.884615384615387" /><rect fill="white" height="0.7692307692307693" width="0.7692307692307693" x="14.038461538461538" y="17.884615384615387" /><rect fill="white" height="0.7692307692307693" width="0.7692307692307693" x="15.576923076923078" y="17.884615384615387" /><rect fill="white" height="0.7692307692307693" width="0.7692307692307693" x="16.346153846153847" y="17.884615384615387" /><rect fill="white" height="0.7692307692307693" width="0.7692307692307693" x="17.115384615384617" y="17.884615384615387" /><rect fill="white" height="0.7692307692307693" width="0.7692307692307693" x="17.884615384615387" y="17.884615384615387" /><rect fill="white" height="0.7692307692307693" width="0.7692307692307693" x="18.653846153846153" y="17.884615384615387" /><rect fill="white" height="0.7692307692307693" width="0.7692307692307693" x="20.192307692307693" y="17.884615384615387" /><rect fill="white" height="0.7692307692307693" width="0.7692307692307693" x="2.5" y="18.653846153846153" /><rect fill="white" height="0.7692307692307693" width="0.7692307692307693" x="4.038461538461538" y="18.653846153846153" /><rect fill="white" height="0.7692307692307693" width="0.7692307692307693" x="5.576923076923077" y="18.653846153846153" /><rect fill="white" height="0.7692307692307693" width="0.7692307692307693" x="8.653846153846153" y="18.653846153846153" /><rect fill="white" height="0.7692307692307693" width="0.7692307692307693" x="12.5" y="18.653846153846153" /><rect fill="white" height="0.7692307692307693" width="0.7692307692307693" x="14.038461538461538" y="18.653846153846153" /><rect fill="white" height="0.7692307692307693" width="0.7692307692307693" x="16.346153846153847" y="18.653846153846153" /><rect fill="white" height="0.7692307692307693" width="0.7692307692307693" x="17.884615384615387" y="18.653846153846153" /><rect fill="white" height="0.7692307692307693" width="0.7692307692307693" x="18.653846153846153" y="18.653846153846153" /><rect fill="white" height="0.7692307692307693" width="0.7692307692307693" x="19.423076923076923" y="18.653846153846153" /><rect fill="white" height="0.7692307692307693" width="0.7692307692307693" x="20.192307692307693" y="18.653846153846153" /><rect fill="white" height="0.7692307692307693" width="0.7692307692307693" x="21.730769230769234" y="18.653846153846153" /><rect fill="white" height="0.7692307692307693" width="0.7692307692307693" x="2.5" y="19.423076923076923" /><rect fill="white" height="0.7692307692307693" width="0.7692307692307693" x="4.807692307692308" y="19.423076923076923" /><rect fill="white" height="0.7692307692307693" width="0.7692307692307693" x="5.576923076923077" y="19.423076923076923" /><rect fill="white" height="0.7692307692307693" width="0.7692307692307693" x="6.346153846153847" y="19.423076923076923" /><rect fill="white" height="0.7692307692307693" width="0.7692307692307693" x="9.423076923076923" y="19.423076923076923" /><rect fill="white" height="0.7692307692307693" width="0.7692307692307693" x="11.730769230769232" y="19.423076923076923" /><rect fill="white" height="0.7692307692307693" width="0.7692307692307693" x="12.5" y="19.423076923076923" /><rect fill="white" height="0.7692307692307693" width="0.7692307692307693" x="14.038461538461538" y="19.423076923076923" /><rect fill="white" height="0.7692307692307693" width="0.7692307692307693" x="14.807692307692308" y="19.423076923076923" /><rect fill="white" height="0.7692307692307693" width="0.7692307692307693" x="17.115384615384617" y="19.423076923076923" /><rect fill="white" height="0.7692307692307693" width="0.7692307692307693" x="18.653846153846153" y="19.423076923076923" /><rect fill="white" height="0.7692307692307693" width="0.7692307692307693" x="20.961538461538463" y="19.423076923076923" /><rect fill="white" height="0.7692307692307693" width="0.7692307692307693" x="2.5" y="20.192307692307693" /><rect fill="white" height="0.7692307692307693" width="0.7692307692307693" x="3.269230769230769" y="20.192307692307693" /><rect fill="white" height="0.7692307692307693" width="0.7692307692307693" x="4.038461538461538" y="20.192307692307693" /><rect fill="white" height="0.7692307692307693" width="0.7692307692307693" x="4.807692307692308" y="20.192307692307693" /><rect fill="white" height="0.7692307692307693" width="0.7692307692307693" x="7.884615384615385" y="20.192307692307693" /><rect fill="white" height="0.7692307692307693" width="0.7692307692307693" x="9.423076923076923" y="20.192307692307693" /><rect fill="white" height="0.7692307692307693" width="0.7692307692307693" x="13.26923076923077" y="20.192307692307693" /><rect fill="white" height="0.7692307692307693" width="0.7692307692307693" x="14.807692307692308" y="20.192307692307693" /><rect fill="white" height="0.7692307692307693" width="0.7692307692307693" x="15.576923076923078" y="20.192307692307693" /><rect fill="white" height="0.7692307692307693" width="0.7692307692307693" x="17.115384615384617" y="20.192307692307693" /><rect fill="white" height="0.7692307692307693" width="0.7692307692307693" x="19.423076923076923" y="20.192307692307693" /><rect fill="white" height="0.7692307692307693" width="0.7692307692307693" x="21.730769230769234" y="20.192307692307693" /><rect fill="white" height="0.7692307692307693" width="0.7692307692307693" x="2.5" y="20.961538461538463" /><rect fill="white" height="0.7692307692307693" width="0.7692307692307693" x="4.038461538461538" y="20.961538461538463" /><rect fill="white" height="0.7692307692307693" width="0.7692307692307693" x="5.576923076923077" y="20.961538461538463" /><rect fill="white" height="0.7692307692307693" width="0.7692307692307693" x="6.346153846153847" y="20.961538461538463" /><rect fill="white" height="0.7692307692307693" width="0.7692307692307693" x="8.653846153846153" y="20.961538461538463" /><rect fill="white" height="0.7692307692307693" width="0.7692307692307693" x="9.423076923076923" y="20.961538461538463" /><rect fill="white" height="0.7692307692307693" width="0.7692307692307693" x="10.192307692307693" y="20.961538461538463" /><rect fill="white" height="0.7692307692307693" width="0.7692307692307693" x="11.730769230769232" y="20.961538461538463" /><rect fill="white" height="0.7692307692307693" width="0.7692307692307693" x="12.5" y="20.961538461538463" /><rect fill="white" height="0.7692307692307693" width="0.7692307692307693" x="13.26923076923077" y="20.961538461538463" /><rect fill="white" height="0.7692307692307693" width="0.7692307692307693" x="14.038461538461538" y="20.961538461538463" /><rect fill="white" height="0.7692307692307693" width="0.7692307692307693" x="15.576923076923078" y="20.961538461538463" /><rect fill="white" height="0.7692307692307693" width="0.7692307692307693" x="16.346153846153847" y="20.961538461538463" /><rect fill="white" height="0.7692307692307693" width="0.7692307692307693" x="17.115384615384617" y="20.961538461538463" /><rect fill="white" height="0.7692307692307693" width="0.7692307692307693" x="18.653846153846153" y="20.961538461538463" /><rect fill="white" height="0.7692307692307693" width="0.7692307692307693" x="19.423076923076923" y="20.961538461538463" /><rect fill="white" height="0.7692307692307693" width="0.7692307692307693" x="20.192307692307693" y="20.961538461538463" /><rect fill="white" height="0.7692307692307693" width="0.7692307692307693" x="20.961538461538463" y="20.961538461538463" /><rect fill="white" height="0.7692307692307693" width="0.7692307692307693" x="2.5" y="21.730769230769234" /><rect fill="white" height="0.7692307692307693" width="0.7692307692307693" x="3.269230769230769" y="21.730769230769234" /><rect fill="white" height="0.7692307692307693" width="0.7692307692307693" x="4.038461538461538" y="21.730769230769234" /><rect fill="white" height="0.7692307692307693" width="0.7692307692307693" x="4.807692307692308" y="21.730769230769234" /><rect fill="white" height="0.7692307692307693" width="0.7692307692307693" x="5.576923076923077" y="21.730769230769234" /><rect fill="white" height="0.7692307692307693" width="0.7692307692307693" x="6.346153846153847" y="21.730769230769234" /><rect fill="white" height="0.7692307692307693" width="0.7692307692307693" x="7.115384615384616" y="21.730769230769234" /><rect fill="white" height="0.7692307692307693" width="0.7692307692307693" x="7.884615384615385" y="21.730769230769234" /><rect fill="white" height="0.7692307692307693" width="0.7692307692307693" x="8.653846153846153" y="21.730769230769234" /><rect fill="white" height="0.7692307692307693" width="0.7692307692307693" x="9.423076923076923" y="21.730769230769234" /><rect fill="white" height="0.7692307692307693" width="0.7692307692307693" x="10.192307692307693" y="21.730769230769234" /><rect fill="white" height="0.7692307692307693" width="0.7692307692307693" x="10.961538461538462" y="21.730769230769234" /><rect fill="white" height="0.7692307692307693" width="0.7692307692307693" x="11.730769230769232" y="21.730769230769234" /><rect fill="white" height="0.7692307692307693" width="0.7692307692307693" x="12.5" y="21.730769230769234" /><rect fill="white" height="0.7692307692307693" width="0.7692307692307693" x="13.26923076923077" y="21.730769230769234" /><rect fill="white" height="0.7692307692307693" width="0.7692307692307693" x="14.038461538461538" y="21.730769230769234" /><rect fill="white" height="0.7692307692307693" width="0.7692307692307693" x="14.807692307692308" y="21.730769230769234" /><rect fill="white" height="0.7692307692307693" width="0.7692307692307693" x="15.576923076923078" y="21.730769230769234" /><rect fill="white" height="0.7692307692307693" width="0.7692307692307693" x="16.346153846153847" y="21.730769230769234" /><rect fill="white" height="0.7692307692307693" width="0.7692307692307693" x="17.115384615384617" y="21.730769230769234" /><rect fill="white" height="0.7692307692307693" width="0.7692307692307693" x="17.884615384615387" y="21.730769230769234" /><rect fill="white" height="0.7692307692307693" width="0.7692307692307693" x="18.653846153846153" y="21.730769230769234" /><rect fill="white" height="0.7692307692307693" width="0.7692307692307693" x="19.423076923076923" y="21.730769230769234" /><rect fill="white" height="0.7692307692307693" width="0.7692307692307693" x="20.192307692307693" y="21.730769230769234" /><rect fill="white" height="0.7692307692307693" width="0.7692307692307693" x="20.961538461538463" y="21.730769230769234" /><rect fill="white" height="0.7692307692307693" width="0.7692307692307693" x="21.730769230769234" y="21.730769230769234" /></svg>